<?xml version="1.0" encoding="iso-8859-1"?>
<!-- Generator: Adobe Illustrator 19.0.0, SVG Export Plug-In . SVG Version: 6.00 Build 0)  -->
<svg version="1.1" id="Capa_1" xmlns="http://www.w3.org/2000/svg" xmlns:xlink="http://www.w3.org/1999/xlink" x="0px" y="0px"
	 viewBox="0 0 512 512" style="enable-background:new 0 0 512 512;" xml:space="preserve">
<linearGradient id="SVGID_1_" gradientUnits="userSpaceOnUse" x1="99.1206" y1="169.543" x2="99.1206" y2="37.513" gradientTransform="matrix(1.0039 0 0 -1.0039 0.1922 516.5609)">
	<stop  offset="0" style="stop-color:#E2EDF2"/>
	<stop  offset="1" style="stop-color:#9FC7E2"/>
</linearGradient>
<polygon style="fill:url(#SVGID_1_);" points="137.347,512 62.056,512 62.056,398.223 137.347,320.753 "/>
<linearGradient id="SVGID_2_" gradientUnits="userSpaceOnUse" x1="92.7616" y1="155.843" x2="92.7616" y2="42.003" gradientTransform="matrix(1.0039 0 0 -1.0039 0.1922 516.5609)">
	<stop  offset="0" style="stop-color:#4975AD"/>
	<stop  offset="1" style="stop-color:#114F77"/>
</linearGradient>
<path style="fill:url(#SVGID_2_);" d="M157.087,271.089v46.461L55.731,418.906c-3.935,3.925-10.31,3.925-14.246,0l-8.985-8.995
	c-3.935-3.925-3.935-10.31,0-14.236L157.087,271.089z"/>
<g>
	<path style="fill:#654E48;" d="M469.331,208.324h-26.984v-79.32h26.984V208.324z M449.374,201.296h12.93v-65.265h-12.93V201.296z"
		/>
	<rect x="445.169" y="147.326" style="fill:#654E48;" width="21.333" height="7.027"/>
	<rect x="445.169" y="161.049" style="fill:#654E48;" width="21.333" height="7.027"/>
	<rect x="445.169" y="174.763" style="fill:#654E48;" width="21.333" height="7.027"/>
	<rect x="445.169" y="188.486" style="fill:#654E48;" width="21.333" height="7.027"/>
	<path style="fill:#654E48;" d="M469.331,332.319h-26.984v-79.321h26.984V332.319z M449.374,325.292h12.93v-65.266h-12.93V325.292z"
		/>
	<rect x="445.169" y="271.32" style="fill:#654E48;" width="21.333" height="7.027"/>
	<rect x="445.169" y="285.043" style="fill:#654E48;" width="21.333" height="7.027"/>
	<rect x="445.169" y="298.757" style="fill:#654E48;" width="21.333" height="7.027"/>
	<rect x="445.169" y="312.481" style="fill:#654E48;" width="21.333" height="7.027"/>
	<path style="fill:#654E48;" d="M469.331,429.511h-26.984v-51.785h26.984V429.511z M449.374,422.483h12.93v-37.73h-12.93V422.483z"
		/>
	<rect x="445.169" y="396.047" style="fill:#654E48;" width="21.333" height="7.027"/>
	<rect x="445.169" y="409.771" style="fill:#654E48;" width="21.333" height="7.027"/>
	<path style="fill:#654E48;" d="M477.799,129.172h-7.027V87.156c0-1.467-1.193-2.659-2.659-2.659h-35.992V77.47h35.992
		c5.341,0,9.687,4.346,9.687,9.687V129.172z"/>
	<rect x="456.714" y="80.816" style="fill:#654E48;" width="7.027" height="47.686"/>
	<rect x="443.663" y="80.816" style="fill:#654E48;" width="7.027" height="47.686"/>
</g>
<path style="fill:#503837;" d="M478.495,142.557h-72.676c-2.186,0-3.956-1.772-3.956-3.956v-10.826c0-2.186,1.772-3.956,3.956-3.956
	h72.676c2.186,0,3.956,1.772,3.956,3.956V138.6C482.452,140.785,480.68,142.557,478.495,142.557z"/>
<g>
	<path style="fill:#654E48;" d="M477.799,377.161h-7.027v-42.015c0-1.466-1.193-2.659-2.659-2.659h-35.992v-7.027h35.992
		c5.341,0,9.687,4.346,9.687,9.687V377.161z"/>
	<rect x="456.714" y="328.804" style="fill:#654E48;" width="7.027" height="47.686"/>
	<rect x="443.663" y="328.804" style="fill:#654E48;" width="7.027" height="47.686"/>
</g>
<path style="fill:#503837;" d="M478.495,390.547h-72.676c-2.186,0-3.956-1.772-3.956-3.956v-10.826c0-2.186,1.772-3.956,3.956-3.956
	h72.676c2.186,0,3.956,1.772,3.956,3.956v10.826C482.452,388.775,480.68,390.547,478.495,390.547z"/>
<g>
	<path style="fill:#654E48;" d="M477.799,253.166h-7.027v-42.015c0-1.466-1.193-2.659-2.659-2.659h-35.992v-7.027h35.992
		c5.341,0,9.687,4.346,9.687,9.687V253.166z"/>
	<rect x="456.714" y="204.81" style="fill:#654E48;" width="7.027" height="47.686"/>
	<rect x="443.663" y="204.81" style="fill:#654E48;" width="7.027" height="47.686"/>
</g>
<path style="fill:#503837;" d="M478.495,266.551h-72.676c-2.186,0-3.956-1.772-3.956-3.956v-10.826c0-2.186,1.772-3.956,3.956-3.956
	h72.676c2.186,0,3.956,1.772,3.956,3.956v10.826C482.452,264.78,480.68,266.551,478.495,266.551z"/>
<linearGradient id="SVGID_3_" gradientUnits="userSpaceOnUse" x1="284.2386" y1="368.833" x2="284.2386" y2="-424.317" gradientTransform="matrix(1.0039 0 0 -1.0039 0.1922 516.5609)">
	<stop  offset="0" style="stop-color:#E2EDF2"/>
	<stop  offset="1" style="stop-color:#9FC7E2"/>
</linearGradient>
<rect x="133.823" y="16.515" style="fill:url(#SVGID_3_);" width="303.445" height="495.486"/>
<linearGradient id="SVGID_4_" gradientUnits="userSpaceOnUse" x1="284.2421" y1="401.693" x2="284.2421" y2="491.886" gradientTransform="matrix(1.0039 0 0 -1.0039 0.1922 516.5609)">
	<stop  offset="0" style="stop-color:#E2EDF2;stop-opacity:0"/>
	<stop  offset="1" style="stop-color:#A5B0B8"/>
</linearGradient>
<polygon style="fill:url(#SVGID_4_);" points="437.275,16.511 437.275,109.69 204.193,109.69 133.823,39.322 133.823,16.511 "/>
<linearGradient id="SVGID_5_" gradientUnits="userSpaceOnUse" x1="284.2416" y1="510.503" x2="284.2416" y2="460.083" gradientTransform="matrix(1.0039 0 0 -1.0039 0.1922 516.5609)">
	<stop  offset="0" style="stop-color:#4975AD"/>
	<stop  offset="1" style="stop-color:#114F77"/>
</linearGradient>
<path style="fill:url(#SVGID_5_);" d="M445.119,6.675v24.804c0,3.686-2.989,6.675-6.675,6.675H132.653
	c-3.686,0-6.675-2.989-6.675-6.675V6.675c0-3.686,2.989-6.675,6.675-6.675h305.791C442.13,0,445.119,2.989,445.119,6.675z"/>
<linearGradient id="SVGID_6_" gradientUnits="userSpaceOnUse" x1="252.9595" y1="347.9239" x2="143.0694" y2="457.8188" gradientTransform="matrix(1.0039 0 0 -1.0039 0.1922 516.5609)">
	<stop  offset="0" style="stop-color:#E2EDF2;stop-opacity:0"/>
	<stop  offset="1" style="stop-color:#A5B0B8"/>
</linearGradient>
<path style="fill:url(#SVGID_6_);" d="M335.259,174.714H186.996c0,0-31.737-31.737-33.231-33.231
	c-1.494-1.494-1.175-5.203-1.175-5.203c-0.006,0-0.005-4.692-0.003-8.317c0.001-2.285,1.854-4.135,4.139-4.135h3.682V68.583
	c0-6.37,5.164-11.534,11.534-11.534h41.807c0.229,0,0.458,0.01,0.687,0.021c0.167,0.01,0.333,0.021,0.489,0.042
	c0.177,0.01,0.343,0.031,0.52,0.062c0.208,0.031,0.417,0.062,0.624,0.114c0.208,0.042,0.417,0.083,0.614,0.146
	c0.24,0.062,0.469,0.124,0.698,0.208c0.458,0.146,0.906,0.333,1.332,0.531c0.427,0.208,0.843,0.437,1.239,0.698
	c0.208,0.124,0.396,0.26,0.593,0.406c0.177,0.124,0.354,0.271,0.531,0.406c0.219,0.177,0.427,0.364,0.624,0.562
	c0.146,0.136,0.291,0.281,0.427,0.427c0.157,0.157,0.302,0.323,0.448,0.489c0.021,0.031,0.041,0.062,0.073,0.093
	c0.281,0.343,0.541,0.698,0.77,1.062c0,0,0.021,0.01,0.021,0.021l-0.312,0.25l25.192,25.192l6.912,6.912l6.34,6.34l8.891,8.891
	l26.806,26.806l6.923,6.923L335.259,174.714z"/>
<path style="fill:#503837;" d="M213.757,131.355h-41.814c-2.637,0-4.775-2.137-4.775-4.775V68.585c0-2.637,2.137-4.775,4.775-4.775
	h41.814c2.637,0,4.775,2.137,4.775,4.775v57.996C218.531,129.217,216.393,131.355,213.757,131.355z"/>
<rect x="167.414" y="110.1" style="fill:#7ECCFD;" width="50.866" height="22.126"/>
<path style="fill:#FFFFFF;" d="M224.171,63.625c-0.212-0.446-0.457-0.88-0.725-1.293l-0.022-0.011
	c-0.234-0.368-0.491-0.725-0.769-1.07c-0.033-0.022-0.056-0.056-0.078-0.089c-0.145-0.168-0.29-0.334-0.446-0.491
	c-0.134-0.146-0.279-0.29-0.424-0.424c-0.201-0.201-0.413-0.39-0.624-0.568c-0.179-0.134-0.356-0.279-0.535-0.402
	c-0.201-0.146-0.379-0.279-0.591-0.413c-0.391-0.256-0.814-0.48-1.238-0.691c-0.424-0.201-0.88-0.391-1.338-0.535
	c-0.223-0.078-0.457-0.146-0.691-0.201c-0.201-0.067-0.413-0.111-0.613-0.145c-0.212-0.056-0.424-0.089-0.624-0.122
	c-0.179-0.033-0.345-0.044-0.524-0.055c-0.157-0.022-0.323-0.033-0.491-0.044c-0.223-0.011-0.457-0.022-0.692-0.022h-41.807
	c-6.355,0-11.528,5.173-11.528,11.539v58.028c0,0.212,0.011,0.435,0.022,0.647c0.011,0.167,0.022,0.334,0.033,0.491
	c0.011,0.19,0.044,0.367,0.078,0.546c0.056,0.413,0.134,0.825,0.245,1.227c0.067,0.234,0.134,0.457,0.212,0.691
	c0.146,0.458,0.334,0.904,0.535,1.327c0.201,0.424,0.435,0.847,0.692,1.238c0.122,0.201,0.267,0.402,0.402,0.591
	c0.135,0.19,0.279,0.379,0.435,0.557c0.157,0.179,0.301,0.356,0.469,0.524c0.156,0.168,0.312,0.323,0.479,0.48
	c0.179,0.168,0.356,0.334,0.546,0.491c0.157,0.134,0.323,0.267,0.491,0.402c0.022,0.011,0.044,0.033,0.067,0.044
	c0.19,0.134,0.378,0.267,0.579,0.391c0.011,0.011,0.011,0.022,0.022,0.022c1.795,1.171,3.924,1.828,6.221,1.828h41.807
	c6.366,0,11.539-5.173,11.539-11.528V68.586C225.285,66.813,224.883,65.13,224.171,63.625z M211.773,70.571v22.997h-37.849V70.571
	H211.773z M173.923,124.596v-22.998h37.849v22.998C211.772,124.596,173.923,124.596,173.923,124.596z"/>
<linearGradient id="SVGID_7_" gradientUnits="userSpaceOnUse" x1="191.9046" y1="392.543" x2="191.9046" y2="370.543" gradientTransform="matrix(1.0039 0 0 -1.0039 0.1922 516.5609)">
	<stop  offset="0" style="stop-color:#4975AD"/>
	<stop  offset="1" style="stop-color:#114F77"/>
</linearGradient>
<path style="fill:url(#SVGID_7_);" d="M229.187,142.557h-72.676c-2.186,0-3.956-1.772-3.956-3.956v-10.826
	c0-2.186,1.772-3.956,3.956-3.956h72.676c2.186,0,3.956,1.772,3.956,3.956V138.6C233.145,140.785,231.373,142.557,229.187,142.557z"
	/>
<linearGradient id="SVGID_8_" gradientUnits="userSpaceOnUse" x1="346.2915" y1="347.9259" x2="236.4015" y2="457.8209" gradientTransform="matrix(1.0039 0 0 -1.0039 0.1922 516.5609)">
	<stop  offset="0" style="stop-color:#E2EDF2;stop-opacity:0"/>
	<stop  offset="1" style="stop-color:#A5B0B8"/>
</linearGradient>
<path style="fill:url(#SVGID_8_);" d="M428.959,174.714H280.696c0,0-31.737-31.737-33.231-33.231
	c-1.494-1.494-1.175-5.203-1.175-5.203c-0.006,0-0.005-4.692-0.003-8.317c0.001-2.285,1.854-4.135,4.139-4.135h3.682V68.583
	c0-6.37,5.164-11.534,11.534-11.534h41.807c0.229,0,0.458,0.01,0.687,0.021c0.167,0.01,0.333,0.021,0.489,0.042
	c0.177,0.01,0.343,0.031,0.52,0.062c0.208,0.031,0.417,0.062,0.624,0.114c0.208,0.042,0.417,0.083,0.614,0.146
	c0.24,0.062,0.469,0.124,0.698,0.208c0.458,0.146,0.906,0.333,1.332,0.531c0.427,0.208,0.843,0.437,1.239,0.698
	c0.208,0.124,0.396,0.26,0.593,0.406c0.177,0.124,0.354,0.271,0.531,0.406c0.219,0.177,0.427,0.364,0.624,0.562
	c0.146,0.136,0.291,0.281,0.427,0.427c0.156,0.157,0.302,0.323,0.448,0.489c0.021,0.031,0.041,0.062,0.073,0.093
	c0.281,0.343,0.541,0.698,0.77,1.062c0,0,0.021,0.01,0.021,0.021l-0.312,0.25l25.192,25.192l6.912,6.912l6.34,6.34l8.891,8.891
	l26.806,26.806l6.923,6.923L428.959,174.714z"/>
<path style="fill:#503837;" d="M307.456,131.355h-41.814c-2.637,0-4.775-2.137-4.775-4.775V68.585c0-2.637,2.137-4.775,4.775-4.775
	h41.814c2.637,0,4.775,2.137,4.775,4.775v57.996C312.231,129.217,310.092,131.355,307.456,131.355z"/>
<rect x="261.12" y="118.463" style="fill:#7ECCFD;" width="50.866" height="13.755"/>
<path style="fill:#FFFFFF;" d="M317.87,63.625c-0.212-0.446-0.457-0.88-0.725-1.293l-0.022-0.011
	c-0.234-0.368-0.491-0.725-0.769-1.07c-0.033-0.022-0.056-0.056-0.078-0.089c-0.145-0.168-0.29-0.334-0.446-0.491
	c-0.134-0.146-0.279-0.29-0.424-0.424c-0.201-0.201-0.413-0.39-0.624-0.568c-0.179-0.134-0.356-0.279-0.535-0.402
	c-0.201-0.146-0.379-0.279-0.591-0.413c-0.391-0.256-0.814-0.48-1.238-0.691c-0.424-0.201-0.88-0.391-1.338-0.535
	c-0.223-0.078-0.457-0.146-0.691-0.201c-0.201-0.067-0.413-0.111-0.613-0.145c-0.212-0.056-0.424-0.089-0.624-0.122
	c-0.179-0.033-0.345-0.044-0.524-0.055c-0.157-0.022-0.323-0.033-0.491-0.044c-0.223-0.011-0.457-0.022-0.692-0.022h-41.807
	c-6.355,0-11.528,5.173-11.528,11.539v58.028c0,0.212,0.011,0.435,0.022,0.647c0.011,0.167,0.022,0.334,0.033,0.491
	c0.011,0.19,0.044,0.367,0.078,0.546c0.056,0.413,0.134,0.825,0.245,1.227c0.067,0.234,0.134,0.457,0.212,0.691
	c0.146,0.458,0.334,0.904,0.535,1.327c0.201,0.424,0.435,0.847,0.692,1.238c0.122,0.201,0.267,0.402,0.402,0.591
	c0.134,0.19,0.279,0.379,0.435,0.557c0.157,0.179,0.301,0.356,0.469,0.524c0.156,0.168,0.312,0.323,0.479,0.48
	c0.179,0.168,0.356,0.334,0.546,0.491c0.157,0.134,0.323,0.267,0.491,0.402c0.022,0.011,0.044,0.033,0.067,0.044
	c0.19,0.134,0.379,0.267,0.579,0.391c0.011,0.011,0.011,0.022,0.022,0.022c1.795,1.171,3.924,1.828,6.221,1.828h41.807
	c6.366,0,11.539-5.173,11.539-11.528V68.586C318.984,66.813,318.583,65.13,317.87,63.625z M305.472,70.571v22.997h-37.849V70.571
	H305.472z M267.623,124.596v-22.998h37.849v22.998C305.472,124.596,267.623,124.596,267.623,124.596z"/>
<linearGradient id="SVGID_9_" gradientUnits="userSpaceOnUse" x1="285.2386" y1="392.543" x2="285.2386" y2="370.543" gradientTransform="matrix(1.0039 0 0 -1.0039 0.1922 516.5609)">
	<stop  offset="0" style="stop-color:#4975AD"/>
	<stop  offset="1" style="stop-color:#114F77"/>
</linearGradient>
<path style="fill:url(#SVGID_9_);" d="M322.887,142.557h-72.676c-2.186,0-3.956-1.772-3.956-3.956v-10.826
	c0-2.186,1.772-3.956,3.956-3.956h72.676c2.186,0,3.956,1.772,3.956,3.956V138.6C326.844,140.785,325.072,142.557,322.887,142.557z"
	/>
<linearGradient id="SVGID_10_" gradientUnits="userSpaceOnUse" x1="421.9461" y1="365.6105" x2="344.8961" y2="442.6585" gradientTransform="matrix(1.0039 0 0 -1.0039 0.1922 516.5609)">
	<stop  offset="0" style="stop-color:#E2EDF2;stop-opacity:0"/>
	<stop  offset="1" style="stop-color:#A5B0B8"/>
</linearGradient>
<path style="fill:url(#SVGID_10_);" d="M437.271,89.329v85.384h-62.876c0,0-31.734-31.734-33.23-33.23s-1.175-5.2-1.175-5.2
	c-0.01,0-0.01-4.698,0-8.323c0-2.279,1.847-4.136,4.136-4.136h3.684V68.578c0-6.365,5.16-11.525,11.535-11.525h41.803
	c0.231,0,0.462,0.01,0.683,0.02c0.171,0.01,0.341,0.02,0.492,0.04c0.181,0.01,0.341,0.03,0.522,0.06
	c0.211,0.03,0.422,0.06,0.622,0.11c0.211,0.05,0.422,0.09,0.612,0.151c0.241,0.06,0.472,0.12,0.703,0.211
	c0.462,0.141,0.904,0.331,1.335,0.532c0.422,0.201,0.843,0.432,1.235,0.693c0.211,0.12,0.392,0.261,0.592,0.402
	c0.181,0.131,0.351,0.271,0.532,0.412c0.221,0.181,0.432,0.361,0.622,0.562c0.151,0.131,0.291,0.281,0.432,0.422
	c0.151,0.161,0.301,0.331,0.442,0.492c0.02,0.03,0.05,0.06,0.08,0.09c0.281,0.351,0.542,0.703,0.763,1.064c0,0,0.02,0.01,0.02,0.02
	l-0.311,0.251l25.198,25.198L437.271,89.329z"/>
<path style="fill:#503837;" d="M401.155,131.355h-41.814c-2.637,0-4.775-2.137-4.775-4.775V68.585c0-2.637,2.137-4.775,4.775-4.775
	h41.814c2.637,0,4.775,2.137,4.775,4.775v57.996C405.93,129.217,403.792,131.355,401.155,131.355z"/>
<rect x="354.816" y="97.581" style="fill:#7ECCFD;" width="50.866" height="34.635"/>
<path style="fill:#FFFFFF;" d="M411.569,63.625c-0.212-0.446-0.457-0.88-0.725-1.293l-0.022-0.011
	c-0.234-0.368-0.491-0.725-0.769-1.07c-0.033-0.022-0.056-0.056-0.078-0.089c-0.145-0.168-0.29-0.334-0.446-0.491
	c-0.134-0.146-0.279-0.29-0.424-0.424c-0.201-0.201-0.413-0.39-0.624-0.568c-0.179-0.134-0.356-0.279-0.535-0.402
	c-0.201-0.146-0.379-0.279-0.591-0.413c-0.391-0.256-0.814-0.48-1.238-0.691c-0.424-0.201-0.88-0.391-1.338-0.535
	c-0.223-0.078-0.457-0.146-0.691-0.201c-0.201-0.067-0.413-0.111-0.613-0.145c-0.212-0.056-0.424-0.089-0.624-0.122
	c-0.179-0.033-0.345-0.044-0.524-0.055c-0.157-0.022-0.323-0.033-0.491-0.044c-0.223-0.011-0.457-0.022-0.692-0.022h-41.807
	c-6.355,0-11.528,5.173-11.528,11.539v58.028c0,0.212,0.011,0.435,0.022,0.647c0.011,0.167,0.022,0.334,0.033,0.491
	c0.011,0.19,0.044,0.367,0.078,0.546c0.056,0.413,0.134,0.825,0.245,1.227c0.067,0.234,0.134,0.457,0.212,0.691
	c0.146,0.458,0.334,0.904,0.535,1.327c0.201,0.424,0.435,0.847,0.692,1.238c0.122,0.201,0.267,0.402,0.402,0.591
	s0.279,0.379,0.435,0.557c0.157,0.179,0.301,0.356,0.469,0.524c0.156,0.168,0.312,0.323,0.479,0.48
	c0.179,0.168,0.356,0.334,0.546,0.491c0.157,0.134,0.323,0.267,0.491,0.402c0.022,0.011,0.044,0.033,0.067,0.044
	c0.19,0.134,0.379,0.267,0.579,0.391c0.011,0.011,0.011,0.022,0.022,0.022c1.795,1.171,3.924,1.828,6.221,1.828h41.807
	c6.366,0,11.539-5.173,11.539-11.528V68.586C412.684,66.813,412.283,65.13,411.569,63.625z M399.172,70.571v22.997h-37.849V70.571
	H399.172z M361.322,124.596v-22.998h37.849v22.998C399.171,124.596,361.322,124.596,361.322,124.596z"/>
<linearGradient id="SVGID_11_" gradientUnits="userSpaceOnUse" x1="378.5716" y1="392.543" x2="378.5716" y2="370.543" gradientTransform="matrix(1.0039 0 0 -1.0039 0.1922 516.5609)">
	<stop  offset="0" style="stop-color:#4975AD"/>
	<stop  offset="1" style="stop-color:#114F77"/>
</linearGradient>
<path style="fill:url(#SVGID_11_);" d="M416.586,142.557H343.91c-2.186,0-3.956-1.772-3.956-3.956v-10.826
	c0-2.186,1.772-3.956,3.956-3.956h72.676c2.186,0,3.956,1.772,3.956,3.956V138.6C420.543,140.785,418.772,142.557,416.586,142.557z"
	/>
<linearGradient id="SVGID_12_" gradientUnits="userSpaceOnUse" x1="252.961" y1="224.4154" x2="143.071" y2="334.3054" gradientTransform="matrix(1.0039 0 0 -1.0039 0.1922 516.5609)">
	<stop  offset="0" style="stop-color:#E2EDF2;stop-opacity:0"/>
	<stop  offset="1" style="stop-color:#A5B0B8"/>
</linearGradient>
<path style="fill:url(#SVGID_12_);" d="M335.259,298.709H186.996c0,0-31.737-31.737-33.231-33.231
	c-1.494-1.494-1.175-5.203-1.175-5.203c-0.006,0-0.005-4.692-0.003-8.318c0.001-2.285,1.854-4.135,4.139-4.135h3.682v-55.245
	c0-6.37,5.164-11.534,11.534-11.534h41.807c0.229,0,0.458,0.01,0.687,0.021c0.167,0.01,0.333,0.021,0.489,0.042
	c0.177,0.01,0.343,0.031,0.52,0.062c0.208,0.031,0.417,0.062,0.624,0.114c0.208,0.042,0.417,0.083,0.614,0.146
	c0.24,0.062,0.469,0.124,0.698,0.208c0.458,0.146,0.906,0.333,1.332,0.531c0.427,0.208,0.843,0.437,1.239,0.698
	c0.208,0.124,0.396,0.26,0.593,0.406c0.177,0.124,0.354,0.271,0.531,0.406c0.219,0.177,0.427,0.364,0.624,0.562
	c0.146,0.136,0.291,0.281,0.427,0.427c0.157,0.157,0.302,0.323,0.448,0.489c0.021,0.031,0.041,0.062,0.073,0.093
	c0.281,0.343,0.541,0.698,0.77,1.062c0,0,0.021,0.01,0.021,0.021l-0.312,0.25l25.192,25.192l6.912,6.912l6.34,6.34l8.891,8.891
	l26.806,26.806l6.923,6.923L335.259,298.709z"/>
<path style="fill:#503837;" d="M213.757,255.349h-41.814c-2.637,0-4.775-2.137-4.775-4.775v-57.996c0-2.637,2.137-4.775,4.775-4.775
	h41.814c2.637,0,4.775,2.137,4.775,4.775v57.996C218.531,253.212,216.393,255.349,213.757,255.349z"/>
<rect x="167.414" y="221.576" style="fill:#7ECCFD;" width="50.866" height="34.635"/>
<path style="fill:#FFFFFF;" d="M224.171,187.62c-0.212-0.446-0.457-0.88-0.725-1.293l-0.022-0.011
	c-0.234-0.368-0.491-0.725-0.769-1.07c-0.033-0.022-0.056-0.056-0.078-0.089c-0.145-0.168-0.29-0.334-0.446-0.491
	c-0.134-0.146-0.279-0.29-0.424-0.424c-0.201-0.201-0.413-0.39-0.624-0.568c-0.179-0.134-0.356-0.279-0.535-0.402
	c-0.201-0.146-0.379-0.279-0.591-0.413c-0.391-0.256-0.814-0.48-1.238-0.691c-0.424-0.201-0.88-0.391-1.338-0.535
	c-0.223-0.078-0.457-0.146-0.691-0.201c-0.201-0.067-0.413-0.111-0.613-0.145c-0.212-0.056-0.424-0.089-0.624-0.122
	c-0.179-0.033-0.345-0.044-0.524-0.055c-0.157-0.022-0.323-0.033-0.491-0.044c-0.223-0.011-0.457-0.022-0.692-0.022h-41.807
	c-6.355,0-11.528,5.173-11.528,11.539v58.028c0,0.212,0.011,0.435,0.022,0.647c0.011,0.167,0.022,0.334,0.033,0.491
	c0.011,0.19,0.044,0.367,0.078,0.546c0.056,0.413,0.134,0.825,0.245,1.227c0.067,0.234,0.134,0.457,0.212,0.691
	c0.146,0.458,0.334,0.904,0.535,1.327c0.201,0.424,0.435,0.847,0.692,1.238c0.122,0.201,0.267,0.402,0.402,0.591
	c0.135,0.19,0.279,0.379,0.435,0.557c0.157,0.179,0.301,0.356,0.469,0.524c0.156,0.168,0.312,0.323,0.479,0.48
	c0.179,0.168,0.356,0.334,0.546,0.491c0.157,0.134,0.323,0.267,0.491,0.402c0.022,0.011,0.044,0.033,0.067,0.044
	c0.19,0.134,0.378,0.267,0.579,0.391c0.011,0.011,0.011,0.022,0.022,0.022c1.795,1.171,3.924,1.828,6.221,1.828h41.807
	c6.366,0,11.539-5.173,11.539-11.528v-57.995C225.285,190.808,224.883,189.125,224.171,187.62z M211.773,194.565v22.997h-37.849
	v-22.997H211.773z M173.923,248.591v-22.998h37.849v22.998H173.923z"/>
<linearGradient id="SVGID_13_" gradientUnits="userSpaceOnUse" x1="191.9046" y1="269.033" x2="191.9046" y2="247.033" gradientTransform="matrix(1.0039 0 0 -1.0039 0.1922 516.5609)">
	<stop  offset="0" style="stop-color:#4975AD"/>
	<stop  offset="1" style="stop-color:#114F77"/>
</linearGradient>
<path style="fill:url(#SVGID_13_);" d="M229.187,266.551h-72.676c-2.186,0-3.956-1.772-3.956-3.956v-10.826
	c0-2.186,1.772-3.956,3.956-3.956h72.676c2.186,0,3.956,1.772,3.956,3.956v10.826C233.145,264.78,231.373,266.551,229.187,266.551z"
	/>
<linearGradient id="SVGID_14_" gradientUnits="userSpaceOnUse" x1="346.293" y1="224.4174" x2="236.403" y2="334.3074" gradientTransform="matrix(1.0039 0 0 -1.0039 0.1922 516.5609)">
	<stop  offset="0" style="stop-color:#E2EDF2;stop-opacity:0"/>
	<stop  offset="1" style="stop-color:#A5B0B8"/>
</linearGradient>
<path style="fill:url(#SVGID_14_);" d="M428.959,298.709H280.696c0,0-31.737-31.737-33.231-33.231
	c-1.494-1.494-1.175-5.203-1.175-5.203c-0.006,0-0.005-4.692-0.003-8.318c0.001-2.285,1.854-4.135,4.139-4.135h3.682v-55.245
	c0-6.37,5.164-11.534,11.534-11.534h41.807c0.229,0,0.458,0.01,0.687,0.021c0.167,0.01,0.333,0.021,0.489,0.042
	c0.177,0.01,0.343,0.031,0.52,0.062c0.208,0.031,0.417,0.062,0.624,0.114c0.208,0.042,0.417,0.083,0.614,0.146
	c0.24,0.062,0.469,0.124,0.698,0.208c0.458,0.146,0.906,0.333,1.332,0.531c0.427,0.208,0.843,0.437,1.239,0.698
	c0.208,0.124,0.396,0.26,0.593,0.406c0.177,0.124,0.354,0.271,0.531,0.406c0.219,0.177,0.427,0.364,0.624,0.562
	c0.146,0.136,0.291,0.281,0.427,0.427c0.156,0.157,0.302,0.323,0.448,0.489c0.021,0.031,0.041,0.062,0.073,0.093
	c0.281,0.343,0.541,0.698,0.77,1.062c0,0,0.021,0.01,0.021,0.021l-0.312,0.25l25.192,25.192l6.912,6.912l6.34,6.34l8.891,8.891
	l26.806,26.806l6.923,6.923L428.959,298.709z"/>
<path style="fill:#503837;" d="M307.456,255.349h-41.814c-2.637,0-4.775-2.137-4.775-4.775v-57.996c0-2.637,2.137-4.775,4.775-4.775
	h41.814c2.637,0,4.775,2.137,4.775,4.775v57.996C312.231,253.212,310.092,255.349,307.456,255.349z"/>
<path style="fill:#FFFFFF;" d="M317.87,187.62c-0.212-0.446-0.457-0.88-0.725-1.293l-0.022-0.011
	c-0.234-0.368-0.491-0.725-0.769-1.07c-0.033-0.022-0.056-0.056-0.078-0.089c-0.145-0.168-0.29-0.334-0.446-0.491
	c-0.134-0.146-0.279-0.29-0.424-0.424c-0.201-0.201-0.413-0.39-0.624-0.568c-0.179-0.134-0.356-0.279-0.535-0.402
	c-0.201-0.146-0.379-0.279-0.591-0.413c-0.391-0.256-0.814-0.48-1.238-0.691c-0.424-0.201-0.88-0.391-1.338-0.535
	c-0.223-0.078-0.457-0.146-0.691-0.201c-0.201-0.067-0.413-0.111-0.613-0.145c-0.212-0.056-0.424-0.089-0.624-0.122
	c-0.179-0.033-0.345-0.044-0.524-0.055c-0.157-0.022-0.323-0.033-0.491-0.044c-0.223-0.011-0.457-0.022-0.692-0.022h-41.807
	c-6.355,0-11.528,5.173-11.528,11.539v58.028c0,0.212,0.011,0.435,0.022,0.647c0.011,0.167,0.022,0.334,0.033,0.491
	c0.011,0.19,0.044,0.367,0.078,0.546c0.056,0.413,0.134,0.825,0.245,1.227c0.067,0.234,0.134,0.457,0.212,0.691
	c0.146,0.458,0.334,0.904,0.535,1.327c0.201,0.424,0.435,0.847,0.692,1.238c0.122,0.201,0.267,0.402,0.402,0.591
	c0.134,0.19,0.279,0.379,0.435,0.557c0.157,0.179,0.301,0.356,0.469,0.524c0.156,0.168,0.312,0.323,0.479,0.48
	c0.179,0.168,0.356,0.334,0.546,0.491c0.157,0.134,0.323,0.267,0.491,0.402c0.022,0.011,0.044,0.033,0.067,0.044
	c0.19,0.134,0.379,0.267,0.579,0.391c0.011,0.011,0.011,0.022,0.022,0.022c1.795,1.171,3.924,1.828,6.221,1.828h41.807
	c6.366,0,11.539-5.173,11.539-11.528v-57.995C318.984,190.808,318.583,189.125,317.87,187.62z M305.472,194.565v22.997h-37.849
	v-22.997H305.472z M267.623,248.591v-22.998h37.849v22.998H267.623z"/>
<linearGradient id="SVGID_15_" gradientUnits="userSpaceOnUse" x1="285.2386" y1="269.033" x2="285.2386" y2="247.033" gradientTransform="matrix(1.0039 0 0 -1.0039 0.1922 516.5609)">
	<stop  offset="0" style="stop-color:#4975AD"/>
	<stop  offset="1" style="stop-color:#114F77"/>
</linearGradient>
<path style="fill:url(#SVGID_15_);" d="M322.887,266.551h-72.676c-2.186,0-3.956-1.772-3.956-3.956v-10.826
	c0-2.186,1.772-3.956,3.956-3.956h72.676c2.186,0,3.956,1.772,3.956,3.956v10.826C326.844,264.78,325.072,266.551,322.887,266.551z"
	/>
<linearGradient id="SVGID_16_" gradientUnits="userSpaceOnUse" x1="421.9457" y1="242.1001" x2="344.8957" y2="319.1501" gradientTransform="matrix(1.0039 0 0 -1.0039 0.1922 516.5609)">
	<stop  offset="0" style="stop-color:#E2EDF2;stop-opacity:0"/>
	<stop  offset="1" style="stop-color:#A5B0B8"/>
</linearGradient>
<path style="fill:url(#SVGID_16_);" d="M437.271,213.323v85.384h-62.876c0,0-31.734-31.734-33.23-33.23
	c-1.496-1.496-1.175-5.2-1.175-5.2c-0.01,0-0.01-4.698,0-8.323c0-2.279,1.847-4.136,4.136-4.136h3.684v-55.246
	c0-6.365,5.16-11.525,11.535-11.525h41.803c0.231,0,0.462,0.01,0.683,0.02c0.171,0.01,0.341,0.02,0.492,0.04
	c0.181,0.01,0.341,0.03,0.522,0.06c0.211,0.03,0.422,0.06,0.622,0.11c0.211,0.05,0.422,0.09,0.612,0.151
	c0.241,0.06,0.472,0.12,0.703,0.211c0.462,0.141,0.904,0.331,1.335,0.532c0.422,0.201,0.843,0.432,1.235,0.693
	c0.211,0.12,0.392,0.261,0.592,0.402c0.181,0.131,0.351,0.271,0.532,0.412c0.221,0.181,0.432,0.361,0.622,0.562
	c0.151,0.131,0.291,0.281,0.432,0.422c0.151,0.161,0.301,0.331,0.442,0.492c0.02,0.03,0.05,0.06,0.08,0.09
	c0.281,0.351,0.542,0.703,0.763,1.064c0,0,0.02,0.01,0.02,0.02l-0.311,0.251l25.198,25.198L437.271,213.323z"/>
<path style="fill:#503837;" d="M401.155,255.349h-41.814c-2.637,0-4.775-2.137-4.775-4.775v-57.996c0-2.637,2.137-4.775,4.775-4.775
	h41.814c2.637,0,4.775,2.137,4.775,4.775v57.996C405.93,253.212,403.792,255.349,401.155,255.349z"/>
<rect x="354.816" y="236.926" style="fill:#7ECCFD;" width="50.866" height="19.287"/>
<path style="fill:#FFFFFF;" d="M411.569,187.62c-0.212-0.446-0.457-0.88-0.725-1.293l-0.022-0.011
	c-0.234-0.368-0.491-0.725-0.769-1.07c-0.033-0.022-0.056-0.056-0.078-0.089c-0.145-0.168-0.29-0.334-0.446-0.491
	c-0.134-0.146-0.279-0.29-0.424-0.424c-0.201-0.201-0.413-0.39-0.624-0.568c-0.179-0.134-0.356-0.279-0.535-0.402
	c-0.201-0.146-0.379-0.279-0.591-0.413c-0.391-0.256-0.814-0.48-1.238-0.691c-0.424-0.201-0.88-0.391-1.338-0.535
	c-0.223-0.078-0.457-0.146-0.691-0.201c-0.201-0.067-0.413-0.111-0.613-0.145c-0.212-0.056-0.424-0.089-0.624-0.122
	c-0.179-0.033-0.345-0.044-0.524-0.055c-0.157-0.022-0.323-0.033-0.491-0.044c-0.223-0.011-0.457-0.022-0.692-0.022h-41.807
	c-6.355,0-11.528,5.173-11.528,11.539v58.028c0,0.212,0.011,0.435,0.022,0.647c0.011,0.167,0.022,0.334,0.033,0.491
	c0.011,0.19,0.044,0.367,0.078,0.546c0.056,0.413,0.134,0.825,0.245,1.227c0.067,0.234,0.134,0.457,0.212,0.691
	c0.146,0.458,0.334,0.904,0.535,1.327c0.201,0.424,0.435,0.847,0.692,1.238c0.122,0.201,0.267,0.402,0.402,0.591
	c0.135,0.19,0.279,0.379,0.435,0.557c0.157,0.179,0.301,0.356,0.469,0.524c0.156,0.168,0.312,0.323,0.479,0.48
	c0.179,0.168,0.356,0.334,0.546,0.491c0.157,0.134,0.323,0.267,0.491,0.402c0.022,0.011,0.044,0.033,0.067,0.044
	c0.19,0.134,0.379,0.267,0.579,0.391c0.011,0.011,0.011,0.022,0.022,0.022c1.795,1.171,3.924,1.828,6.221,1.828h41.807
	c6.366,0,11.539-5.173,11.539-11.528v-57.995C412.684,190.808,412.283,189.125,411.569,187.62z M399.172,194.565v22.997h-37.849
	v-22.997H399.172z M361.322,248.591v-22.998h37.849v22.998H361.322z"/>
<linearGradient id="SVGID_17_" gradientUnits="userSpaceOnUse" x1="378.5716" y1="269.033" x2="378.5716" y2="247.033" gradientTransform="matrix(1.0039 0 0 -1.0039 0.1922 516.5609)">
	<stop  offset="0" style="stop-color:#4975AD"/>
	<stop  offset="1" style="stop-color:#114F77"/>
</linearGradient>
<path style="fill:url(#SVGID_17_);" d="M416.586,266.551H343.91c-2.186,0-3.956-1.772-3.956-3.956v-10.826
	c0-2.186,1.772-3.956,3.956-3.956h72.676c2.186,0,3.956,1.772,3.956,3.956v10.826C420.543,264.78,418.772,266.551,416.586,266.551z"
	/>
<linearGradient id="SVGID_18_" gradientUnits="userSpaceOnUse" x1="252.961" y1="100.9054" x2="143.071" y2="210.7954" gradientTransform="matrix(1.0039 0 0 -1.0039 0.1922 516.5609)">
	<stop  offset="0" style="stop-color:#E2EDF2;stop-opacity:0"/>
	<stop  offset="1" style="stop-color:#A5B0B8"/>
</linearGradient>
<path style="fill:url(#SVGID_18_);" d="M335.259,422.703H186.996c0,0-31.737-31.737-33.231-33.231
	c-1.494-1.494-1.175-5.203-1.175-5.203c-0.006,0-0.005-4.692-0.003-8.317c0.001-2.285,1.854-4.135,4.139-4.135h3.682v-55.245
	c0-6.37,5.164-11.534,11.534-11.534h41.807c0.229,0,0.458,0.01,0.687,0.021c0.167,0.01,0.333,0.021,0.489,0.042
	c0.177,0.01,0.343,0.031,0.52,0.062c0.208,0.031,0.417,0.062,0.624,0.114c0.208,0.042,0.417,0.083,0.614,0.146
	c0.24,0.062,0.469,0.124,0.698,0.208c0.458,0.146,0.906,0.333,1.332,0.531c0.427,0.208,0.843,0.437,1.239,0.698
	c0.208,0.124,0.396,0.26,0.593,0.406c0.177,0.124,0.354,0.271,0.531,0.406c0.219,0.177,0.427,0.364,0.624,0.562
	c0.146,0.136,0.291,0.281,0.427,0.427c0.157,0.157,0.302,0.323,0.448,0.489c0.021,0.031,0.041,0.062,0.073,0.093
	c0.281,0.343,0.541,0.698,0.77,1.062c0,0,0.021,0.01,0.021,0.021l-0.312,0.25l25.192,25.192l6.912,6.912l6.34,6.34l8.891,8.891
	l26.806,26.806l6.923,6.923L335.259,422.703z"/>
<path style="fill:#7ECCFD;" d="M213.757,379.345h-41.814c-2.637,0-4.775-2.137-4.775-4.775v-57.996c0-2.637,2.137-4.775,4.775-4.775
	h41.814c2.637,0,4.775,2.137,4.775,4.775v57.996C218.531,377.206,216.393,379.345,213.757,379.345z"/>
<path style="fill:#FFFFFF;" d="M224.171,311.614c-0.212-0.446-0.457-0.88-0.725-1.293l-0.022-0.011
	c-0.234-0.368-0.491-0.725-0.769-1.07c-0.033-0.022-0.056-0.056-0.078-0.089c-0.145-0.168-0.29-0.334-0.446-0.491
	c-0.134-0.146-0.279-0.29-0.424-0.424c-0.201-0.201-0.413-0.39-0.624-0.568c-0.179-0.134-0.356-0.279-0.535-0.402
	c-0.201-0.146-0.379-0.279-0.591-0.413c-0.391-0.256-0.814-0.48-1.238-0.691c-0.424-0.201-0.88-0.391-1.338-0.535
	c-0.223-0.078-0.457-0.146-0.691-0.201c-0.201-0.067-0.413-0.111-0.613-0.145c-0.212-0.056-0.424-0.089-0.624-0.122
	c-0.179-0.033-0.345-0.044-0.524-0.055c-0.157-0.022-0.323-0.033-0.491-0.044c-0.223-0.011-0.457-0.022-0.692-0.022h-41.807
	c-6.355,0-11.528,5.173-11.528,11.539v58.028c0,0.212,0.011,0.435,0.022,0.647c0.011,0.167,0.022,0.334,0.033,0.491
	c0.011,0.19,0.044,0.367,0.078,0.546c0.056,0.413,0.134,0.825,0.245,1.227c0.067,0.234,0.134,0.457,0.212,0.691
	c0.146,0.458,0.334,0.904,0.535,1.327c0.201,0.424,0.435,0.847,0.692,1.238c0.122,0.201,0.267,0.402,0.402,0.591
	c0.135,0.19,0.279,0.379,0.435,0.557c0.157,0.179,0.301,0.356,0.469,0.524c0.156,0.168,0.312,0.323,0.479,0.48
	c0.179,0.168,0.356,0.334,0.546,0.491c0.157,0.134,0.323,0.267,0.491,0.402c0.022,0.011,0.044,0.033,0.067,0.044
	c0.19,0.134,0.378,0.267,0.579,0.391c0.011,0.011,0.011,0.022,0.022,0.022c1.795,1.171,3.924,1.828,6.221,1.828h41.807
	c6.366,0,11.539-5.173,11.539-11.528v-57.995C225.285,314.803,224.883,313.119,224.171,311.614z M211.773,318.56v22.997h-37.849
	V318.56H211.773z M173.923,372.585v-22.998h37.849v22.998H173.923z"/>
<linearGradient id="SVGID_19_" gradientUnits="userSpaceOnUse" x1="191.9046" y1="145.523" x2="191.9046" y2="123.523" gradientTransform="matrix(1.0039 0 0 -1.0039 0.1922 516.5609)">
	<stop  offset="0" style="stop-color:#4975AD"/>
	<stop  offset="1" style="stop-color:#114F77"/>
</linearGradient>
<path style="fill:url(#SVGID_19_);" d="M229.187,390.547h-72.676c-2.186,0-3.956-1.772-3.956-3.956v-10.826
	c0-2.186,1.772-3.956,3.956-3.956h72.676c2.186,0,3.956,1.772,3.956,3.956v10.826C233.145,388.775,231.373,390.547,229.187,390.547z
	"/>
<linearGradient id="SVGID_20_" gradientUnits="userSpaceOnUse" x1="421.9452" y1="118.5896" x2="344.8952" y2="195.6396" gradientTransform="matrix(1.0039 0 0 -1.0039 0.1922 516.5609)">
	<stop  offset="0" style="stop-color:#E2EDF2;stop-opacity:0"/>
	<stop  offset="1" style="stop-color:#A5B0B8"/>
</linearGradient>
<path style="fill:url(#SVGID_20_);" d="M437.271,337.319v85.384h-62.876c0,0-31.734-31.734-33.23-33.23
	c-1.496-1.496-1.175-5.2-1.175-5.2c-0.01,0-0.01-4.698,0-8.323c0-2.279,1.847-4.136,4.136-4.136h3.684v-55.246
	c0-6.365,5.16-11.525,11.535-11.525h41.803c0.231,0,0.462,0.01,0.683,0.02c0.171,0.01,0.341,0.02,0.492,0.04
	c0.181,0.01,0.341,0.03,0.522,0.06c0.211,0.03,0.422,0.06,0.622,0.11c0.211,0.05,0.422,0.09,0.612,0.151
	c0.241,0.06,0.472,0.12,0.703,0.211c0.462,0.141,0.904,0.331,1.335,0.532c0.422,0.201,0.843,0.432,1.235,0.693
	c0.211,0.12,0.392,0.261,0.592,0.402c0.181,0.131,0.351,0.271,0.532,0.412c0.221,0.181,0.432,0.361,0.622,0.562
	c0.151,0.13,0.291,0.281,0.432,0.422c0.151,0.161,0.301,0.331,0.442,0.492c0.02,0.03,0.05,0.06,0.08,0.09
	c0.281,0.351,0.542,0.703,0.763,1.064c0,0,0.02,0.01,0.02,0.02l-0.311,0.251l25.198,25.198L437.271,337.319z"/>
<path style="fill:#503837;" d="M401.155,379.345h-41.814c-2.637,0-4.775-2.137-4.775-4.775v-57.996c0-2.637,2.137-4.775,4.775-4.775
	h41.814c2.637,0,4.775,2.137,4.775,4.775v57.996C405.93,377.206,403.792,379.345,401.155,379.345z"/>
<rect x="354.816" y="345.57" style="fill:#7ECCFD;" width="50.866" height="34.635"/>
<path style="fill:#FFFFFF;" d="M411.569,311.614c-0.212-0.446-0.457-0.88-0.725-1.293l-0.022-0.011
	c-0.234-0.368-0.491-0.725-0.769-1.07c-0.033-0.022-0.056-0.056-0.078-0.089c-0.145-0.168-0.29-0.334-0.446-0.491
	c-0.134-0.146-0.279-0.29-0.424-0.424c-0.201-0.201-0.413-0.39-0.624-0.568c-0.179-0.134-0.356-0.279-0.535-0.402
	c-0.201-0.146-0.379-0.279-0.591-0.413c-0.391-0.256-0.814-0.48-1.238-0.691c-0.424-0.201-0.88-0.391-1.338-0.535
	c-0.223-0.078-0.457-0.146-0.691-0.201c-0.201-0.067-0.413-0.111-0.613-0.145c-0.212-0.056-0.424-0.089-0.624-0.122
	c-0.179-0.033-0.345-0.044-0.524-0.055c-0.157-0.022-0.323-0.033-0.491-0.044c-0.223-0.011-0.457-0.022-0.692-0.022h-41.807
	c-6.355,0-11.528,5.173-11.528,11.539v58.028c0,0.212,0.011,0.435,0.022,0.647c0.011,0.167,0.022,0.334,0.033,0.491
	c0.011,0.19,0.044,0.367,0.078,0.546c0.056,0.413,0.134,0.825,0.245,1.227c0.067,0.234,0.134,0.457,0.212,0.691
	c0.146,0.458,0.334,0.904,0.535,1.327c0.201,0.424,0.435,0.847,0.692,1.238c0.122,0.201,0.267,0.402,0.402,0.591
	s0.279,0.379,0.435,0.557c0.157,0.179,0.301,0.356,0.469,0.524c0.156,0.168,0.312,0.323,0.479,0.48
	c0.179,0.168,0.356,0.334,0.546,0.491c0.157,0.134,0.323,0.267,0.491,0.402c0.022,0.011,0.044,0.033,0.067,0.044
	c0.19,0.134,0.379,0.267,0.579,0.391c0.011,0.011,0.011,0.022,0.022,0.022c1.795,1.171,3.924,1.828,6.221,1.828h41.807
	c6.366,0,11.539-5.173,11.539-11.528v-57.995C412.684,314.803,412.283,313.119,411.569,311.614z M399.172,318.56v22.997h-37.849
	V318.56H399.172z M361.322,372.585v-22.998h37.849v22.998H361.322z"/>
<linearGradient id="SVGID_21_" gradientUnits="userSpaceOnUse" x1="378.5716" y1="145.523" x2="378.5716" y2="123.523" gradientTransform="matrix(1.0039 0 0 -1.0039 0.1922 516.5609)">
	<stop  offset="0" style="stop-color:#4975AD"/>
	<stop  offset="1" style="stop-color:#114F77"/>
</linearGradient>
<path style="fill:url(#SVGID_21_);" d="M416.586,390.547H343.91c-2.186,0-3.956-1.772-3.956-3.956v-10.826
	c0-2.186,1.772-3.956,3.956-3.956h72.676c2.186,0,3.956,1.772,3.956,3.956v10.826C420.543,388.775,418.772,390.547,416.586,390.547z
	"/>
<path style="fill:#816965;" d="M250.801,443.204V328.191c0-8.035,6.513-14.549,14.549-14.549h40.399
	c8.035,0,14.549,6.513,14.549,14.549v115.013H250.801z"/>
<path style="fill:#503837;" d="M328.902,443.203h-17.209V333.15c0-5.997-4.907-10.904-10.904-10.904h-30.48
	c-6.023,0-10.904,4.882-10.904,10.904v110.054h-17.209V321.77c0-9.241,7.491-16.733,16.733-16.733h53.24
	c9.241,0,16.733,7.491,16.733,16.733v121.433H328.902z"/>
<circle style="fill:#FFFFFF;" cx="273.217" cy="382.012" r="7.847"/>
<linearGradient id="SVGID_22_" gradientUnits="userSpaceOnUse" x1="350.2601" y1="55.5245" x2="413.9001" y2="-8.1055" gradientTransform="matrix(1.0039 0 0 -1.0039 0.1922 516.5609)">
	<stop  offset="0" style="stop-color:#9EB644"/>
	<stop  offset="1" style="stop-color:#738611"/>
</linearGradient>
<path style="fill:url(#SVGID_22_);" d="M432.795,493.048c0,6.693-1.267,13.081-3.578,18.952H332.83
	c-2.311-5.871-3.578-12.259-3.578-18.952c0-6.517,1.202-12.749,3.402-18.489c7.442-19.47,26.293-33.281,48.369-33.281
	c22.076,0,40.927,13.812,48.369,33.281C431.593,480.299,432.795,486.531,432.795,493.048z"/>
<linearGradient id="SVGID_23_" gradientUnits="userSpaceOnUse" x1="405.662" y1="41.5264" x2="451.822" y2="-4.6336" gradientTransform="matrix(1.0039 0 0 -1.0039 0.1922 516.5609)">
	<stop  offset="0" style="stop-color:#9EB644"/>
	<stop  offset="1" style="stop-color:#738611"/>
</linearGradient>
<path style="fill:url(#SVGID_23_);" d="M466.178,498.252c0,4.855-0.919,9.489-2.595,13.748h-69.919
	c-1.677-4.259-2.595-8.893-2.595-13.748c0-4.727,0.871-9.248,2.468-13.412c5.398-14.123,19.072-24.142,35.087-24.142
	s29.689,10.019,35.087,24.142C465.307,489.004,466.178,493.524,466.178,498.252z"/>
<linearGradient id="SVGID_24_" gradientUnits="userSpaceOnUse" x1="111.1905" y1="44.8949" x2="155.8405" y2="0.2549" gradientTransform="matrix(1.0039 0 0 -1.0039 0.1922 516.5609)">
	<stop  offset="0" style="stop-color:#9EB644"/>
	<stop  offset="1" style="stop-color:#738611"/>
</linearGradient>
<path style="fill:url(#SVGID_24_);" d="M167.462,492.446c0,7.235-2.186,13.968-5.939,19.554h-58.438
	c-3.754-5.587-5.939-12.318-5.939-19.554c0-8.605,3.098-16.488,8.236-22.604c6.443-7.676,16.113-12.559,26.926-12.559
	c6.052,0,11.742,1.529,16.712,4.218c3.906,2.121,7.372,4.954,10.213,8.341C164.364,475.957,167.462,483.841,167.462,492.446z"/>
<linearGradient id="SVGID_25_" gradientUnits="userSpaceOnUse" x1="156.6379" y1="52.3023" x2="216.2579" y2="-7.3077" gradientTransform="matrix(1.0039 0 0 -1.0039 0.1922 516.5609)">
	<stop  offset="0" style="stop-color:#9EB644"/>
	<stop  offset="1" style="stop-color:#738611"/>
</linearGradient>
<path style="fill:url(#SVGID_25_);" d="M233.304,494.247c0,6.267-1.193,12.255-3.354,17.753h-90.304
	c-2.169-5.498-3.354-11.486-3.354-17.753c0-6.107,1.128-11.951,3.185-17.322c0.945-2.466,2.081-4.835,3.402-7.084
	c1.737-3.002,3.802-5.795,6.139-8.341c8.861-9.685,21.611-15.761,35.779-15.761c17.89,0,33.514,9.685,41.918,24.101
	c0.352,0.6,0.697,1.209,1.017,1.833c0.896,1.689,1.689,3.441,2.377,5.251C232.176,482.296,233.304,488.14,233.304,494.247z"/>
<linearGradient id="SVGID_26_" gradientUnits="userSpaceOnUse" x1="284.2421" y1="67.683" x2="284.2421" y2="43.613" gradientTransform="matrix(1.0039 0 0 -1.0039 0.1922 516.5609)">
	<stop  offset="0" style="stop-color:#FFFFFF"/>
	<stop  offset="1" style="stop-color:#E2EDF2"/>
</linearGradient>
<path style="fill:url(#SVGID_26_);" d="M338.746,465.466H232.351v-17.115c0-3.398,2.755-6.153,6.153-6.153h94.091
	c3.398,0,6.153,2.755,6.153,6.153L338.746,465.466L338.746,465.466z"/>
<linearGradient id="SVGID_27_" gradientUnits="userSpaceOnUse" x1="284.2416" y1="44.503" x2="284.2416" y2="20.443" gradientTransform="matrix(1.0039 0 0 -1.0039 0.1922 516.5609)">
	<stop  offset="0" style="stop-color:#FFFFFF"/>
	<stop  offset="1" style="stop-color:#E2EDF2"/>
</linearGradient>
<path style="fill:url(#SVGID_27_);" d="M346.131,488.733H224.966v-17.115c0-3.398,2.755-6.153,6.153-6.153h108.859
	c3.398,0,6.153,2.755,6.153,6.153V488.733z"/>
<linearGradient id="SVGID_28_" gradientUnits="userSpaceOnUse" x1="284.2416" y1="21.333" x2="284.2416" y2="-2.7371" gradientTransform="matrix(1.0039 0 0 -1.0039 0.1922 516.5609)">
	<stop  offset="0" style="stop-color:#FFFFFF"/>
	<stop  offset="1" style="stop-color:#E2EDF2"/>
</linearGradient>
<path style="fill:url(#SVGID_28_);" d="M355.707,512H215.389v-17.115c0-3.398,2.755-6.153,6.153-6.153h128.012
	c3.398,0,6.153,2.755,6.153,6.153V512z"/>
<g>
</g>
<g>
</g>
<g>
</g>
<g>
</g>
<g>
</g>
<g>
</g>
<g>
</g>
<g>
</g>
<g>
</g>
<g>
</g>
<g>
</g>
<g>
</g>
<g>
</g>
<g>
</g>
<g>
</g>
</svg>
