<?xml version="1.0" encoding="iso-8859-1"?>
<!-- Generator: Adobe Illustrator 19.0.0, SVG Export Plug-In . SVG Version: 6.00 Build 0)  -->
<svg version="1.1" id="Capa_1" xmlns="http://www.w3.org/2000/svg" xmlns:xlink="http://www.w3.org/1999/xlink" x="0px" y="0px"
	 viewBox="0 0 512 512" style="enable-background:new 0 0 512 512;" xml:space="preserve">
<linearGradient id="SVGID_1_" gradientUnits="userSpaceOnUse" x1="254.8086" y1="419.503" x2="254.8086" y2="16.763" gradientTransform="matrix(1.0039 0 0 -1.0039 0.1922 516.5609)">
	<stop  offset="0" style="stop-color:#FFE7A5"/>
	<stop  offset="0.966" style="stop-color:#FFBF5C"/>
</linearGradient>
<path style="fill:url(#SVGID_1_);" d="M408.765,437.118H103.235V10.877C103.235,4.87,108.105,0,114.113,0h283.773
	c6.007,0,10.877,4.87,10.877,10.877v426.24H408.765z"/>
<linearGradient id="SVGID_2_" gradientUnits="userSpaceOnUse" x1="349.2983" y1="186.7726" x2="163.2983" y2="310.7726" gradientTransform="matrix(1.0039 0 0 -1.0039 0.1922 516.5609)">
	<stop  offset="0" style="stop-color:#FF5D00;stop-opacity:0"/>
	<stop  offset="1" style="stop-color:#D54003"/>
</linearGradient>
<path style="fill:url(#SVGID_2_);" d="M408.765,139.02L345.55,75.805C323.062,52.024,291.236,37.163,256,37.163
	c-67.977,0-123.28,55.303-123.28,123.28v276.675h276.044L408.765,139.02L408.765,139.02z"/>
<linearGradient id="SVGID_3_" gradientUnits="userSpaceOnUse" x1="254.8086" y1="9.203" x2="254.8086" y2="271.843" gradientTransform="matrix(1.0039 0 0 -1.0039 0.1922 516.5609)">
	<stop  offset="0" style="stop-color:#654E48"/>
	<stop  offset="1" style="stop-color:#503837"/>
</linearGradient>
<path style="fill:url(#SVGID_3_);" d="M371.75,437.118h-231.5V160.443c0-63.927,51.823-115.75,115.75-115.75l0,0
	c63.927,0,115.75,51.823,115.75,115.75V437.118z"/>
<linearGradient id="SVGID_4_" gradientUnits="userSpaceOnUse" x1="345.6629" y1="416.4236" x2="251.3829" y2="13.6836" gradientTransform="matrix(1.0039 0 0 -1.0039 0.1922 516.5609)">
	<stop  offset="0" style="stop-color:#FFE7A5"/>
	<stop  offset="0.966" style="stop-color:#FFBF5C"/>
</linearGradient>
<path style="fill:url(#SVGID_4_);" d="M256,44.693L256,44.693v392.425h115.75V160.443C371.75,96.515,319.927,44.693,256,44.693z"/>
<linearGradient id="SVGID_5_" gradientUnits="userSpaceOnUse" x1="262.1289" y1="416.1299" x2="341.8989" y2="13.39" gradientTransform="matrix(1.0039 0 0 -1.0039 0.1922 516.5609)">
	<stop  offset="0" style="stop-color:#FFE7A5"/>
	<stop  offset="0.966" style="stop-color:#FFBF5C"/>
</linearGradient>
<path style="fill:url(#SVGID_5_);" d="M337.079,421.002h-46.407c-6.336,0-11.472-5.136-11.472-11.472V298.256
	c0-6.336,5.136-11.472,11.472-11.472h46.407c6.336,0,11.472,5.136,11.472,11.472V409.53
	C348.551,415.866,343.414,421.002,337.079,421.002z"/>
<linearGradient id="SVGID_6_" gradientUnits="userSpaceOnUse" x1="312.4571" y1="264.103" x2="312.4571" y2="396.243" gradientTransform="matrix(1.0039 0 0 -1.0039 0.1922 516.5609)">
	<stop  offset="0" style="stop-color:#654E48"/>
	<stop  offset="1" style="stop-color:#503837"/>
</linearGradient>
<path style="fill:url(#SVGID_6_);" d="M371.749,160.447v105.535H256V44.688C319.923,44.688,371.749,96.514,371.749,160.447z"/>
<path style="fill:#FFFFFF;" d="M256,37.163c-67.977,0-123.28,55.303-123.28,123.28v276.675h15.059V160.442
	c0-57.142,44.518-104.075,100.691-107.955v384.63h15.059V273.511h100.691v163.606h15.059V160.442
	C379.28,92.465,323.977,37.163,256,37.163z M263.529,140.383h42.816v51.505h-42.816V140.383z M263.529,125.325V52.488
	c15.37,1.061,29.865,5.346,42.816,12.183v60.654H263.529z M321.404,140.383h40.945c1.224,6.502,1.871,13.207,1.871,20.058v31.446
	h-42.816L321.404,140.383L321.404,140.383z M358.369,125.325h-36.964V74.282C338.307,87.144,351.326,104.855,358.369,125.325z
	 M263.529,206.947h42.816v51.506h-42.816V206.947z M321.404,258.453v-51.506h42.816v51.506H321.404z"/>
<linearGradient id="SVGID_7_" gradientUnits="userSpaceOnUse" x1="254.8086" y1="73.483" x2="254.8086" y2="45.483" gradientTransform="matrix(1.0039 0 0 -1.0039 0.1922 516.5609)">
	<stop  offset="0" style="stop-color:#FF5D00"/>
	<stop  offset="1" style="stop-color:#D54003"/>
</linearGradient>
<path style="fill:url(#SVGID_7_);" d="M441.239,462.078H70.761c-4.535,0-8.21-3.676-8.21-8.21v-8.539c0-4.535,3.676-8.21,8.21-8.21
	h370.477c4.535,0,8.21,3.676,8.21,8.21v8.539C449.449,458.402,445.773,462.078,441.239,462.078z"/>
<linearGradient id="SVGID_8_" gradientUnits="userSpaceOnUse" x1="254.8086" y1="48.613" x2="254.8086" y2="20.623" gradientTransform="matrix(1.0039 0 0 -1.0039 0.1922 516.5609)">
	<stop  offset="0" style="stop-color:#FF5D00"/>
	<stop  offset="1" style="stop-color:#D54003"/>
</linearGradient>
<path style="fill:url(#SVGID_8_);" d="M403.047,487.038H108.953c-8.634,0-15.633-6.999-15.633-15.633v-9.327H418.68v9.327
	C418.681,480.039,411.681,487.038,403.047,487.038z"/>
<linearGradient id="SVGID_9_" gradientUnits="userSpaceOnUse" x1="254.8091" y1="23.753" x2="254.8091" y2="-4.2371" gradientTransform="matrix(1.0039 0 0 -1.0039 0.1922 516.5609)">
	<stop  offset="0" style="stop-color:#FF5D00"/>
	<stop  offset="1" style="stop-color:#D54003"/>
</linearGradient>
<path style="fill:url(#SVGID_9_);" d="M377.471,511.998H134.53c-8.634,0-15.633-6.999-15.633-15.633v-9.327h274.208v9.327
	C393.104,504.999,386.105,511.998,377.471,511.998z"/>
<linearGradient id="SVGID_10_" gradientUnits="userSpaceOnUse" x1="250.4241" y1="66.7249" x2="234.3741" y2="112.3149" gradientTransform="matrix(1.0039 0 0 -1.0039 0.1922 516.5609)">
	<stop  offset="0" style="stop-color:#D54003;stop-opacity:0"/>
	<stop  offset="1" style="stop-color:#A40002"/>
</linearGradient>
<path style="fill:url(#SVGID_10_);" d="M418.676,462.077v9.329c0,8.633-6.999,15.632-15.632,15.632H118.285l-24.962-24.962H418.676z
	"/>
<linearGradient id="SVGID_11_" gradientUnits="userSpaceOnUse" x1="253.8747" y1="31.3814" x2="231.5947" y2="85.7714" gradientTransform="matrix(1.0039 0 0 -1.0039 0.1922 516.5609)">
	<stop  offset="0" style="stop-color:#D54003;stop-opacity:0"/>
	<stop  offset="1" style="stop-color:#A40002"/>
</linearGradient>
<path style="fill:url(#SVGID_11_);" d="M393.102,487.039v9.329c0,8.633-6.999,15.632-15.632,15.632H143.247l-24.348-24.348v-0.613
	L393.102,487.039L393.102,487.039z"/>
<linearGradient id="SVGID_12_" gradientUnits="userSpaceOnUse" x1="89.4992" y1="115.3836" x2="134.7392" y2="70.1436" gradientTransform="matrix(1.0039 0 0 -1.0039 0.1922 516.5609)">
	<stop  offset="0" style="stop-color:#9EB644"/>
	<stop  offset="1" style="stop-color:#738611"/>
</linearGradient>
<path style="fill:url(#SVGID_12_);" d="M147.605,423.637c0,4.759-0.901,9.3-2.544,13.475H76.532
	c-1.643-4.173-2.544-8.716-2.544-13.475c0-4.634,0.854-9.064,2.418-13.145c5.292-13.843,18.693-23.662,34.389-23.662
	s29.099,9.82,34.389,23.662C146.75,414.572,147.605,419.003,147.605,423.637z"/>
<linearGradient id="SVGID_13_" gradientUnits="userSpaceOnUse" x1="128.8894" y1="105.4338" x2="161.6994" y2="72.6138" gradientTransform="matrix(1.0039 0 0 -1.0039 0.1922 516.5609)">
	<stop  offset="0" style="stop-color:#9EB644"/>
	<stop  offset="1" style="stop-color:#738611"/>
</linearGradient>
<path style="fill:url(#SVGID_13_);" d="M171.34,427.336c0,3.452-0.654,6.746-1.845,9.774h-49.711
	c-1.192-3.028-1.845-6.323-1.845-9.774c0-3.361,0.619-6.575,1.755-9.536c3.838-10.041,13.56-17.165,24.946-17.165
	s21.108,7.124,24.946,17.165C170.72,420.762,171.34,423.975,171.34,427.336z"/>
<linearGradient id="SVGID_14_" gradientUnits="userSpaceOnUse" x1="367.5311" y1="122.4855" x2="421.6411" y2="68.3755" gradientTransform="matrix(1.0039 0 0 -1.0039 0.1922 516.5609)">
	<stop  offset="0" style="stop-color:#9EB644"/>
	<stop  offset="1" style="stop-color:#738611"/>
</linearGradient>
<path style="fill:url(#SVGID_14_);" d="M438.012,421.002c0,5.691-1.077,11.123-3.042,16.116h-81.961
	c-1.966-4.992-3.042-10.424-3.042-16.116c0-5.543,1.022-10.84,2.893-15.722c6.329-16.556,22.357-28.301,41.13-28.301
	s34.802,11.745,41.13,28.301C436.99,410.161,438.012,415.46,438.012,421.002z"/>
<path style="fill:#654E48;" d="M454.133,293.168H57.867c-10.53,0-19.097,8.566-19.097,19.097c0,10.529,8.566,19.096,19.097,19.096
	h7.28c6.515,0,11.816-5.3,11.816-11.816s-5.301-11.817-11.816-11.817h-7.28c-2.218,0-4.016,1.798-4.016,4.016
	s1.798,4.016,4.016,4.016h7.28c2.087,0,3.785,1.698,3.785,3.786c0,2.086-1.698,3.785-3.785,3.785h-7.28
	c-6.102,0-11.065-4.963-11.065-11.064c0-6.102,4.963-11.065,11.065-11.065h24.854v135.918h8.031V394.65
	c7.896,12.116,21.096,20.465,36.286,21.728v20.74h8.031v-20.74c10.345-0.86,19.766-5.006,27.221-11.393
	c7.454,6.388,16.876,10.533,27.221,11.393v20.74h8.031v-20.74c10.345-0.86,19.766-5.006,27.22-11.393
	c7.454,6.388,16.876,10.533,27.22,11.393v20.74h8.031v-20.74c10.345-0.86,19.766-5.006,27.22-11.393
	c7.454,6.388,16.875,10.533,27.22,11.393v20.74h8.031v-20.74c10.345-0.86,19.766-5.006,27.221-11.393
	c7.454,6.388,16.876,10.533,27.221,11.393v20.74h8.031v-20.74c15.189-1.263,28.39-9.611,36.286-21.728v42.468h8.031V301.2h24.854
	c6.102,0,11.065,4.963,11.065,11.065c0,6.101-4.963,11.064-11.065,11.064h-7.28c-2.087,0-3.785-1.698-3.785-3.785
	c0-2.087,1.698-3.786,3.785-3.786h7.28c2.218,0,4.016-1.798,4.016-4.016s-1.798-4.016-4.016-4.016h-7.28
	c-6.515,0-11.816,5.301-11.816,11.817s5.301,11.816,11.816,11.816h7.28c10.53,0,19.097-8.566,19.097-19.096
	C473.23,301.736,464.663,293.168,454.133,293.168z M366.373,364.461c-0.843-10.138-4.836-19.393-11.007-26.775
	c6.943-5.778,15.861-9.259,25.579-9.259c20.728,0,37.827,15.83,39.848,36.035h-54.42V364.461z M349.709,393.5
	c-4.718-5.878-7.822-13.106-8.612-21.008h17.223C357.531,380.395,354.427,387.622,349.709,393.5z M153.679,372.492h17.223
	c-0.79,7.903-3.893,15.13-8.612,21.008C157.573,387.622,154.469,380.395,153.679,372.492z M91.206,364.461
	c2.021-20.205,19.12-36.035,39.848-36.035c9.718,0,18.636,3.482,25.579,9.259c-6.171,7.383-10.164,16.637-11.007,26.775h-54.42
	V364.461z M303.901,364.461c-0.843-10.138-4.836-19.393-11.007-26.775c6.943-5.778,15.861-9.259,25.579-9.259
	s18.636,3.482,25.579,9.259c-6.171,7.383-10.164,16.637-11.007,26.775H303.901z M241.428,364.461
	c-0.843-10.138-4.836-19.393-11.007-26.775c6.943-5.778,15.861-9.259,25.579-9.259s18.636,3.482,25.579,9.259
	c-6.171,7.383-10.164,16.637-11.007,26.775H241.428z M178.955,364.461c-0.843-10.138-4.836-19.393-11.007-26.775
	c6.943-5.778,15.861-9.259,25.579-9.259c9.718,0,18.636,3.482,25.579,9.259c-6.171,7.383-10.164,16.637-11.007,26.775H178.955z
	 M224.763,343.453c4.718,5.878,7.822,13.106,8.612,21.008h-17.223C216.942,356.559,220.045,349.331,224.763,343.453z
	 M287.237,343.453c4.718,5.878,7.822,13.106,8.612,21.008h-17.223C279.415,356.559,282.518,349.331,287.237,343.453z
	 M314.457,320.575c-10.345,0.86-19.766,5.006-27.22,11.394c-7.454-6.388-16.876-10.533-27.22-11.394V301.2h54.442L314.457,320.575
	L314.457,320.575z M251.984,320.575c-10.345,0.86-19.766,5.006-27.22,11.394c-7.454-6.388-16.875-10.533-27.22-11.394V301.2h54.441
	V320.575z M189.511,320.575c-10.345,0.86-19.766,5.006-27.221,11.394c-7.454-6.388-16.876-10.533-27.221-11.394V301.2h54.442v19.376
	H189.511z M162.291,343.453c4.718,5.878,7.822,13.106,8.612,21.008h-17.223C154.469,356.559,157.573,349.331,162.291,343.453z
	 M178.955,372.492h29.144c0.843,10.138,4.836,19.393,11.007,26.775c-6.943,5.778-15.861,9.259-25.579,9.259
	c-9.718,0-18.636-3.482-25.579-9.259C174.12,391.885,178.112,382.63,178.955,372.492z M216.151,372.492h17.223
	c-0.79,7.903-3.893,15.13-8.612,21.008C220.045,387.622,216.942,380.395,216.151,372.492z M241.428,372.492h29.145
	c0.843,10.138,4.836,19.393,11.007,26.775c-6.943,5.778-15.861,9.259-25.579,9.259c-9.718,0-18.636-3.482-25.579-9.259
	C236.592,391.885,240.585,382.63,241.428,372.492z M278.624,372.492h17.223c-0.79,7.903-3.893,15.13-8.612,21.008
	C282.518,387.622,279.415,380.395,278.624,372.492z M303.901,372.492h29.144c0.843,10.138,4.836,19.393,11.007,26.775
	c-6.943,5.778-15.861,9.259-25.579,9.259s-18.636-3.482-25.579-9.259C299.065,391.885,303.058,382.63,303.901,372.492z
	 M341.097,364.461c0.79-7.903,3.893-15.13,8.612-21.008c4.718,5.878,7.822,13.106,8.612,21.008H341.097z M376.93,320.575
	c-10.345,0.86-19.766,5.006-27.221,11.394c-7.454-6.388-16.876-10.533-27.221-11.394V301.2h54.442L376.93,320.575L376.93,320.575z
	 M127.038,301.2v19.376c-15.189,1.263-28.39,9.611-36.286,21.728V301.2H127.038z M91.206,372.492h54.421
	c0.843,10.138,4.836,19.393,11.007,26.775c-6.943,5.778-15.861,9.259-25.579,9.259C110.326,408.527,93.227,392.697,91.206,372.492z
	 M380.946,408.527c-9.718,0-18.636-3.482-25.579-9.259c6.171-7.383,10.164-16.637,11.007-26.775h54.421
	C418.773,392.697,401.674,408.527,380.946,408.527z M421.247,342.303c-7.896-12.116-21.096-20.465-36.286-21.728V301.2h36.286
	V342.303z"/>
<g>
	
		<linearGradient id="SVGID_15_" gradientUnits="userSpaceOnUse" x1="163.5176" y1="407.073" x2="163.5176" y2="566.673" gradientTransform="matrix(1.0039 0 0 -1.0039 0.1922 516.5609)">
		<stop  offset="0" style="stop-color:#FFE7A5"/>
		<stop  offset="0.966" style="stop-color:#FFBF5C"/>
	</linearGradient>
	<path style="fill:url(#SVGID_15_);" d="M118.111,145.053c0-60.303,38.713-111.555,92.639-130.283h-82.813
		c-5.515,0-9.985,4.47-9.985,9.985L118.111,145.053z"/>
	
		<linearGradient id="SVGID_16_" gradientUnits="userSpaceOnUse" x1="346.1006" y1="407.073" x2="346.1006" y2="566.673" gradientTransform="matrix(1.0039 0 0 -1.0039 0.1922 516.5609)">
		<stop  offset="0" style="stop-color:#FFE7A5"/>
		<stop  offset="0.966" style="stop-color:#FFBF5C"/>
	</linearGradient>
	<path style="fill:url(#SVGID_16_);" d="M384.064,14.771h-82.814c53.926,18.728,92.639,69.98,92.639,130.283l0.16-120.298
		C394.048,19.24,389.578,14.771,384.064,14.771z"/>
</g>
<g>
</g>
<g>
</g>
<g>
</g>
<g>
</g>
<g>
</g>
<g>
</g>
<g>
</g>
<g>
</g>
<g>
</g>
<g>
</g>
<g>
</g>
<g>
</g>
<g>
</g>
<g>
</g>
<g>
</g>
</svg>
