<?xml version="1.0" encoding="iso-8859-1"?>
<!-- Generator: Adobe Illustrator 19.0.0, SVG Export Plug-In . SVG Version: 6.00 Build 0)  -->
<svg version="1.1" id="Capa_1" xmlns="http://www.w3.org/2000/svg" xmlns:xlink="http://www.w3.org/1999/xlink" x="0px" y="0px"
	 viewBox="0 0 512.001 512.001" style="enable-background:new 0 0 512.001 512.001;" xml:space="preserve">
<rect y="441.545" style="fill:#7ECCFD;" width="512" height="52.788"/>
<linearGradient id="SVGID_1_" gradientUnits="userSpaceOnUse" x1="44.8466" y1="44.2776" x2="-22.3254" y2="111.4496" gradientTransform="matrix(1.0039 0 0 -1.0039 0.1922 516.5621)">
	<stop  offset="0" style="stop-color:#816965"/>
	<stop  offset="1" style="stop-color:#654E48"/>
</linearGradient>
<rect y="382.455" style="fill:url(#SVGID_1_);" width="22.994" height="111.877"/>
<linearGradient id="SVGID_2_" gradientUnits="userSpaceOnUse" x1="494.3166" y1="44.2776" x2="427.1446" y2="111.4496" gradientTransform="matrix(1.0039 0 0 -1.0039 0.1922 516.5621)">
	<stop  offset="0" style="stop-color:#816965"/>
	<stop  offset="1" style="stop-color:#654E48"/>
</linearGradient>
<rect x="451.233" y="382.455" style="fill:url(#SVGID_2_);" width="22.994" height="111.877"/>
<linearGradient id="SVGID_3_" gradientUnits="userSpaceOnUse" x1="316.9636" y1="173.0636" x2="316.9636" y2="114.4536" gradientTransform="matrix(1.0039 0 0 -1.0039 0.1922 516.5621)">
	<stop  offset="0" style="stop-color:#FFE7A5"/>
	<stop  offset="0.966" style="stop-color:#FFBF5C"/>
</linearGradient>
<rect x="162.575" y="338.101" style="fill:url(#SVGID_3_);" width="311.647" height="44.353"/>
<linearGradient id="SVGID_4_" gradientUnits="userSpaceOnUse" x1="316.9636" y1="217.2436" x2="316.9636" y2="158.6336" gradientTransform="matrix(1.0039 0 0 -1.0039 0.1922 516.5621)">
	<stop  offset="0" style="stop-color:#FFE7A5"/>
	<stop  offset="0.966" style="stop-color:#FFBF5C"/>
</linearGradient>
<rect x="162.575" y="293.748" style="fill:url(#SVGID_4_);" width="311.647" height="44.353"/>
<linearGradient id="SVGID_5_" gradientUnits="userSpaceOnUse" x1="316.9636" y1="261.4236" x2="316.9636" y2="202.8136" gradientTransform="matrix(1.0039 0 0 -1.0039 0.1922 516.5621)">
	<stop  offset="0" style="stop-color:#FFE7A5"/>
	<stop  offset="0.966" style="stop-color:#FFBF5C"/>
</linearGradient>
<rect x="162.575" y="249.395" style="fill:url(#SVGID_5_);" width="311.647" height="44.353"/>
<linearGradient id="SVGID_6_" gradientUnits="userSpaceOnUse" x1="316.9636" y1="305.6036" x2="316.9636" y2="246.9936" gradientTransform="matrix(1.0039 0 0 -1.0039 0.1922 516.5621)">
	<stop  offset="0" style="stop-color:#FFE7A5"/>
	<stop  offset="0.966" style="stop-color:#FFBF5C"/>
</linearGradient>
<rect x="162.575" y="205.042" style="fill:url(#SVGID_6_);" width="311.647" height="44.353"/>
<linearGradient id="SVGID_7_" gradientUnits="userSpaceOnUse" x1="316.9641" y1="349.7936" x2="316.9641" y2="291.1736" gradientTransform="matrix(1.0039 0 0 -1.0039 0.1922 516.5621)">
	<stop  offset="0" style="stop-color:#FFE7A5"/>
	<stop  offset="0.966" style="stop-color:#FFBF5C"/>
</linearGradient>
<polygon style="fill:url(#SVGID_7_);" points="474.222,181.623 474.222,205.04 162.576,205.04 162.576,181.623 183.403,160.674 
	453.395,160.674 "/>
<linearGradient id="SVGID_8_" gradientUnits="userSpaceOnUse" x1="316.9641" y1="393.9736" x2="316.9641" y2="335.3636" gradientTransform="matrix(1.0039 0 0 -1.0039 0.1922 516.5621)">
	<stop  offset="0" style="stop-color:#FFE7A5"/>
	<stop  offset="0.966" style="stop-color:#FFBF5C"/>
</linearGradient>
<polygon style="fill:url(#SVGID_8_);" points="453.395,160.674 183.403,160.674 227.491,116.321 409.309,116.321 "/>
<linearGradient id="SVGID_9_" gradientUnits="userSpaceOnUse" x1="316.9646" y1="438.1536" x2="316.9646" y2="379.5436" gradientTransform="matrix(1.0039 0 0 -1.0039 0.1922 516.5621)">
	<stop  offset="0" style="stop-color:#FFE7A5"/>
	<stop  offset="0.966" style="stop-color:#FFBF5C"/>
</linearGradient>
<polygon style="fill:url(#SVGID_9_);" points="409.309,116.321 227.491,116.321 271.565,71.968 365.234,71.968 "/>
<linearGradient id="SVGID_10_" gradientUnits="userSpaceOnUse" x1="316.9641" y1="482.3336" x2="316.9641" y2="423.7236" gradientTransform="matrix(1.0039 0 0 -1.0039 0.1922 516.5621)">
	<stop  offset="0" style="stop-color:#FFE7A5"/>
	<stop  offset="0.966" style="stop-color:#FFBF5C"/>
</linearGradient>
<polygon style="fill:url(#SVGID_10_);" points="365.234,71.968 271.565,71.968 315.652,27.614 321.146,27.614 "/>
<linearGradient id="SVGID_11_" gradientUnits="userSpaceOnUse" x1="316.9641" y1="489.4936" x2="316.9641" y2="485.8476" gradientTransform="matrix(1.0039 0 0 -1.0039 0.1922 516.5621)">
	<stop  offset="0" style="stop-color:#FFE7A5"/>
	<stop  offset="0.966" style="stop-color:#FFBF5C"/>
</linearGradient>
<polygon style="fill:url(#SVGID_11_);" points="321.146,27.614 315.652,27.614 318.4,24.856 "/>
<linearGradient id="SVGID_12_" gradientUnits="userSpaceOnUse" x1="280.7561" y1="357.0311" x2="154.5361" y2="483.2511" gradientTransform="matrix(1.0039 0 0 -1.0039 0.1922 516.5621)">
	<stop  offset="0" style="stop-color:#FF5D00;stop-opacity:0"/>
	<stop  offset="1" style="stop-color:#D54003"/>
</linearGradient>
<polygon style="fill:url(#SVGID_12_);" points="474.222,181.623 474.222,382.453 336.745,382.453 293.965,339.672 285.93,331.637 
	277.882,323.59 259.148,304.855 162.576,208.283 162.576,181.623 318.4,24.856 "/>
<linearGradient id="SVGID_13_" gradientUnits="userSpaceOnUse" x1="331.779" y1="307.824" x2="95.119" y2="544.482" gradientTransform="matrix(1.0039 0 0 -1.0039 0.1922 516.5621)">
	<stop  offset="0" style="stop-color:#FF5D00;stop-opacity:0"/>
	<stop  offset="1" style="stop-color:#D54003"/>
</linearGradient>
<path style="fill:url(#SVGID_13_);" d="M474.222,244.879v137.573h-69.876l-45.43-45.225l-8.035-7.999l-8.047-8.011l-48.867-48.649
	l-7.624-7.588l-6.692-6.668l-57.121-56.866c-3.654-3.436-3.716-9.197-0.194-12.719l81.627-81.627
	c1.671-1.671,3.558-2.965,5.555-3.933v-2.674c0-4.901,3.97-8.859,8.859-8.859c3.764,0,6.97,2.348,8.253,5.652L474.222,244.879z"/>
<linearGradient id="SVGID_14_" gradientUnits="userSpaceOnUse" x1="256.4996" y1="186.7946" x2="143.1296" y2="300.1646" gradientTransform="matrix(1.0039 0 0 -1.0039 0.1922 516.5621)">
	<stop  offset="0" style="stop-color:#FF5D00;stop-opacity:0"/>
	<stop  offset="1" style="stop-color:#D54003"/>
</linearGradient>
<path style="fill:url(#SVGID_14_);" d="M386.993,382.453h-152.41l-44.68-44.68c-0.012,0-0.012-0.012-0.024-0.024
	c-0.23-0.146-0.46-0.302-0.678-0.46c-0.024-0.012-0.048-0.036-0.072-0.048c-0.194-0.158-0.388-0.314-0.569-0.46
	c-0.23-0.182-0.436-0.375-0.642-0.581c-0.194-0.182-0.375-0.363-0.557-0.557c-0.194-0.194-0.363-0.4-0.544-0.605
	c-0.182-0.206-0.351-0.424-0.508-0.654c-0.158-0.218-0.314-0.448-0.46-0.678c-0.302-0.46-0.569-0.944-0.811-1.44
	c-0.23-0.496-0.448-1.017-0.617-1.549c-0.096-0.266-0.17-0.532-0.242-0.799c-0.134-0.472-0.23-0.944-0.29-1.429
	c-0.036-0.206-0.072-0.412-0.084-0.629c-0.024-0.182-0.036-0.375-0.048-0.569c-0.012-0.254-0.024-0.508-0.024-0.762v-67.456
	c0-7.394,6.014-13.409,13.408-13.409h48.601c0.266,0,0.532,0.012,0.799,0.024c0.194,0.012,0.388,0.024,0.569,0.048
	c0.206,0.012,0.4,0.036,0.605,0.072c0.242,0.036,0.484,0.072,0.726,0.134c0.242,0.048,0.484,0.097,0.714,0.17
	c0.278,0.072,0.544,0.146,0.811,0.242c0.532,0.17,1.053,0.388,1.549,0.617c0.496,0.242,0.98,0.508,1.44,0.811
	c0.242,0.146,0.46,0.302,0.69,0.472c0.206,0.146,0.412,0.314,0.617,0.472c0.254,0.206,0.496,0.424,0.726,0.654
	c0.17,0.158,0.339,0.327,0.496,0.496c0.182,0.182,0.351,0.375,0.52,0.569c0.024,0.036,0.048,0.072,0.084,0.109
	c0.326,0.4,0.629,0.811,0.895,1.235c0,0,0.024,0.012,0.024,0.024l-0.363,0.29l29.286,29.286l8.035,8.035l7.37,7.37l10.335,10.335
	l31.163,31.162l8.047,8.047L386.993,382.453z"/>
<path style="fill:#503837;" d="M245.745,332.048h-48.609c-3.065,0-5.551-2.485-5.551-5.551v-67.42c0-3.065,2.485-5.551,5.551-5.551
	h48.609c3.065,0,5.551,2.485,5.551,5.551v67.42C251.296,329.562,248.811,332.048,245.745,332.048z"/>
<path style="fill:#FFFFFF;" d="M257.854,253.314c-0.254-0.52-0.532-1.029-0.847-1.501c0-0.012-0.024-0.024-0.024-0.024
	c-0.266-0.424-0.569-0.835-0.896-1.235c-0.036-0.036-0.06-0.072-0.084-0.109c-0.17-0.194-0.339-0.388-0.52-0.569
	c-0.158-0.17-0.326-0.339-0.496-0.496c-0.23-0.23-0.472-0.448-0.726-0.654c-0.206-0.158-0.412-0.327-0.617-0.472
	c-0.23-0.17-0.448-0.327-0.69-0.472c-0.46-0.302-0.944-0.569-1.44-0.811c-0.496-0.23-1.017-0.448-1.549-0.617
	c-0.266-0.097-0.532-0.17-0.811-0.242c-0.23-0.072-0.472-0.121-0.714-0.17c-0.242-0.06-0.484-0.096-0.726-0.134
	c-0.206-0.036-0.4-0.06-0.605-0.072c-0.182-0.024-0.375-0.036-0.569-0.048c-0.266-0.012-0.532-0.024-0.799-0.024H197.14
	c-7.394,0-13.408,6.014-13.408,13.409v67.456c0,0.254,0.012,0.508,0.024,0.762c0.012,0.194,0.024,0.388,0.048,0.569
	c0.012,0.218,0.048,0.424,0.084,0.629c0.06,0.484,0.158,0.956,0.29,1.429c0.072,0.266,0.146,0.532,0.242,0.799
	c0.17,0.532,0.388,1.053,0.617,1.549c0.242,0.496,0.508,0.98,0.811,1.44c0.146,0.23,0.302,0.46,0.46,0.678
	c0.158,0.23,0.327,0.448,0.508,0.654c0.182,0.206,0.351,0.412,0.544,0.605c0.182,0.194,0.363,0.375,0.557,0.557
	c0.206,0.206,0.412,0.4,0.642,0.581c0.182,0.146,0.375,0.302,0.569,0.46c0.024,0.012,0.048,0.036,0.072,0.048
	c0.218,0.158,0.448,0.314,0.678,0.46c0.012,0.012,0.012,0.024,0.024,0.024c2.081,1.355,4.563,2.13,7.237,2.13h48.601
	c7.394,0,13.408-6.014,13.408-13.408v-67.419C259.148,257.018,258.676,255.057,257.854,253.314z M243.441,324.195h-44.002v-62.808
	h44.002V324.195z"/>
<linearGradient id="SVGID_15_" gradientUnits="userSpaceOnUse" x1="439.6316" y1="198.6766" x2="363.3116" y2="275.0067" gradientTransform="matrix(1.0039 0 0 -1.0039 0.1922 516.5621)">
	<stop  offset="0" style="stop-color:#FF5D00;stop-opacity:0"/>
	<stop  offset="1" style="stop-color:#D54003"/>
</linearGradient>
<path style="fill:url(#SVGID_15_);" d="M474.222,273.488v108.965h-43.857l-44.68-44.68l-0.024-0.024
	c-0.23-0.146-0.46-0.302-0.678-0.46c-0.024-0.012-0.048-0.036-0.072-0.048c-0.194-0.158-0.387-0.314-0.569-0.46
	c-0.23-0.182-0.436-0.375-0.642-0.581c-0.194-0.182-0.375-0.363-0.556-0.557c-0.194-0.194-0.363-0.4-0.544-0.605
	c-0.181-0.206-0.351-0.424-0.508-0.654c-0.158-0.218-0.314-0.448-0.46-0.678c-0.302-0.46-0.569-0.944-0.811-1.44
	c-0.23-0.496-0.448-1.017-0.617-1.549c-0.096-0.266-0.17-0.532-0.242-0.799c-0.134-0.472-0.23-0.944-0.29-1.429
	c-0.036-0.206-0.072-0.412-0.084-0.629c-0.024-0.182-0.036-0.375-0.048-0.569c-0.012-0.254-0.024-0.508-0.024-0.762v-67.456
	c0-7.394,6.014-13.409,13.408-13.409h48.613c0.266,0,0.544,0.012,0.811,0.024c0.194,0.012,0.375,0.024,0.569,0.048
	c0.194,0.012,0.388,0.048,0.581,0.072c0.254,0.036,0.496,0.072,0.738,0.134c0.23,0.048,0.472,0.109,0.702,0.17
	c0.266,0.072,0.544,0.146,0.811,0.242c0.787,0.266,1.549,0.605,2.275,1.004c0.242,0.134,0.472,0.278,0.714,0.424
	c0.92,0.593,1.767,1.295,2.529,2.093c0.17,0.182,0.339,0.375,0.52,0.569c0.024,0.036,0.048,0.072,0.084,0.109
	c0.327,0.4,0.629,0.823,0.908,1.259l0.024,0.012l0.17,0.133l-0.048,0.06l-0.072,0.084l0.29,0.29L474.222,273.488z"/>
<path style="fill:#503837;" d="M441.53,332.048h-48.609c-3.065,0-5.551-2.485-5.551-5.551v-67.42c0-3.065,2.485-5.551,5.551-5.551
	h48.609c3.065,0,5.551,2.485,5.551,5.551v67.42C447.079,329.562,444.595,332.048,441.53,332.048z"/>
<path style="fill:#FFFFFF;" d="M453.141,252.395c-0.072-0.134-0.146-0.254-0.218-0.375c-0.048-0.072-0.084-0.134-0.121-0.194
	c-0.29-0.448-0.605-0.871-0.932-1.271c-0.036-0.036-0.06-0.072-0.084-0.109c-0.182-0.194-0.351-0.388-0.52-0.569
	c-0.75-0.799-1.597-1.513-2.529-2.093c-0.242-0.146-0.472-0.29-0.714-0.424c-0.363-0.206-0.738-0.4-1.113-0.557
	c-0.375-0.182-0.762-0.326-1.162-0.448c-0.266-0.097-0.544-0.17-0.811-0.242c-0.23-0.06-0.472-0.121-0.702-0.17
	c-0.242-0.06-0.484-0.096-0.738-0.134c-0.194-0.024-0.388-0.06-0.581-0.072c-0.194-0.024-0.375-0.036-0.569-0.048
	c-0.266-0.012-0.544-0.024-0.811-0.024h-48.613c-7.394,0-13.408,6.014-13.408,13.409v67.456c0,0.254,0.012,0.508,0.024,0.762
	c0.012,0.194,0.024,0.388,0.048,0.569c0.012,0.218,0.048,0.424,0.084,0.629c0.06,0.484,0.158,0.956,0.29,1.429
	c0.072,0.266,0.146,0.532,0.242,0.799c0.17,0.532,0.387,1.053,0.617,1.549c0.242,0.496,0.508,0.98,0.811,1.44
	c0.146,0.23,0.302,0.46,0.46,0.678c0.158,0.23,0.326,0.448,0.508,0.654c0.182,0.206,0.351,0.412,0.544,0.605
	c0.182,0.194,0.363,0.375,0.556,0.557c0.206,0.206,0.412,0.4,0.642,0.581c0.182,0.146,0.375,0.302,0.569,0.46
	c0.024,0.012,0.048,0.036,0.072,0.048c0.218,0.158,0.448,0.314,0.678,0.46c0.012,0.012,0.012,0.024,0.024,0.024
	c2.081,1.355,4.563,2.13,7.237,2.13h48.613c7.382,0,13.396-6.014,13.396-13.408v-67.419
	C454.932,256.642,454.279,254.367,453.141,252.395z M439.224,324.195h-44.002v-62.808h44.002V324.195z"/>
<linearGradient id="SVGID_16_" gradientUnits="userSpaceOnUse" x1="316.9446" y1="336.2136" x2="316.9446" y2="136.5836" gradientTransform="matrix(1.0039 0 0 -1.0039 0.1922 516.5621)">
	<stop  offset="0" style="stop-color:#E2EDF2"/>
	<stop  offset="1" style="stop-color:#A5B0B8"/>
</linearGradient>
<path style="fill:url(#SVGID_16_);" d="M509.459,203.291L327.778,21.551c-5.178-5.178-13.575-5.178-18.753,0L127.3,203.276
	c-3.388,3.388-3.388,8.881,0,12.269l7.745,7.745c3.388,3.388,8.881,3.388,12.269,0L315.933,54.67c1.363-1.363,3.574-1.363,4.937,0
	l168.576,168.634c3.388,3.388,8.881,3.388,12.269,0l7.745-7.745C512.847,212.171,512.847,206.678,509.459,203.291z"/>
<linearGradient id="SVGID_17_" gradientUnits="userSpaceOnUse" x1="654.3287" y1="245.6938" x2="180.6587" y2="526.9908" gradientTransform="matrix(1.0039 0 0 -1.0039 0.1922 516.5621)">
	<stop  offset="0" style="stop-color:#E2EDF2;stop-opacity:0"/>
	<stop  offset="1" style="stop-color:#A5B0B8"/>
</linearGradient>
<path style="fill:url(#SVGID_17_);" d="M327.778,21.551c-2.589-2.589-5.983-3.884-9.377-3.884v35.981
	c0.893,0,1.787,0.341,2.469,1.022l168.576,168.634c3.388,3.388,8.881,3.388,12.269,0l7.745-7.745c3.388-3.388,3.388-8.881,0-12.269
	L327.778,21.551z"/>
<path style="fill:#816965;" d="M350.881,270.16v112.293H285.93V270.16c0-1.767,0.146-3.498,0.412-5.179
	c2.481-15.478,15.89-27.302,32.058-27.302c8.967,0,17.088,3.642,22.97,9.512C347.25,253.072,350.881,261.193,350.881,270.16z"/>
<path style="fill:#503837;" d="M358.916,270.16v112.293h-16.083V269.978c0-13.336-10.916-24.252-24.252-24.252h-0.363
	c-13.396,0-24.252,10.855-24.252,24.252v112.474h-16.084V270.16c0-4.127,0.617-8.096,1.767-11.847
	c5.059-16.592,20.488-28.669,38.75-28.669c11.182,0,21.323,4.538,28.645,11.872C354.378,248.849,358.916,258.965,358.916,270.16z"/>
<circle style="fill:#FFFFFF;" cx="306.879" cy="301.579" r="7.333"/>
<polygon style="fill:#503837;" points="243.956,183.181 318.38,108.757 392.803,183.181 "/>
<linearGradient id="SVGID_18_" gradientUnits="userSpaceOnUse" x1="316.9446" y1="356.8436" x2="316.9446" y2="293.6936" gradientTransform="matrix(1.0039 0 0 -1.0039 0.1922 516.5621)">
	<stop  offset="0" style="stop-color:#E2EDF2"/>
	<stop  offset="1" style="stop-color:#A5B0B8"/>
</linearGradient>
<path style="fill:url(#SVGID_18_);" d="M318.38,193.223c-4.893,0-8.86-3.966-8.86-8.86v-83.875c0-4.893,3.966-8.86,8.86-8.86
	c4.893,0,8.86,3.966,8.86,8.86v83.875C327.239,189.256,323.273,193.223,318.38,193.223z"/>
<path style="fill:#E2EDF2;" d="M241.593,177.865h153.573c4.893,0,8.86,3.966,8.86,8.86c0,4.893-3.966,8.86-8.86,8.86H241.593
	c-4.893,0-8.86-3.967-8.86-8.86C232.733,181.833,236.7,177.865,241.593,177.865z"/>
<linearGradient id="SVGID_19_" gradientUnits="userSpaceOnUse" x1="316.9449" y1="350.1236" x2="316.9449" y2="241.1536" gradientTransform="matrix(1.0039 0 0 -1.0039 0.1922 516.5621)">
	<stop  offset="0" style="stop-color:#E2EDF2"/>
	<stop  offset="1" style="stop-color:#A5B0B8"/>
</linearGradient>
<path style="fill:url(#SVGID_19_);" d="M408.16,203.855c-2.268,0-4.535-0.865-6.264-2.595l-76.722-76.722
	c-3.753-3.753-9.836-3.753-13.589,0l-76.459,76.459c-3.43,3.43-9.065,3.779-12.597,0.453c-3.654-3.441-3.72-9.196-0.196-12.72
	l81.633-81.633c7.96-7.96,20.867-7.96,28.827,0l81.633,81.633c3.461,3.46,3.461,9.07,0,12.53
	C412.696,202.99,410.428,203.855,408.16,203.855z"/>
<linearGradient id="SVGID_20_" gradientUnits="userSpaceOnUse" x1="655.2161" y1="317.2737" x2="0.696" y2="417.5938" gradientTransform="matrix(1.0039 0 0 -1.0039 0.1922 516.5621)">
	<stop  offset="0" style="stop-color:#E2EDF2;stop-opacity:0"/>
	<stop  offset="1" style="stop-color:#A5B0B8"/>
</linearGradient>
<path style="fill:url(#SVGID_20_);" d="M414.422,201.256c-1.725,1.737-3.993,2.599-6.261,2.599c-2.268,0-4.537-0.862-6.261-2.599
	l-74.66-74.649v-23.462c2.008,0.969,3.886,2.28,5.553,3.945l81.63,81.642C417.883,192.195,417.883,197.794,414.422,201.256z"/>
<linearGradient id="SVGID_21_" gradientUnits="userSpaceOnUse" x1="123.5987" y1="140.2335" x2="37.9605" y2="225.8717" gradientTransform="matrix(1.0039 0 0 -1.0039 0.1922 516.5621)">
	<stop  offset="0" style="stop-color:#816965"/>
	<stop  offset="1" style="stop-color:#654E48"/>
</linearGradient>
<path style="fill:url(#SVGID_21_);" d="M151.202,344.148H11.374c-6.271,0-11.356-5.085-11.356-11.356s5.085-11.356,11.356-11.356
	h139.828c6.271,0,11.356,5.085,11.356,11.356S157.474,344.148,151.202,344.148z"/>
<linearGradient id="SVGID_22_" gradientUnits="userSpaceOnUse" x1="128.5806" y1="161.9824" x2="97.741" y2="192.8119" gradientTransform="matrix(1.0039 0 0 -1.0039 0.1922 516.5621)">
	<stop  offset="0" style="stop-color:#654E48;stop-opacity:0"/>
	<stop  offset="1" style="stop-color:#503837"/>
</linearGradient>
<path style="fill:url(#SVGID_22_);" d="M116.358,321.435H104.58c-6.272,0-11.356,5.085-11.356,11.356s5.085,11.356,11.356,11.356
	h34.491L116.358,321.435z"/>
<linearGradient id="SVGID_23_" gradientUnits="userSpaceOnUse" x1="81.8996" y1="161.9824" x2="51.0601" y2="192.8119" gradientTransform="matrix(1.0039 0 0 -1.0039 0.1922 516.5621)">
	<stop  offset="0" style="stop-color:#654E48;stop-opacity:0"/>
	<stop  offset="1" style="stop-color:#503837"/>
</linearGradient>
<path style="fill:url(#SVGID_23_);" d="M69.493,321.435H57.715c-6.272,0-11.356,5.085-11.356,11.356s5.085,11.356,11.356,11.356
	h34.491L69.493,321.435z"/>
<linearGradient id="SVGID_24_" gradientUnits="userSpaceOnUse" x1="82.262" y1="142.2116" x2="32.615" y2="191.8647" gradientTransform="matrix(1.0039 0 0 -1.0039 0.1922 516.5621)">
	<stop  offset="0" style="stop-color:#816965"/>
	<stop  offset="1" style="stop-color:#654E48"/>
</linearGradient>
<path style="fill:url(#SVGID_24_);" d="M57.856,393.95c-6.35,0-11.497-5.147-11.497-11.497v-67.167
	c0-6.35,5.147-11.497,11.497-11.497s11.497,5.147,11.497,11.497v67.167C69.353,388.801,64.206,393.95,57.856,393.95z"/>
<linearGradient id="SVGID_25_" gradientUnits="userSpaceOnUse" x1="128.9427" y1="142.21" x2="79.2963" y2="191.8664" gradientTransform="matrix(1.0039 0 0 -1.0039 0.1922 516.5621)">
	<stop  offset="0" style="stop-color:#816965"/>
	<stop  offset="1" style="stop-color:#654E48"/>
</linearGradient>
<path style="fill:url(#SVGID_25_);" d="M104.72,393.95c-6.35,0-11.497-5.147-11.497-11.497v-67.167
	c0-6.35,5.147-11.497,11.497-11.497c6.35,0,11.497,5.147,11.497,11.497v67.167C116.217,388.801,111.07,393.95,104.72,393.95z"/>
<linearGradient id="SVGID_26_" gradientUnits="userSpaceOnUse" x1="35.7353" y1="161.9807" x2="4.9013" y2="192.8127" gradientTransform="matrix(1.0039 0 0 -1.0039 0.1922 516.5621)">
	<stop  offset="0" style="stop-color:#654E48;stop-opacity:0"/>
	<stop  offset="1" style="stop-color:#503837"/>
</linearGradient>
<path style="fill:url(#SVGID_26_);" d="M23.152,321.435H11.374c-6.271,0-11.356,5.085-11.356,11.356s5.085,11.356,11.356,11.356
	h34.491L23.152,321.435z"/>
<linearGradient id="SVGID_27_" gradientUnits="userSpaceOnUse" x1="36.0846" y1="142.2153" x2="-13.5636" y2="191.8615" gradientTransform="matrix(1.0039 0 0 -1.0039 0.1922 516.5621)">
	<stop  offset="0" style="stop-color:#816965"/>
	<stop  offset="1" style="stop-color:#654E48"/>
</linearGradient>
<path style="fill:url(#SVGID_27_);" d="M11.497,393.95C5.147,393.95,0,388.801,0,382.453v-67.167c0-6.35,5.147-11.497,11.497-11.497
	s11.497,5.147,11.497,11.497v67.167C22.994,388.801,17.846,393.95,11.497,393.95z"/>
<linearGradient id="SVGID_28_" gradientUnits="userSpaceOnUse" x1="175.1207" y1="142.21" x2="125.4743" y2="191.8664" gradientTransform="matrix(1.0039 0 0 -1.0039 0.1922 516.5621)">
	<stop  offset="0" style="stop-color:#816965"/>
	<stop  offset="1" style="stop-color:#654E48"/>
</linearGradient>
<path style="fill:url(#SVGID_28_);" d="M151.079,393.95c-6.35,0-11.497-5.147-11.497-11.497v-67.167
	c0-6.35,5.147-11.497,11.497-11.497c6.35,0,11.497,5.147,11.497,11.497v67.167C162.576,388.801,157.429,393.95,151.079,393.95z"/>
<linearGradient id="SVGID_29_" gradientUnits="userSpaceOnUse" x1="359.8073" y1="9.7629" x2="112.1799" y2="257.4003" gradientTransform="matrix(1.0039 0 0 -1.0039 0.1922 516.5621)">
	<stop  offset="0" style="stop-color:#816965"/>
	<stop  offset="1" style="stop-color:#654E48"/>
</linearGradient>
<rect y="370.96" style="fill:url(#SVGID_29_);" width="474.222" height="22.994"/>
<linearGradient id="SVGID_30_" gradientUnits="userSpaceOnUse" x1="389.3706" y1="39.3363" x2="312.3141" y2="116.4028" gradientTransform="matrix(1.0039 0 0 -1.0039 0.1922 516.5621)">
	<stop  offset="0" style="stop-color:#816965"/>
	<stop  offset="1" style="stop-color:#654E48"/>
</linearGradient>
<polygon style="fill:url(#SVGID_30_);" points="474.222,370.956 474.222,393.95 352.018,393.95 304.422,441.546 251.622,494.335 
	219.116,494.335 271.892,441.546 342.482,370.956 "/>
<g>
	<rect y="441.545" style="fill:#3FA9F5;" width="22.994" height="52.788"/>
	<rect x="451.233" y="441.545" style="fill:#3FA9F5;" width="22.994" height="52.788"/>
	<polygon style="fill:#3FA9F5;" points="304.422,441.546 251.622,494.335 219.116,494.335 271.892,441.546 	"/>
</g>
<g>
</g>
<g>
</g>
<g>
</g>
<g>
</g>
<g>
</g>
<g>
</g>
<g>
</g>
<g>
</g>
<g>
</g>
<g>
</g>
<g>
</g>
<g>
</g>
<g>
</g>
<g>
</g>
<g>
</g>
</svg>
