<?xml version="1.0" encoding="iso-8859-1"?>
<!-- Generator: Adobe Illustrator 19.0.0, SVG Export Plug-In . SVG Version: 6.00 Build 0)  -->
<svg version="1.1" id="Capa_1" xmlns="http://www.w3.org/2000/svg" xmlns:xlink="http://www.w3.org/1999/xlink" x="0px" y="0px"
	 viewBox="0 0 512 512" style="enable-background:new 0 0 512 512;" xml:space="preserve">
<linearGradient id="SVGID_1_" gradientUnits="userSpaceOnUse" x1="355.7814" y1="106.2953" x2="423.3314" y2="38.7353" gradientTransform="matrix(1.0039 0 0 -1.0039 0.1922 516.5609)">
	<stop  offset="0" style="stop-color:#9EB644"/>
	<stop  offset="1" style="stop-color:#738611"/>
</linearGradient>
<circle style="fill:url(#SVGID_1_);" cx="388.358" cy="440.842" r="52.686"/>
<linearGradient id="SVGID_2_" gradientUnits="userSpaceOnUse" x1="401.1679" y1="64.4518" x2="475.948" y2="-10.3182" gradientTransform="matrix(1.0039 0 0 -1.0039 0.1922 516.5609)">
	<stop  offset="0" style="stop-color:#9EB644"/>
	<stop  offset="1" style="stop-color:#738611"/>
</linearGradient>
<path style="fill:url(#SVGID_2_);" d="M498.079,489.73c0,7.865-1.488,15.372-4.204,22.27H380.612
	c-2.716-6.898-4.204-14.405-4.204-22.27c0-7.659,1.413-14.98,3.998-21.727c8.745-22.878,30.896-39.109,56.837-39.109
	c25.941,0,48.093,16.229,56.837,39.109C496.668,474.75,498.079,482.071,498.079,489.73z"/>
<linearGradient id="SVGID_3_" gradientUnits="userSpaceOnUse" x1="254.8141" y1="368.833" x2="254.8141" y2="-424.317" gradientTransform="matrix(1.0039 0 0 -1.0039 0.1922 516.5609)">
	<stop  offset="0" style="stop-color:#FF931E"/>
	<stop  offset="1" style="stop-color:#FF5D00"/>
</linearGradient>
<rect x="104.278" y="16.511" style="fill:url(#SVGID_3_);" width="303.455" height="495.486"/>
<linearGradient id="SVGID_4_" gradientUnits="userSpaceOnUse" x1="254.8096" y1="427.693" x2="254.8096" y2="517.886" gradientTransform="matrix(1.0039 0 0 -1.0039 0.1922 516.5609)">
	<stop  offset="0" style="stop-color:#FF5D00;stop-opacity:0"/>
	<stop  offset="1" style="stop-color:#D54003"/>
</linearGradient>
<polygon style="fill:url(#SVGID_4_);" points="407.727,16.511 407.727,109.69 174.645,109.69 104.275,39.322 104.275,16.511 "/>
<linearGradient id="SVGID_5_" gradientUnits="userSpaceOnUse" x1="254.8096" y1="271.583" x2="254.8096" y2="361.773" gradientTransform="matrix(1.0039 0 0 -1.0039 0.1922 516.5609)">
	<stop  offset="0" style="stop-color:#FF5D00;stop-opacity:0"/>
	<stop  offset="1" style="stop-color:#D54003"/>
</linearGradient>
<polygon style="fill:url(#SVGID_5_);" points="407.727,173.235 407.727,266.415 174.645,266.415 104.275,196.045 104.275,173.235 
	"/>
<linearGradient id="SVGID_6_" gradientUnits="userSpaceOnUse" x1="254.8096" y1="115.463" x2="254.8096" y2="205.663" gradientTransform="matrix(1.0039 0 0 -1.0039 0.1922 516.5609)">
	<stop  offset="0" style="stop-color:#FF5D00;stop-opacity:0"/>
	<stop  offset="1" style="stop-color:#D54003"/>
</linearGradient>
<polygon style="fill:url(#SVGID_6_);" points="407.727,329.959 407.727,423.138 174.645,423.138 104.275,352.769 104.275,329.959 
	"/>
<linearGradient id="SVGID_7_" gradientUnits="userSpaceOnUse" x1="254.8091" y1="510.503" x2="254.8091" y2="460.083" gradientTransform="matrix(1.0039 0 0 -1.0039 0.1922 516.5609)">
	<stop  offset="0" style="stop-color:#FFE7A5"/>
	<stop  offset="0.966" style="stop-color:#FFBF5C"/>
</linearGradient>
<path style="fill:url(#SVGID_7_);" d="M415.571,6.675v24.804c0,3.686-2.989,6.675-6.675,6.675H103.105
	c-3.686,0-6.675-2.989-6.675-6.675V6.675C96.43,2.989,99.419,0,103.105,0h305.791C412.582,0,415.571,2.989,415.571,6.675z"/>
<linearGradient id="SVGID_8_" gradientUnits="userSpaceOnUse" x1="212.7986" y1="368.0225" x2="115.2686" y2="465.5475" gradientTransform="matrix(1.0039 0 0 -1.0039 0.1922 516.5609)">
	<stop  offset="0" style="stop-color:#FF5D00;stop-opacity:0"/>
	<stop  offset="1" style="stop-color:#D54003"/>
</linearGradient>
<path style="fill:url(#SVGID_8_);" d="M306.715,174.714H175.609l-38.434-38.434c-0.01,0-0.01-0.01-0.021-0.021
	c-0.198-0.125-0.396-0.26-0.583-0.396c-0.021-0.01-0.041-0.031-0.062-0.042c-0.167-0.136-0.333-0.271-0.489-0.396
	c-0.198-0.157-0.374-0.323-0.552-0.5c-0.167-0.157-0.322-0.312-0.479-0.479c-0.167-0.167-0.312-0.343-0.469-0.52
	c-0.157-0.177-0.302-0.364-0.438-0.562c-0.136-0.188-0.271-0.386-0.396-0.583c-0.26-0.396-0.489-0.812-0.698-1.239
	c-0.198-0.427-0.386-0.874-0.531-1.332c-0.083-0.229-0.146-0.458-0.208-0.687c-0.114-0.406-0.198-0.812-0.25-1.229
	c-0.031-0.177-0.062-0.354-0.073-0.541c-0.021-0.156-0.031-0.322-0.041-0.489c-0.01-0.219-0.021-0.437-0.021-0.656V68.583
	c0-6.361,5.174-11.534,11.534-11.534h41.807c0.229,0,0.458,0.01,0.687,0.021c0.167,0.01,0.333,0.021,0.489,0.042
	c0.177,0.01,0.343,0.031,0.52,0.062c0.208,0.031,0.417,0.062,0.624,0.114c0.208,0.042,0.417,0.083,0.614,0.146
	c0.24,0.062,0.469,0.124,0.698,0.208c0.458,0.146,0.906,0.333,1.332,0.531c0.427,0.208,0.843,0.437,1.239,0.698
	c0.208,0.124,0.396,0.26,0.593,0.406c0.177,0.124,0.354,0.271,0.531,0.406c0.219,0.177,0.427,0.364,0.624,0.562
	c0.146,0.136,0.291,0.281,0.427,0.427c0.157,0.157,0.302,0.323,0.448,0.489c0.021,0.031,0.041,0.062,0.073,0.093
	c0.281,0.343,0.541,0.698,0.77,1.062c0,0,0.021,0.01,0.021,0.021l-0.312,0.25l25.192,25.192l6.912,6.912l6.34,6.34l8.891,8.891
	l26.806,26.806l6.923,6.923L306.715,174.714z"/>
<path style="fill:#503837;" d="M185.212,131.355h-41.814c-2.637,0-4.775-2.137-4.775-4.775V68.585c0-2.637,2.137-4.775,4.775-4.775
	h41.814c2.637,0,4.775,2.137,4.775,4.775v57.996C189.987,129.217,187.849,131.355,185.212,131.355z"/>
<path style="fill:#FFFFFF;" d="M195.627,63.625c-0.212-0.446-0.457-0.88-0.725-1.293l-0.022-0.011
	c-0.234-0.368-0.491-0.725-0.769-1.07c-0.033-0.022-0.056-0.056-0.078-0.089c-0.145-0.167-0.29-0.334-0.446-0.491
	c-0.134-0.146-0.279-0.29-0.424-0.424c-0.201-0.201-0.413-0.391-0.624-0.568c-0.179-0.134-0.356-0.279-0.535-0.402
	c-0.201-0.146-0.38-0.279-0.591-0.413c-0.391-0.256-0.814-0.479-1.238-0.691c-0.424-0.201-0.88-0.391-1.338-0.535
	c-0.223-0.078-0.457-0.146-0.692-0.201c-0.201-0.067-0.413-0.111-0.613-0.145c-0.212-0.056-0.424-0.089-0.624-0.122
	c-0.179-0.033-0.345-0.044-0.524-0.056c-0.156-0.022-0.323-0.033-0.491-0.044c-0.223-0.011-0.457-0.022-0.692-0.022h-41.807
	c-6.355,0-11.528,5.173-11.528,11.539v58.028c0,0.212,0.011,0.435,0.022,0.647c0.011,0.167,0.022,0.334,0.033,0.491
	c0.011,0.19,0.044,0.368,0.078,0.546c0.056,0.413,0.134,0.825,0.245,1.227c0.067,0.234,0.134,0.457,0.212,0.691
	c0.145,0.457,0.334,0.904,0.535,1.327c0.201,0.424,0.435,0.847,0.692,1.238c0.122,0.201,0.268,0.402,0.402,0.591
	c0.134,0.19,0.279,0.379,0.435,0.557c0.156,0.179,0.301,0.356,0.468,0.524c0.156,0.168,0.312,0.323,0.479,0.48
	c0.179,0.168,0.356,0.334,0.546,0.491c0.156,0.134,0.323,0.268,0.491,0.402c0.022,0.011,0.044,0.033,0.067,0.044
	c0.19,0.134,0.379,0.268,0.579,0.391c0.011,0.011,0.011,0.022,0.022,0.022c1.795,1.171,3.924,1.828,6.221,1.828h41.807
	c6.366,0,11.539-5.173,11.539-11.528V68.586C196.741,66.813,196.339,65.13,195.627,63.625z M183.229,124.597H145.38V70.571h37.849
	V124.597z"/>
<linearGradient id="SVGID_9_" gradientUnits="userSpaceOnUse" x1="305.6476" y1="368.0215" x2="208.1276" y2="465.5465" gradientTransform="matrix(1.0039 0 0 -1.0039 0.1922 516.5609)">
	<stop  offset="0" style="stop-color:#FF5D00;stop-opacity:0"/>
	<stop  offset="1" style="stop-color:#D54003"/>
</linearGradient>
<path style="fill:url(#SVGID_9_);" d="M399.932,174.714H268.827l-38.434-38.434c-0.01,0-0.01-0.01-0.021-0.021
	c-0.198-0.125-0.396-0.26-0.583-0.396c-0.021-0.01-0.041-0.031-0.062-0.042c-0.167-0.136-0.333-0.271-0.489-0.396
	c-0.198-0.157-0.374-0.323-0.552-0.5c-0.167-0.157-0.322-0.312-0.479-0.479c-0.167-0.167-0.312-0.343-0.469-0.52
	c-0.157-0.177-0.302-0.364-0.438-0.562c-0.136-0.188-0.271-0.386-0.396-0.583c-0.26-0.396-0.489-0.812-0.698-1.239
	c-0.198-0.427-0.386-0.874-0.531-1.332c-0.083-0.229-0.146-0.458-0.208-0.687c-0.114-0.406-0.198-0.812-0.25-1.229
	c-0.031-0.177-0.062-0.354-0.073-0.541c-0.021-0.156-0.031-0.322-0.041-0.489c-0.01-0.219-0.021-0.437-0.021-0.656V68.583
	c0-6.361,5.174-11.534,11.534-11.534h41.807c0.229,0,0.458,0.01,0.687,0.021c0.167,0.01,0.333,0.021,0.489,0.042
	c0.177,0.01,0.343,0.031,0.52,0.062c0.208,0.031,0.417,0.062,0.624,0.114c0.208,0.042,0.417,0.083,0.614,0.146
	c0.24,0.062,0.469,0.124,0.698,0.208c0.458,0.146,0.906,0.333,1.332,0.531c0.427,0.208,0.843,0.437,1.239,0.698
	c0.208,0.124,0.396,0.26,0.593,0.406c0.177,0.124,0.354,0.271,0.531,0.406c0.219,0.177,0.427,0.364,0.624,0.562
	c0.146,0.136,0.291,0.281,0.427,0.427c0.156,0.157,0.302,0.323,0.448,0.489c0.021,0.031,0.041,0.062,0.073,0.093
	c0.281,0.343,0.541,0.698,0.77,1.062c0,0,0.021,0.01,0.021,0.021l-0.312,0.25l25.192,25.192l6.912,6.912l6.34,6.34l8.891,8.891
	l26.806,26.806l6.923,6.923L399.932,174.714z"/>
<path style="fill:#503837;" d="M278.429,131.355h-41.814c-2.637,0-4.775-2.137-4.775-4.775V68.585c0-2.637,2.137-4.775,4.775-4.775
	h41.814c2.637,0,4.775,2.137,4.775,4.775v57.996C283.204,129.217,281.066,131.355,278.429,131.355z"/>
<path style="fill:#FFFFFF;" d="M288.861,63.648c0-0.011-0.011-0.011-0.011-0.022c-0.223-0.446-0.468-0.88-0.736-1.293l-0.022-0.011
	c-0.223-0.368-0.491-0.725-0.769-1.07c-0.033-0.022-0.044-0.056-0.067-0.089c-0.145-0.167-0.29-0.334-0.446-0.491
	c-0.145-0.146-0.29-0.29-0.435-0.424c-0.19-0.201-0.402-0.391-0.624-0.568c-0.179-0.134-0.356-0.279-0.524-0.402
	c-0.201-0.146-0.391-0.279-0.602-0.413c-0.391-0.256-0.802-0.479-1.238-0.691c-0.424-0.201-0.869-0.391-1.326-0.535
	c-0.234-0.078-0.457-0.146-0.703-0.201c-0.201-0.067-0.402-0.111-0.613-0.145c-0.212-0.056-0.413-0.089-0.624-0.122
	c-0.179-0.033-0.345-0.044-0.524-0.056c-0.156-0.022-0.323-0.033-0.491-0.044c-0.223-0.011-0.457-0.022-0.68-0.022h-41.807
	c-6.366,0-11.539,5.173-11.539,11.539v58.028c0,0.212,0.011,0.435,0.022,0.647c0.011,0.167,0.022,0.334,0.044,0.491
	c0.011,0.19,0.044,0.368,0.067,0.546c0.056,0.413,0.145,0.825,0.256,1.227c0.056,0.234,0.122,0.457,0.201,0.691
	c0.156,0.457,0.334,0.904,0.535,1.327c0.212,0.424,0.435,0.847,0.703,1.238c0.122,0.201,0.256,0.402,0.391,0.591
	c0.134,0.19,0.279,0.379,0.435,0.557c0.156,0.179,0.301,0.356,0.468,0.524c0.156,0.168,0.312,0.323,0.48,0.48
	c0.179,0.168,0.356,0.334,0.557,0.491c0.156,0.134,0.323,0.268,0.491,0.402c0.022,0.011,0.033,0.033,0.056,0.044
	c0.19,0.134,0.391,0.268,0.591,0.391c0.011,0.011,0.011,0.022,0.011,0.022c1.795,1.171,3.924,1.828,6.232,1.828h41.807
	c6.355,0,11.528-5.173,11.528-11.528V68.586C289.954,66.825,289.553,65.141,288.861,63.648z M276.442,124.597h-37.85V70.571h37.849
	v54.026H276.442z"/>
<linearGradient id="SVGID_10_" gradientUnits="userSpaceOnUse" x1="373.9025" y1="392.6264" x2="305.5325" y2="460.9964" gradientTransform="matrix(1.0039 0 0 -1.0039 0.1922 516.5609)">
	<stop  offset="0" style="stop-color:#FF5D00;stop-opacity:0"/>
	<stop  offset="1" style="stop-color:#D54003"/>
</linearGradient>
<path style="fill:url(#SVGID_10_);" d="M407.727,89.3v85.409h-45.686l-38.429-38.429c-0.011,0-0.011-0.011-0.022-0.022
	c-0.201-0.122-0.402-0.257-0.579-0.391c-0.022-0.011-0.044-0.033-0.067-0.044c-0.168-0.134-0.334-0.268-0.491-0.402
	c-0.201-0.157-0.367-0.323-0.546-0.491c-0.168-0.156-0.323-0.312-0.48-0.48c-0.168-0.167-0.312-0.345-0.468-0.524
	s-0.301-0.368-0.435-0.557c-0.145-0.19-0.279-0.391-0.402-0.591c-0.256-0.391-0.491-0.814-0.703-1.238
	c-0.19-0.424-0.379-0.869-0.524-1.327c-0.089-0.234-0.145-0.457-0.212-0.691c-0.111-0.402-0.201-0.814-0.245-1.227
	c-0.033-0.179-0.067-0.356-0.078-0.546c-0.022-0.156-0.033-0.323-0.044-0.491c0-0.212-0.011-0.435-0.011-0.647V68.586
	c0-6.366,5.173-11.539,11.528-11.539h41.807c0.234,0,0.457,0.011,0.692,0.022c0.167,0.011,0.334,0.022,0.491,0.044
	c0.179,0.011,0.345,0.022,0.513,0.056c0.212,0.033,0.424,0.067,0.624,0.122c0.212,0.033,0.424,0.078,0.624,0.145
	c0.234,0.055,0.468,0.122,0.691,0.201c0.457,0.145,0.904,0.334,1.338,0.535c0.424,0.212,0.836,0.435,1.238,0.691
	c0.201,0.134,0.391,0.268,0.591,0.413c0.179,0.122,0.356,0.268,0.535,0.402c0.212,0.179,0.424,0.367,0.624,0.568
	c0.145,0.134,0.29,0.279,0.424,0.424c0.157,0.156,0.301,0.323,0.446,0.491c0.022,0.033,0.044,0.067,0.078,0.089
	c0.279,0.345,0.535,0.702,0.769,1.07l0.022,0.011l-0.312,0.256l1.037,1.037l24.147,24.159L407.727,89.3z"/>
<path style="fill:#503837;" d="M371.646,131.355h-41.814c-2.637,0-4.775-2.137-4.775-4.775V68.585c0-2.637,2.137-4.775,4.775-4.775
	h41.814c2.637,0,4.775,2.137,4.775,4.775v57.996C376.421,129.217,374.284,131.355,371.646,131.355z"/>
<path style="fill:#FFFFFF;" d="M382.063,63.625c-0.223-0.446-0.457-0.88-0.725-1.293l-0.022-0.011
	c-0.234-0.368-0.491-0.725-0.769-1.07c-0.033-0.022-0.055-0.056-0.078-0.089c-0.146-0.167-0.29-0.334-0.446-0.491
	c-0.134-0.146-0.279-0.29-0.424-0.424c-0.201-0.201-0.413-0.391-0.624-0.568c-0.179-0.134-0.356-0.279-0.535-0.402
	c-0.201-0.146-0.391-0.279-0.591-0.413c-0.402-0.256-0.814-0.479-1.238-0.691c-0.435-0.201-0.88-0.391-1.338-0.535
	c-0.223-0.078-0.457-0.146-0.691-0.201c-0.201-0.067-0.413-0.111-0.624-0.145c-0.201-0.056-0.413-0.089-0.624-0.122
	c-0.167-0.033-0.334-0.044-0.513-0.056c-0.156-0.022-0.323-0.033-0.491-0.044c-0.234-0.011-0.457-0.022-0.692-0.022H329.83
	c-6.355,0-11.528,5.173-11.528,11.539v58.028c0,0.212,0.011,0.435,0.011,0.647c0.011,0.167,0.022,0.334,0.044,0.491
	c0.011,0.19,0.044,0.368,0.078,0.546c0.044,0.413,0.134,0.825,0.245,1.227c0.067,0.234,0.122,0.457,0.212,0.691
	c0.145,0.457,0.334,0.904,0.524,1.327c0.212,0.424,0.446,0.847,0.703,1.238c0.122,0.201,0.256,0.402,0.402,0.591
	c0.134,0.19,0.279,0.379,0.435,0.557c0.156,0.179,0.301,0.356,0.468,0.524c0.156,0.168,0.312,0.323,0.48,0.48
	c0.179,0.168,0.345,0.334,0.546,0.491c0.156,0.134,0.323,0.268,0.491,0.402c0.022,0.011,0.044,0.033,0.067,0.044
	c0.179,0.134,0.379,0.268,0.579,0.391c0.011,0.011,0.011,0.022,0.022,0.022c1.784,1.171,3.924,1.828,6.221,1.828h41.807
	c6.366,0,11.539-5.173,11.539-11.528V68.586C383.178,66.813,382.766,65.13,382.063,63.625z M369.666,124.597h-37.849V70.571h37.85
	L369.666,124.597L369.666,124.597z"/>
<linearGradient id="SVGID_11_" gradientUnits="userSpaceOnUse" x1="254.8091" y1="352.983" x2="254.8091" y2="302.563" gradientTransform="matrix(1.0039 0 0 -1.0039 0.1922 516.5609)">
	<stop  offset="0" style="stop-color:#FFE7A5"/>
	<stop  offset="0.966" style="stop-color:#FFBF5C"/>
</linearGradient>
<path style="fill:url(#SVGID_11_);" d="M415.571,164.809v24.804c0,3.686-2.989,6.675-6.675,6.675H103.105
	c-3.686,0-6.675-2.989-6.675-6.675v-24.804c0-3.686,2.989-6.675,6.675-6.675h305.791
	C412.582,158.134,415.571,161.122,415.571,164.809z"/>
<linearGradient id="SVGID_12_" gradientUnits="userSpaceOnUse" x1="212.7991" y1="210.503" x2="115.2691" y2="308.033" gradientTransform="matrix(1.0039 0 0 -1.0039 0.1922 516.5609)">
	<stop  offset="0" style="stop-color:#FF5D00;stop-opacity:0"/>
	<stop  offset="1" style="stop-color:#D54003"/>
</linearGradient>
<path style="fill:url(#SVGID_12_);" d="M306.715,332.848H175.609l-38.434-38.434c-0.01,0-0.01-0.01-0.021-0.021
	c-0.198-0.125-0.396-0.26-0.583-0.396c-0.021-0.01-0.041-0.031-0.062-0.042c-0.167-0.136-0.333-0.271-0.489-0.396
	c-0.198-0.157-0.374-0.323-0.552-0.5c-0.167-0.157-0.322-0.312-0.479-0.479c-0.167-0.167-0.312-0.343-0.469-0.52
	c-0.157-0.177-0.302-0.364-0.438-0.562c-0.136-0.188-0.271-0.385-0.396-0.583c-0.26-0.396-0.489-0.812-0.698-1.239
	c-0.198-0.427-0.386-0.874-0.531-1.332c-0.083-0.229-0.146-0.458-0.208-0.687c-0.114-0.406-0.198-0.812-0.25-1.229
	c-0.031-0.177-0.062-0.354-0.073-0.541c-0.021-0.156-0.031-0.322-0.041-0.489c-0.01-0.219-0.021-0.437-0.021-0.656v-58.026
	c0-6.361,5.174-11.534,11.534-11.534h41.807c0.229,0,0.458,0.01,0.687,0.021c0.167,0.01,0.333,0.021,0.489,0.042
	c0.177,0.01,0.343,0.031,0.52,0.062c0.208,0.031,0.417,0.062,0.624,0.114c0.208,0.042,0.417,0.083,0.614,0.146
	c0.24,0.062,0.469,0.124,0.698,0.208c0.458,0.146,0.906,0.333,1.332,0.531c0.427,0.208,0.843,0.437,1.239,0.698
	c0.208,0.124,0.396,0.26,0.593,0.406c0.177,0.124,0.354,0.271,0.531,0.406c0.219,0.177,0.427,0.364,0.624,0.562
	c0.146,0.136,0.291,0.281,0.427,0.427c0.157,0.157,0.302,0.323,0.448,0.489c0.021,0.031,0.041,0.062,0.073,0.093
	c0.281,0.343,0.541,0.698,0.77,1.062c0,0,0.021,0.01,0.021,0.021l-0.312,0.25l25.192,25.192l6.912,6.912l6.34,6.34l8.891,8.891
	l26.806,26.806l6.923,6.923L306.715,332.848z"/>
<path style="fill:#503837;" d="M185.212,289.489h-41.814c-2.637,0-4.775-2.137-4.775-4.775v-57.996c0-2.637,2.137-4.775,4.775-4.775
	h41.814c2.637,0,4.775,2.137,4.775,4.775v57.996C189.987,287.352,187.849,289.489,185.212,289.489z"/>
<path style="fill:#FFFFFF;" d="M195.627,221.759c-0.212-0.446-0.457-0.88-0.725-1.293l-0.022-0.011
	c-0.234-0.368-0.491-0.725-0.769-1.07c-0.033-0.022-0.056-0.056-0.078-0.089c-0.145-0.167-0.29-0.334-0.446-0.491
	c-0.134-0.146-0.279-0.29-0.424-0.424c-0.201-0.201-0.413-0.391-0.624-0.568c-0.179-0.134-0.356-0.279-0.535-0.402
	c-0.201-0.146-0.38-0.279-0.591-0.413c-0.391-0.256-0.814-0.479-1.238-0.691c-0.424-0.201-0.88-0.391-1.338-0.535
	c-0.223-0.078-0.457-0.146-0.692-0.201c-0.201-0.067-0.413-0.111-0.613-0.145c-0.212-0.056-0.424-0.089-0.624-0.122
	c-0.179-0.033-0.345-0.044-0.524-0.056c-0.156-0.022-0.323-0.033-0.491-0.044c-0.223-0.011-0.457-0.022-0.692-0.022h-41.807
	c-6.355,0-11.528,5.173-11.528,11.539v58.028c0,0.212,0.011,0.435,0.022,0.647c0.011,0.167,0.022,0.334,0.033,0.491
	c0.011,0.19,0.044,0.368,0.078,0.546c0.056,0.413,0.134,0.825,0.245,1.227c0.067,0.234,0.134,0.457,0.212,0.691
	c0.145,0.457,0.334,0.904,0.535,1.327c0.201,0.424,0.435,0.847,0.692,1.238c0.122,0.201,0.268,0.402,0.402,0.591
	c0.134,0.19,0.279,0.379,0.435,0.557c0.156,0.179,0.301,0.356,0.468,0.524c0.156,0.168,0.312,0.323,0.479,0.48
	c0.179,0.168,0.356,0.334,0.546,0.491c0.156,0.134,0.323,0.268,0.491,0.402c0.022,0.011,0.044,0.033,0.067,0.044
	c0.19,0.134,0.379,0.268,0.579,0.391c0.011,0.011,0.011,0.022,0.022,0.022c1.795,1.171,3.924,1.828,6.221,1.828h41.807
	c6.366,0,11.539-5.173,11.539-11.528v-57.995C196.741,224.948,196.339,223.264,195.627,221.759z M183.229,282.73H145.38v-54.026
	h37.849V282.73z"/>
<linearGradient id="SVGID_13_" gradientUnits="userSpaceOnUse" x1="305.6481" y1="210.5019" x2="208.1281" y2="308.032" gradientTransform="matrix(1.0039 0 0 -1.0039 0.1922 516.5609)">
	<stop  offset="0" style="stop-color:#FF5D00;stop-opacity:0"/>
	<stop  offset="1" style="stop-color:#D54003"/>
</linearGradient>
<path style="fill:url(#SVGID_13_);" d="M399.932,332.848H268.827l-38.434-38.434c-0.01,0-0.01-0.01-0.021-0.021
	c-0.198-0.125-0.396-0.26-0.583-0.396c-0.021-0.01-0.041-0.031-0.062-0.042c-0.167-0.136-0.333-0.271-0.489-0.396
	c-0.198-0.157-0.374-0.323-0.552-0.5c-0.167-0.157-0.322-0.312-0.479-0.479c-0.167-0.167-0.312-0.343-0.469-0.52
	c-0.157-0.177-0.302-0.364-0.438-0.562c-0.136-0.188-0.271-0.385-0.396-0.583c-0.26-0.396-0.489-0.812-0.698-1.239
	c-0.198-0.427-0.386-0.874-0.531-1.332c-0.083-0.229-0.146-0.458-0.208-0.687c-0.114-0.406-0.198-0.812-0.25-1.229
	c-0.031-0.177-0.062-0.354-0.073-0.541c-0.021-0.156-0.031-0.322-0.041-0.489c-0.01-0.219-0.021-0.437-0.021-0.656v-58.026
	c0-6.361,5.174-11.534,11.534-11.534h41.807c0.229,0,0.458,0.01,0.687,0.021c0.167,0.01,0.333,0.021,0.489,0.042
	c0.177,0.01,0.343,0.031,0.52,0.062c0.208,0.031,0.417,0.062,0.624,0.114c0.208,0.042,0.417,0.083,0.614,0.146
	c0.24,0.062,0.469,0.124,0.698,0.208c0.458,0.146,0.906,0.333,1.332,0.531c0.427,0.208,0.843,0.437,1.239,0.698
	c0.208,0.124,0.396,0.26,0.593,0.406c0.177,0.124,0.354,0.271,0.531,0.406c0.219,0.177,0.427,0.364,0.624,0.562
	c0.146,0.136,0.291,0.281,0.427,0.427c0.156,0.157,0.302,0.323,0.448,0.489c0.021,0.031,0.041,0.062,0.073,0.093
	c0.281,0.343,0.541,0.698,0.77,1.062c0,0,0.021,0.01,0.021,0.021l-0.312,0.25l25.192,25.192l6.912,6.912l6.34,6.34l8.891,8.891
	l26.806,26.806l6.923,6.923L399.932,332.848z"/>
<path style="fill:#503837;" d="M278.429,289.489h-41.814c-2.637,0-4.775-2.137-4.775-4.775v-57.996c0-2.637,2.137-4.775,4.775-4.775
	h41.814c2.637,0,4.775,2.137,4.775,4.775v57.996C283.204,287.352,281.066,289.489,278.429,289.489z"/>
<path style="fill:#FFFFFF;" d="M288.861,221.781c0-0.011-0.011-0.011-0.011-0.022c-0.223-0.446-0.468-0.88-0.736-1.293l-0.022-0.011
	c-0.223-0.368-0.491-0.725-0.769-1.07c-0.033-0.022-0.044-0.056-0.067-0.089c-0.145-0.167-0.29-0.334-0.446-0.491
	c-0.145-0.146-0.29-0.29-0.435-0.424c-0.19-0.201-0.402-0.391-0.624-0.568c-0.179-0.134-0.356-0.279-0.524-0.402
	c-0.201-0.146-0.391-0.279-0.602-0.413c-0.391-0.256-0.802-0.479-1.238-0.691c-0.424-0.201-0.869-0.391-1.326-0.535
	c-0.234-0.078-0.457-0.146-0.703-0.201c-0.201-0.067-0.402-0.111-0.613-0.145c-0.212-0.056-0.413-0.089-0.624-0.122
	c-0.179-0.033-0.345-0.044-0.524-0.056c-0.156-0.022-0.323-0.033-0.491-0.044c-0.223-0.011-0.457-0.022-0.68-0.022h-41.807
	c-6.366,0-11.539,5.173-11.539,11.539v58.028c0,0.212,0.011,0.435,0.022,0.647c0.011,0.167,0.022,0.334,0.044,0.491
	c0.011,0.19,0.044,0.368,0.067,0.546c0.056,0.413,0.145,0.825,0.256,1.227c0.056,0.234,0.122,0.457,0.201,0.691
	c0.156,0.457,0.334,0.904,0.535,1.327c0.212,0.424,0.435,0.847,0.703,1.238c0.122,0.201,0.256,0.402,0.391,0.591
	c0.134,0.19,0.279,0.379,0.435,0.557c0.156,0.179,0.301,0.356,0.468,0.524c0.156,0.168,0.312,0.323,0.48,0.48
	c0.179,0.168,0.356,0.334,0.557,0.491c0.156,0.134,0.323,0.268,0.491,0.402c0.022,0.011,0.033,0.033,0.056,0.044
	c0.19,0.134,0.391,0.268,0.591,0.391c0.011,0.011,0.011,0.022,0.011,0.022c1.795,1.171,3.924,1.828,6.232,1.828h41.807
	c6.355,0,11.528-5.173,11.528-11.528v-57.995C289.954,224.959,289.553,223.275,288.861,221.781z M276.442,282.73h-37.85v-54.026
	h37.849v54.026H276.442z"/>
<linearGradient id="SVGID_14_" gradientUnits="userSpaceOnUse" x1="373.9013" y1="235.1152" x2="305.5313" y2="303.4752" gradientTransform="matrix(1.0039 0 0 -1.0039 0.1922 516.5609)">
	<stop  offset="0" style="stop-color:#FF5D00;stop-opacity:0"/>
	<stop  offset="1" style="stop-color:#D54003"/>
</linearGradient>
<path style="fill:url(#SVGID_14_);" d="M407.727,247.435v85.409h-45.686l-38.429-38.429c-0.011,0-0.011-0.011-0.022-0.022
	c-0.201-0.122-0.402-0.257-0.579-0.391c-0.022-0.011-0.044-0.033-0.067-0.044c-0.168-0.134-0.334-0.268-0.491-0.402
	c-0.201-0.157-0.367-0.323-0.546-0.491c-0.168-0.156-0.323-0.312-0.48-0.48c-0.168-0.167-0.312-0.345-0.468-0.524
	s-0.301-0.368-0.435-0.557c-0.145-0.19-0.279-0.391-0.402-0.591c-0.256-0.391-0.491-0.814-0.703-1.238
	c-0.19-0.424-0.379-0.869-0.524-1.327c-0.089-0.234-0.145-0.457-0.212-0.691c-0.111-0.402-0.201-0.814-0.245-1.227
	c-0.033-0.179-0.067-0.356-0.078-0.546c-0.022-0.156-0.033-0.323-0.044-0.491c0-0.212-0.011-0.435-0.011-0.647v-58.028
	c0-6.366,5.173-11.539,11.528-11.539h41.807c0.234,0,0.457,0.011,0.692,0.022c0.167,0.011,0.334,0.022,0.491,0.044
	c0.179,0.011,0.345,0.022,0.513,0.056c0.212,0.033,0.424,0.067,0.624,0.122c0.212,0.033,0.424,0.078,0.624,0.145
	c0.234,0.055,0.468,0.122,0.691,0.201c0.457,0.145,0.904,0.334,1.338,0.535c0.424,0.212,0.836,0.435,1.238,0.691
	c0.201,0.134,0.391,0.268,0.591,0.413c0.179,0.122,0.356,0.268,0.535,0.402c0.212,0.179,0.424,0.367,0.624,0.568
	c0.145,0.134,0.29,0.279,0.424,0.424c0.157,0.156,0.301,0.323,0.446,0.491c0.022,0.033,0.044,0.067,0.078,0.089
	c0.279,0.345,0.535,0.702,0.769,1.07l0.022,0.011l-0.312,0.256l1.037,1.037l24.147,24.159L407.727,247.435z"/>
<path style="fill:#503837;" d="M371.646,289.489h-41.814c-2.637,0-4.775-2.137-4.775-4.775v-57.996c0-2.637,2.137-4.775,4.775-4.775
	h41.814c2.637,0,4.775,2.137,4.775,4.775v57.996C376.421,287.352,374.284,289.489,371.646,289.489z"/>
<path style="fill:#FFFFFF;" d="M382.063,221.759c-0.223-0.446-0.457-0.88-0.725-1.293l-0.022-0.011
	c-0.234-0.368-0.491-0.725-0.769-1.07c-0.033-0.022-0.055-0.056-0.078-0.089c-0.146-0.167-0.29-0.334-0.446-0.491
	c-0.134-0.146-0.279-0.29-0.424-0.424c-0.201-0.201-0.413-0.391-0.624-0.568c-0.179-0.134-0.356-0.279-0.535-0.402
	c-0.201-0.146-0.391-0.279-0.591-0.413c-0.402-0.256-0.814-0.479-1.238-0.691c-0.435-0.201-0.88-0.391-1.338-0.535
	c-0.223-0.078-0.457-0.146-0.691-0.201c-0.201-0.067-0.413-0.111-0.624-0.145c-0.201-0.056-0.413-0.089-0.624-0.122
	c-0.167-0.033-0.334-0.044-0.513-0.056c-0.156-0.022-0.323-0.033-0.491-0.044c-0.234-0.011-0.457-0.022-0.692-0.022H329.83
	c-6.355,0-11.528,5.173-11.528,11.539v58.028c0,0.212,0.011,0.435,0.011,0.647c0.011,0.167,0.022,0.334,0.044,0.491
	c0.011,0.19,0.044,0.368,0.078,0.546c0.044,0.413,0.134,0.825,0.245,1.227c0.067,0.234,0.122,0.457,0.212,0.691
	c0.145,0.457,0.334,0.904,0.524,1.327c0.212,0.424,0.446,0.847,0.703,1.238c0.122,0.201,0.256,0.402,0.402,0.591
	c0.134,0.19,0.279,0.379,0.435,0.557c0.156,0.179,0.301,0.356,0.468,0.524c0.156,0.168,0.312,0.323,0.48,0.48
	c0.179,0.168,0.345,0.334,0.546,0.491c0.156,0.134,0.323,0.268,0.491,0.402c0.022,0.011,0.044,0.033,0.067,0.044
	c0.179,0.134,0.379,0.268,0.579,0.391c0.011,0.011,0.011,0.022,0.022,0.022c1.784,1.171,3.924,1.828,6.221,1.828h41.807
	c6.366,0,11.539-5.173,11.539-11.528v-57.995C383.178,224.948,382.766,223.264,382.063,221.759z M369.666,282.73h-37.849v-54.026
	h37.85L369.666,282.73L369.666,282.73z"/>
<linearGradient id="SVGID_15_" gradientUnits="userSpaceOnUse" x1="254.8091" y1="195.463" x2="254.8091" y2="145.053" gradientTransform="matrix(1.0039 0 0 -1.0039 0.1922 516.5609)">
	<stop  offset="0" style="stop-color:#FFE7A5"/>
	<stop  offset="0.966" style="stop-color:#FFBF5C"/>
</linearGradient>
<path style="fill:url(#SVGID_15_);" d="M415.571,322.944v24.804c0,3.686-2.989,6.675-6.675,6.675H103.105
	c-3.686,0-6.675-2.989-6.675-6.675v-24.804c0-3.686,2.989-6.675,6.675-6.675h305.791
	C412.582,316.268,415.571,319.257,415.571,322.944z"/>
<linearGradient id="SVGID_16_" gradientUnits="userSpaceOnUse" x1="212.7981" y1="52.992" x2="115.2681" y2="150.512" gradientTransform="matrix(1.0039 0 0 -1.0039 0.1922 516.5609)">
	<stop  offset="0" style="stop-color:#FF5D00;stop-opacity:0"/>
	<stop  offset="1" style="stop-color:#D54003"/>
</linearGradient>
<path style="fill:url(#SVGID_16_);" d="M306.715,490.983H175.609l-38.434-38.434c-0.01,0-0.01-0.01-0.021-0.021
	c-0.198-0.125-0.396-0.26-0.583-0.396c-0.021-0.01-0.041-0.031-0.062-0.042c-0.167-0.136-0.333-0.271-0.489-0.396
	c-0.198-0.157-0.374-0.323-0.552-0.5c-0.167-0.157-0.322-0.312-0.479-0.479c-0.167-0.167-0.312-0.343-0.469-0.52
	c-0.157-0.177-0.302-0.364-0.438-0.562c-0.136-0.188-0.271-0.385-0.396-0.583c-0.26-0.396-0.489-0.812-0.698-1.239
	c-0.198-0.427-0.386-0.874-0.531-1.332c-0.083-0.229-0.146-0.458-0.208-0.687c-0.114-0.406-0.198-0.812-0.25-1.229
	c-0.031-0.177-0.062-0.354-0.073-0.541c-0.021-0.156-0.031-0.322-0.041-0.489c-0.01-0.219-0.021-0.437-0.021-0.656v-58.026
	c0-6.361,5.174-11.534,11.534-11.534h41.807c0.229,0,0.458,0.01,0.687,0.021c0.167,0.01,0.333,0.021,0.489,0.042
	c0.177,0.01,0.343,0.031,0.52,0.062c0.208,0.031,0.417,0.062,0.624,0.114c0.208,0.042,0.417,0.083,0.614,0.146
	c0.24,0.062,0.469,0.124,0.698,0.208c0.458,0.146,0.906,0.333,1.332,0.531c0.427,0.208,0.843,0.437,1.239,0.698
	c0.208,0.124,0.396,0.26,0.593,0.406c0.177,0.124,0.354,0.271,0.531,0.406c0.219,0.177,0.427,0.364,0.624,0.562
	c0.146,0.136,0.291,0.281,0.427,0.427c0.157,0.157,0.302,0.323,0.448,0.489c0.021,0.031,0.041,0.062,0.073,0.093
	c0.281,0.343,0.541,0.698,0.77,1.062c0,0,0.021,0.01,0.021,0.021l-0.312,0.25l25.192,25.192l6.912,6.912l6.34,6.34l8.891,8.891
	l26.806,26.806l6.923,6.923L306.715,490.983z"/>
<path style="fill:#503837;" d="M185.212,447.624h-41.814c-2.637,0-4.775-2.137-4.775-4.775v-57.996c0-2.637,2.137-4.775,4.775-4.775
	h41.814c2.637,0,4.775,2.137,4.775,4.775v57.996C189.987,445.485,187.849,447.624,185.212,447.624z"/>
<path style="fill:#FFFFFF;" d="M195.627,379.893c-0.212-0.446-0.457-0.88-0.725-1.293l-0.022-0.011
	c-0.234-0.368-0.491-0.725-0.769-1.07c-0.033-0.022-0.056-0.056-0.078-0.089c-0.145-0.167-0.29-0.334-0.446-0.491
	c-0.134-0.146-0.279-0.29-0.424-0.424c-0.201-0.201-0.413-0.391-0.624-0.568c-0.179-0.134-0.356-0.279-0.535-0.402
	c-0.201-0.146-0.38-0.279-0.591-0.413c-0.391-0.256-0.814-0.479-1.238-0.691c-0.424-0.201-0.88-0.391-1.338-0.535
	c-0.223-0.078-0.457-0.146-0.692-0.201c-0.201-0.067-0.413-0.111-0.613-0.145c-0.212-0.056-0.424-0.089-0.624-0.122
	c-0.179-0.033-0.345-0.044-0.524-0.056c-0.156-0.022-0.323-0.033-0.491-0.044c-0.223-0.011-0.457-0.022-0.692-0.022h-41.807
	c-6.355,0-11.528,5.173-11.528,11.539v58.028c0,0.212,0.011,0.435,0.022,0.647c0.011,0.167,0.022,0.334,0.033,0.491
	c0.011,0.19,0.044,0.368,0.078,0.546c0.056,0.413,0.134,0.825,0.245,1.227c0.067,0.234,0.134,0.457,0.212,0.691
	c0.145,0.457,0.334,0.904,0.535,1.327c0.201,0.424,0.435,0.847,0.692,1.238c0.122,0.201,0.268,0.402,0.402,0.591
	s0.279,0.379,0.435,0.557c0.156,0.179,0.301,0.356,0.468,0.524c0.156,0.168,0.312,0.323,0.479,0.48
	c0.179,0.168,0.356,0.334,0.546,0.491c0.156,0.134,0.323,0.268,0.491,0.402c0.022,0.011,0.044,0.033,0.067,0.044
	c0.19,0.134,0.379,0.268,0.579,0.391c0.011,0.011,0.011,0.022,0.022,0.022c1.795,1.171,3.924,1.828,6.221,1.828h41.807
	c6.366,0,11.539-5.173,11.539-11.528v-57.995C196.741,383.081,196.339,381.399,195.627,379.893z M183.229,440.864H145.38v-54.026
	h37.849V440.864z"/>
<linearGradient id="SVGID_17_" gradientUnits="userSpaceOnUse" x1="373.9015" y1="77.5954" x2="305.5315" y2="145.9654" gradientTransform="matrix(1.0039 0 0 -1.0039 0.1922 516.5609)">
	<stop  offset="0" style="stop-color:#FF5D00;stop-opacity:0"/>
	<stop  offset="1" style="stop-color:#D54003"/>
</linearGradient>
<path style="fill:url(#SVGID_17_);" d="M407.727,405.568v85.409h-45.686l-38.429-38.429c-0.011,0-0.011-0.011-0.022-0.022
	c-0.201-0.122-0.402-0.257-0.579-0.391c-0.022-0.011-0.044-0.033-0.067-0.044c-0.168-0.134-0.334-0.268-0.491-0.402
	c-0.201-0.157-0.367-0.323-0.546-0.491c-0.168-0.156-0.323-0.312-0.48-0.48c-0.168-0.167-0.312-0.345-0.468-0.524
	s-0.301-0.368-0.435-0.557c-0.145-0.19-0.279-0.391-0.402-0.591c-0.256-0.391-0.491-0.814-0.703-1.238
	c-0.19-0.424-0.379-0.869-0.524-1.327c-0.089-0.234-0.145-0.457-0.212-0.691c-0.111-0.402-0.201-0.814-0.245-1.227
	c-0.033-0.179-0.067-0.356-0.078-0.546c-0.022-0.156-0.033-0.323-0.044-0.491c0-0.212-0.011-0.435-0.011-0.647v-58.028
	c0-6.366,5.173-11.539,11.528-11.539h41.807c0.234,0,0.457,0.011,0.692,0.022c0.167,0.011,0.334,0.022,0.491,0.044
	c0.179,0.011,0.345,0.022,0.513,0.056c0.212,0.033,0.424,0.067,0.624,0.122c0.212,0.033,0.424,0.078,0.624,0.145
	c0.234,0.055,0.468,0.122,0.691,0.201c0.457,0.145,0.904,0.334,1.338,0.535c0.424,0.212,0.836,0.435,1.238,0.691
	c0.201,0.134,0.391,0.268,0.591,0.413c0.179,0.122,0.356,0.268,0.535,0.402c0.212,0.179,0.424,0.367,0.624,0.568
	c0.145,0.134,0.29,0.279,0.424,0.424c0.157,0.156,0.301,0.323,0.446,0.491c0.022,0.033,0.044,0.067,0.078,0.089
	c0.279,0.345,0.535,0.702,0.769,1.07l0.022,0.011l-0.312,0.256l1.037,1.037l24.147,24.159L407.727,405.568z"/>
<path style="fill:#503837;" d="M371.646,447.624h-41.814c-2.637,0-4.775-2.137-4.775-4.775v-57.996c0-2.637,2.137-4.775,4.775-4.775
	h41.814c2.637,0,4.775,2.137,4.775,4.775v57.996C376.421,445.485,374.284,447.624,371.646,447.624z"/>
<path style="fill:#FFFFFF;" d="M382.063,379.893c-0.223-0.446-0.457-0.88-0.725-1.293l-0.022-0.011
	c-0.234-0.368-0.491-0.725-0.769-1.07c-0.033-0.022-0.055-0.056-0.078-0.089c-0.146-0.167-0.29-0.334-0.446-0.491
	c-0.134-0.146-0.279-0.29-0.424-0.424c-0.201-0.201-0.413-0.391-0.624-0.568c-0.179-0.134-0.356-0.279-0.535-0.402
	c-0.201-0.146-0.391-0.279-0.591-0.413c-0.402-0.256-0.814-0.479-1.238-0.691c-0.435-0.201-0.88-0.391-1.338-0.535
	c-0.223-0.078-0.457-0.146-0.691-0.201c-0.201-0.067-0.413-0.111-0.624-0.145c-0.201-0.056-0.413-0.089-0.624-0.122
	c-0.167-0.033-0.334-0.044-0.513-0.056c-0.156-0.022-0.323-0.033-0.491-0.044c-0.234-0.011-0.457-0.022-0.692-0.022H329.83
	c-6.355,0-11.528,5.173-11.528,11.539v58.028c0,0.212,0.011,0.435,0.011,0.647c0.011,0.167,0.022,0.334,0.044,0.491
	c0.011,0.19,0.044,0.368,0.078,0.546c0.044,0.413,0.134,0.825,0.245,1.227c0.067,0.234,0.122,0.457,0.212,0.691
	c0.145,0.457,0.334,0.904,0.524,1.327c0.212,0.424,0.446,0.847,0.703,1.238c0.122,0.201,0.256,0.402,0.402,0.591
	c0.134,0.19,0.279,0.379,0.435,0.557c0.156,0.179,0.301,0.356,0.468,0.524c0.156,0.168,0.312,0.323,0.48,0.48
	c0.179,0.168,0.345,0.334,0.546,0.491c0.156,0.134,0.323,0.268,0.491,0.402c0.022,0.011,0.044,0.033,0.067,0.044
	c0.179,0.134,0.379,0.268,0.579,0.391c0.011,0.011,0.011,0.022,0.022,0.022c1.784,1.171,3.924,1.828,6.221,1.828h41.807
	c6.366,0,11.539-5.173,11.539-11.528v-57.995C383.178,383.081,382.766,381.399,382.063,379.893z M369.666,440.864h-37.849v-54.026
	h37.85L369.666,440.864L369.666,440.864z"/>
<path style="fill:#FFBF5C;" d="M221.253,512V396.987c0-8.035,6.513-14.549,14.549-14.549H276.2c8.035,0,14.549,6.513,14.549,14.549
	V512H221.253z"/>
<path style="fill:#FFE7A5;" d="M299.354,512h-17.209V401.946c0-5.997-4.907-10.904-10.904-10.904h-30.48
	c-6.023,0-10.904,4.882-10.904,10.904V512h-17.209V390.566c0-9.241,7.491-16.733,16.733-16.733h53.24
	c9.241,0,16.733,7.491,16.733,16.733V512H299.354z"/>
<circle style="fill:#FFFFFF;" cx="243.672" cy="450.811" r="7.847"/>
<linearGradient id="SVGID_18_" gradientUnits="userSpaceOnUse" x1="36.1606" y1="55.5245" x2="99.8006" y2="-8.1055" gradientTransform="matrix(1.0039 0 0 -1.0039 0.1922 516.5609)">
	<stop  offset="0" style="stop-color:#9EB644"/>
	<stop  offset="1" style="stop-color:#738611"/>
</linearGradient>
<path style="fill:url(#SVGID_18_);" d="M117.463,493.048c0,6.693-1.267,13.081-3.578,18.952H17.499
	c-2.311-5.871-3.578-12.259-3.578-18.952c0-6.517,1.202-12.749,3.402-18.489c7.442-19.47,26.293-33.281,48.369-33.281
	s40.927,13.812,48.369,33.281C116.262,480.299,117.463,486.531,117.463,493.048z"/>
<linearGradient id="SVGID_19_" gradientUnits="userSpaceOnUse" x1="91.5625" y1="41.5264" x2="137.7225" y2="-4.6336" gradientTransform="matrix(1.0039 0 0 -1.0039 0.1922 516.5609)">
	<stop  offset="0" style="stop-color:#9EB644"/>
	<stop  offset="1" style="stop-color:#738611"/>
</linearGradient>
<path style="fill:url(#SVGID_19_);" d="M150.848,498.252c0,4.855-0.919,9.489-2.595,13.748h-69.92
	c-1.677-4.259-2.595-8.893-2.595-13.748c0-4.727,0.871-9.248,2.468-13.412c5.398-14.123,19.073-24.142,35.087-24.142
	s29.689,10.019,35.087,24.142C149.975,489.004,150.848,493.524,150.848,498.252z"/>
<g>
</g>
<g>
</g>
<g>
</g>
<g>
</g>
<g>
</g>
<g>
</g>
<g>
</g>
<g>
</g>
<g>
</g>
<g>
</g>
<g>
</g>
<g>
</g>
<g>
</g>
<g>
</g>
<g>
</g>
</svg>
