<?xml version="1.0" encoding="iso-8859-1"?>
<!-- Generator: Adobe Illustrator 19.0.0, SVG Export Plug-In . SVG Version: 6.00 Build 0)  -->
<svg version="1.1" id="Capa_1" xmlns="http://www.w3.org/2000/svg" xmlns:xlink="http://www.w3.org/1999/xlink" x="0px" y="0px"
	 viewBox="0 0 512 512" style="enable-background:new 0 0 512 512;" xml:space="preserve">
<linearGradient id="SVGID_1_" gradientUnits="userSpaceOnUse" x1="61.5073" y1="125.1191" x2="81.6643" y2="104.9592" gradientTransform="matrix(1.0039 0 0 -1.0039 0.1922 516.5618)">
	<stop  offset="0" style="stop-color:#9EB644"/>
	<stop  offset="1" style="stop-color:#738611"/>
</linearGradient>
<circle style="fill:url(#SVGID_1_);" cx="91.558" cy="420.573" r="43.968"/>
<linearGradient id="SVGID_2_" gradientUnits="userSpaceOnUse" x1="30.5921" y1="77.735" x2="77.7501" y2="30.575" gradientTransform="matrix(1.0039 0 0 -1.0039 0.1922 516.5618)">
	<stop  offset="0" style="stop-color:#9EB644"/>
	<stop  offset="1" style="stop-color:#738611"/>
</linearGradient>
<path style="fill:url(#SVGID_2_);" d="M0,461.363c0,6.564,1.242,12.828,3.509,18.585h94.517c2.267-5.757,3.509-12.021,3.509-18.585
	c0-6.391-1.179-12.502-3.336-18.131c-7.298-19.092-25.783-32.635-47.43-32.635S10.634,424.14,3.336,443.232
	C1.179,448.862,0,454.972,0,461.363z"/>
<linearGradient id="SVGID_3_" gradientUnits="userSpaceOnUse" x1="409.4094" y1="437.9942" x2="451.0894" y2="396.3142" gradientTransform="matrix(1.0039 0 0 -1.0039 0.1922 516.5618)">
	<stop  offset="0" style="stop-color:#E2EDF2"/>
	<stop  offset="1" style="stop-color:#9FC7E2"/>
</linearGradient>
<path style="fill:url(#SVGID_3_);" d="M468.928,72.92c0-10.125-8.207-18.332-18.332-18.332c-3.304,0-6.396,0.886-9.072,2.415
	c-5.421-4.543-12.405-7.281-20.031-7.281c-17.238,0-31.212,13.974-31.212,31.212c0,4.166,0.823,8.139,2.304,11.773
	c-6.336,2.808-10.761,9.142-10.761,16.518c0,9.98,8.091,18.071,18.071,18.071c9.063,0,16.547-6.68,17.849-15.381
	c1.23,0.148,2.479,0.232,3.749,0.232c13.628,0,25.208-8.737,29.464-20.914C460.913,91.039,468.928,82.922,468.928,72.92z"/>
<linearGradient id="SVGID_4_" gradientUnits="userSpaceOnUse" x1="437.9101" y1="487.315" x2="457.7201" y2="467.505" gradientTransform="matrix(1.0039 0 0 -1.0039 0.1922 516.5618)">
	<stop  offset="0" style="stop-color:#E2EDF2"/>
	<stop  offset="1" style="stop-color:#9FC7E2"/>
</linearGradient>
<circle style="fill:url(#SVGID_4_);" cx="443.573" cy="31.089" r="15.32"/>
<linearGradient id="SVGID_5_" gradientUnits="userSpaceOnUse" x1="424.58" y1="379.472" x2="400.58" y2="355.472" gradientTransform="matrix(1.0039 0 0 -1.0039 0.1922 516.5618)">
	<stop  offset="0" style="stop-color:#816965"/>
	<stop  offset="1" style="stop-color:#654E48"/>
</linearGradient>
<path style="fill:url(#SVGID_5_);" d="M428.731,203.701h-55.715v-80.277c0-6.394,5.183-11.578,11.578-11.578h32.559
	c6.394,0,11.578,5.183,11.578,11.578L428.731,203.701L428.731,203.701z"/>
<linearGradient id="SVGID_6_" gradientUnits="userSpaceOnUse" x1="254.8336" y1="69.2135" x2="254.8336" y2="20.5935" gradientTransform="matrix(1.0039 0 0 -1.0039 0.1922 516.5618)">
	<stop  offset="0" style="stop-color:#654E48"/>
	<stop  offset="1" style="stop-color:#503837"/>
</linearGradient>
<path style="fill:url(#SVGID_6_);" d="M441.726,459.503v4.096c0,6.616-3.925,12.308-9.577,14.888
	c-2.058,0.944-4.357,1.466-6.776,1.466H86.669c-9.025,0-16.344-7.319-16.344-16.354v-4.096c0-9.025,7.319-16.344,16.344-16.344
	h338.703c2.419,0,4.718,0.522,6.776,1.466C437.8,447.205,441.726,452.898,441.726,459.503z"/>
<linearGradient id="SVGID_7_" gradientUnits="userSpaceOnUse" x1="424.0129" y1="110.8052" x2="-0.7571" y2="62.1851" gradientTransform="matrix(1.0039 0 0 -1.0039 0.1922 516.5618)">
	<stop  offset="0" style="stop-color:#816965"/>
	<stop  offset="1" style="stop-color:#654E48"/>
</linearGradient>
<path style="fill:url(#SVGID_7_);" d="M432.178,416.034v17.458c0,0.251-0.01,0.502-0.03,0.743c-0.382,4.99-4.548,8.925-9.638,8.925
	H89.54c-5.341,0-9.668-4.327-9.668-9.668v-17.458c0-5.341,4.327-9.668,9.668-9.668H422.51c5.09,0,9.256,3.935,9.638,8.925
	C432.168,415.532,432.178,415.783,432.178,416.034z"/>
<linearGradient id="SVGID_8_" gradientUnits="userSpaceOnUse" x1="254.8336" y1="142.5135" x2="254.8336" y2="93.8935" gradientTransform="matrix(1.0039 0 0 -1.0039 0.1922 516.5618)">
	<stop  offset="0" style="stop-color:#654E48"/>
	<stop  offset="1" style="stop-color:#503837"/>
</linearGradient>
<path style="fill:url(#SVGID_8_);" d="M441.726,385.916v4.096c0,6.616-3.925,12.308-9.577,14.888
	c-2.058,0.944-4.357,1.466-6.776,1.466H86.669c-9.025,0-16.344-7.319-16.344-16.354v-4.096c0-9.025,7.319-16.344,16.344-16.344
	h338.703c2.419,0,4.718,0.522,6.776,1.466C437.8,373.618,441.726,379.31,441.726,385.916z"/>
<linearGradient id="SVGID_9_" gradientUnits="userSpaceOnUse" x1="424.013" y1="184.114" x2="-0.757" y2="135.4841" gradientTransform="matrix(1.0039 0 0 -1.0039 0.1922 516.5618)">
	<stop  offset="0" style="stop-color:#816965"/>
	<stop  offset="1" style="stop-color:#654E48"/>
</linearGradient>
<path style="fill:url(#SVGID_9_);" d="M432.178,342.436v17.468c0,0.251-0.01,0.502-0.03,0.743c-0.382,4.989-4.548,8.925-9.638,8.925
	H89.54c-5.341,0-9.668-4.337-9.668-9.668v-17.468c0-5.331,4.327-9.668,9.668-9.668H422.51c5.09,0,9.256,3.935,9.638,8.925
	C432.168,341.934,432.178,342.185,432.178,342.436z"/>
<linearGradient id="SVGID_10_" gradientUnits="userSpaceOnUse" x1="254.8336" y1="215.8235" x2="254.8336" y2="167.2035" gradientTransform="matrix(1.0039 0 0 -1.0039 0.1922 516.5618)">
	<stop  offset="0" style="stop-color:#654E48"/>
	<stop  offset="1" style="stop-color:#503837"/>
</linearGradient>
<path style="fill:url(#SVGID_10_);" d="M441.726,312.329v4.096c0,6.606-3.925,12.298-9.577,14.878
	c-2.058,0.944-4.357,1.466-6.776,1.466H86.669c-9.025,0-16.344-7.319-16.344-16.344v-4.096c0-9.035,7.319-16.354,16.344-16.354
	h338.703c2.419,0,4.718,0.522,6.776,1.466C437.8,300.02,441.726,305.713,441.726,312.329z"/>
<linearGradient id="SVGID_11_" gradientUnits="userSpaceOnUse" x1="424.0129" y1="257.4151" x2="-0.7571" y2="208.7951" gradientTransform="matrix(1.0039 0 0 -1.0039 0.1922 516.5618)">
	<stop  offset="0" style="stop-color:#816965"/>
	<stop  offset="1" style="stop-color:#654E48"/>
</linearGradient>
<path style="fill:url(#SVGID_11_);" d="M432.178,268.849v17.458c0,0.251-0.01,0.502-0.03,0.743c-0.382,4.99-4.548,8.925-9.638,8.925
	H89.54c-5.341,0-9.668-4.327-9.668-9.668v-17.458c0-5.341,4.327-9.668,9.668-9.668H422.51c5.09,0,9.256,3.935,9.638,8.925
	C432.168,268.347,432.178,268.598,432.178,268.849z"/>
<linearGradient id="SVGID_12_" gradientUnits="userSpaceOnUse" x1="254.8336" y1="289.1235" x2="254.8336" y2="240.5035" gradientTransform="matrix(1.0039 0 0 -1.0039 0.1922 516.5618)">
	<stop  offset="0" style="stop-color:#654E48"/>
	<stop  offset="1" style="stop-color:#503837"/>
</linearGradient>
<path style="fill:url(#SVGID_12_);" d="M441.726,238.741v4.096c0,6.606-3.925,12.298-9.577,14.878
	c-2.058,0.944-4.357,1.466-6.776,1.466H86.669c-9.025,0-16.344-7.319-16.344-16.344v-4.096c0-6.596,3.905-12.288,9.527-14.868
	c2.078-0.954,4.387-1.486,6.817-1.486h338.703c2.419,0,4.718,0.522,6.776,1.466C437.8,226.433,441.726,232.125,441.726,238.741z"/>
<linearGradient id="SVGID_13_" gradientUnits="userSpaceOnUse" x1="424.1248" y1="329.7379" x2="-0.6452" y2="281.1179" gradientTransform="matrix(1.0039 0 0 -1.0039 0.1922 516.5618)">
	<stop  offset="0" style="stop-color:#816965"/>
	<stop  offset="1" style="stop-color:#654E48"/>
</linearGradient>
<path style="fill:url(#SVGID_13_);" d="M432.178,212.719c0,0.311-0.01,0.612-0.04,0.914c-0.462,4.909-4.598,8.754-9.628,8.754H89.54
	c-5.16,0-9.377-4.046-9.658-9.136v-0.03c-0.01-0.171-0.01-0.331-0.01-0.502c0-1.275,0.251-2.52,0.733-3.684
	c0.472-1.155,1.175-2.219,2.078-3.122l0.462-0.472c0.02-0.01,0.03-0.02,0.04-0.04l16.856-16.956
	c1.807-1.817,4.277-2.851,6.857-2.851h298.255c2.419,0,4.749,0.914,6.515,2.54c0.12,0.09,0.231,0.201,0.341,0.311l17.358,17.468
	C431.164,207.72,432.178,210.169,432.178,212.719z"/>
<linearGradient id="SVGID_14_" gradientUnits="userSpaceOnUse" x1="424.2488" y1="365.3041" x2="-0.5212" y2="316.6841" gradientTransform="matrix(1.0039 0 0 -1.0039 0.1922 516.5618)">
	<stop  offset="0" style="stop-color:#816965"/>
	<stop  offset="1" style="stop-color:#654E48"/>
</linearGradient>
<polygon style="fill:url(#SVGID_14_);" points="409.178,185.596 102.872,185.596 139.445,148.803 372.605,148.803 "/>
<linearGradient id="SVGID_15_" gradientUnits="userSpaceOnUse" x1="424.249" y1="401.9622" x2="-0.521" y2="353.3322" gradientTransform="matrix(1.0039 0 0 -1.0039 0.1922 516.5618)">
	<stop  offset="0" style="stop-color:#816965"/>
	<stop  offset="1" style="stop-color:#654E48"/>
</linearGradient>
<polygon style="fill:url(#SVGID_15_);" points="372.605,148.803 139.445,148.803 176.028,111.999 336.013,111.999 "/>
<linearGradient id="SVGID_16_" gradientUnits="userSpaceOnUse" x1="424.2488" y1="438.6147" x2="-0.5212" y2="389.9947" gradientTransform="matrix(1.0039 0 0 -1.0039 0.1922 516.5618)">
	<stop  offset="0" style="stop-color:#816965"/>
	<stop  offset="1" style="stop-color:#654E48"/>
</linearGradient>
<polygon style="fill:url(#SVGID_16_);" points="336.013,111.999 176.028,111.999 212.6,75.205 299.44,75.205 "/>
<linearGradient id="SVGID_17_" gradientUnits="userSpaceOnUse" x1="424.2488" y1="475.2647" x2="-0.5212" y2="426.6447" gradientTransform="matrix(1.0039 0 0 -1.0039 0.1922 516.5618)">
	<stop  offset="0" style="stop-color:#816965"/>
	<stop  offset="1" style="stop-color:#654E48"/>
</linearGradient>
<polygon style="fill:url(#SVGID_17_);" points="299.44,75.205 212.6,75.205 249.173,38.412 262.867,38.412 "/>
<linearGradient id="SVGID_18_" gradientUnits="userSpaceOnUse" x1="432.429" y1="84.1839" x2="501.0991" y2="15.5139" gradientTransform="matrix(1.0039 0 0 -1.0039 0.1922 516.5618)">
	<stop  offset="0" style="stop-color:#9EB644"/>
	<stop  offset="1" style="stop-color:#738611"/>
</linearGradient>
<path style="fill:url(#SVGID_18_);" d="M408.458,460.995c0,6.693,1.267,13.081,3.578,18.952h96.387
	c2.311-5.871,3.578-12.259,3.578-18.952c0-6.517-1.202-12.749-3.402-18.489c-7.442-19.47-26.293-33.281-48.369-33.281
	s-40.927,13.812-48.369,33.281C409.66,448.246,408.458,454.478,408.458,460.995z"/>
<linearGradient id="SVGID_19_" gradientUnits="userSpaceOnUse" x1="396.6689" y1="66.5138" x2="444.049" y2="19.1438" gradientTransform="matrix(1.0039 0 0 -1.0039 0.1922 516.5618)">
	<stop  offset="0" style="stop-color:#9EB644"/>
	<stop  offset="1" style="stop-color:#738611"/>
</linearGradient>
<path style="fill:url(#SVGID_19_);" d="M375.074,466.2c0,4.855,0.919,9.489,2.595,13.748h69.919
	c1.677-4.259,2.595-8.893,2.595-13.748c0-4.727-0.871-9.248-2.468-13.412c-5.398-14.123-19.072-24.142-35.087-24.142
	s-29.689,10.019-35.087,24.142C375.946,456.951,375.074,461.472,375.074,466.2z"/>
<linearGradient id="SVGID_20_" gradientUnits="userSpaceOnUse" x1="284.9221" y1="262.0269" x2="131.3721" y2="415.577" gradientTransform="matrix(1.0039 0 0 -1.0039 0.1922 516.5618)">
	<stop  offset="0" style="stop-color:#654E48;stop-opacity:0"/>
	<stop  offset="1" style="stop-color:#503837"/>
</linearGradient>
<path style="fill:url(#SVGID_20_);" d="M425.372,259.181h-2.861c5.09,0,9.256,3.935,9.638,8.925v18.944
	c-0.382,4.99-4.548,8.925-9.638,8.925h2.861c2.419,0,4.718,0.522,6.776,1.466v33.862c-2.058,0.944-4.357,1.466-6.776,1.466h-2.861
	c5.09,0,9.256,3.935,9.638,8.925v18.954c-0.382,4.989-4.548,8.925-9.638,8.925h2.861c2.419,0,4.718,0.522,6.776,1.466V404.9
	c-2.058,0.944-4.357,1.466-6.776,1.466h-2.861c5.09,0,9.256,3.935,9.638,8.925v18.944c-0.382,4.99-4.548,8.925-9.638,8.925h2.861
	c2.419,0,4.718,0.522,6.776,1.466v35.328H320.924L79.852,238.882v-15.009c2.078-0.954,4.387-1.486,6.817-1.486h2.871
	c-5.16,0-9.377-4.046-9.658-9.136v-0.03c0.191-2.891,1.345-5.622,3.263-7.78c0.02-0.01,0.03-0.02,0.04-0.04
	c0.141-0.151,0.291-0.311,0.442-0.462L256,31.522l6.847,6.887l73.146,73.587l36.583,36.804l36.573,36.794l2.52,2.54l16.705,16.806
	c2.309,2.319,3.644,5.421,3.765,8.694c-0.462,4.909-4.598,8.754-9.628,8.754h2.861c2.419,0,4.718,0.522,6.776,1.466v33.862
	C430.09,258.659,427.791,259.181,425.372,259.181z"/>
<linearGradient id="SVGID_21_" gradientUnits="userSpaceOnUse" x1="323.9987" y1="215.5136" x2="140.5287" y2="398.9736" gradientTransform="matrix(1.0039 0 0 -1.0039 0.1922 516.5618)">
	<stop  offset="0" style="stop-color:#654E48;stop-opacity:0"/>
	<stop  offset="1" style="stop-color:#503837"/>
</linearGradient>
<path style="fill:url(#SVGID_21_);" d="M436.763,291.347L265.574,120.158c-1.489-3.84-5.209-6.566-9.574-6.566
	c-5.675,0-10.276,4.601-10.276,10.276v3.112c-2.325,1.123-4.513,2.624-6.441,4.553l-94.684,94.684
	c-4.088,4.087-4.013,10.761,0.227,14.753l256.402,255.261h35.536L436.763,291.347L436.763,291.347z"/>
<linearGradient id="SVGID_22_" gradientUnits="userSpaceOnUse" x1="254.8086" y1="344.8235" x2="254.8086" y2="162.5135" gradientTransform="matrix(1.0039 0 0 -1.0039 0.1922 516.5618)">
	<stop  offset="0" style="stop-color:#F4CA3E"/>
	<stop  offset="1" style="stop-color:#DB9E36"/>
</linearGradient>
<path style="fill:url(#SVGID_22_);" d="M477.629,243.106L266.902,32.311c-6.006-6.006-15.745-6.006-21.751,0L34.371,243.089
	c-3.929,3.929-3.929,10.3,0,14.23l8.983,8.983c3.929,3.929,10.3,3.929,14.23,0L253.163,70.725c1.581-1.581,4.145-1.581,5.726,0
	l195.527,195.594c3.929,3.929,10.3,3.929,14.23,0l8.983-8.983C481.558,253.406,481.558,247.035,477.629,243.106z"/>
<linearGradient id="SVGID_23_" gradientUnits="userSpaceOnUse" x1="372.9702" y1="355.9356" x2="168.9801" y2="501.4256" gradientTransform="matrix(1.0039 0 0 -1.0039 0.1922 516.5618)">
	<stop  offset="0" style="stop-color:#DB9E36;stop-opacity:0"/>
	<stop  offset="1" style="stop-color:#9E6429"/>
</linearGradient>
<path style="fill:url(#SVGID_23_);" d="M266.902,32.311c-3.004-3.004-6.939-4.505-10.875-4.505v41.733
	c1.036,0,2.073,0.396,2.863,1.186l195.527,195.594c3.929,3.929,10.3,3.929,14.23,0l8.983-8.983c3.929-3.929,3.929-10.3,0-14.23
	L266.902,32.311z"/>
<polygon style="fill:#503837;" points="169.678,219.782 256,133.46 342.322,219.782 "/>
<linearGradient id="SVGID_24_" gradientUnits="userSpaceOnUse" x1="254.8086" y1="284.0195" x2="254.8086" y2="401.3955" gradientTransform="matrix(1.0039 0 0 -1.0039 0.1922 516.5618)">
	<stop  offset="0" style="stop-color:#F4CA3E"/>
	<stop  offset="1" style="stop-color:#DB9E36"/>
</linearGradient>
<path style="fill:url(#SVGID_24_);" d="M256,231.429c-5.675,0-10.276-4.601-10.276-10.276v-97.284
	c0-5.675,4.601-10.276,10.276-10.276c5.675,0,10.276,4.601,10.276,10.276v97.284C266.276,226.828,261.675,231.429,256,231.429z"/>
<linearGradient id="SVGID_25_" gradientUnits="userSpaceOnUse" x1="254.8086" y1="301.7625" x2="254.8086" y2="281.2905" gradientTransform="matrix(1.0039 0 0 -1.0039 0.1922 516.5618)">
	<stop  offset="0" style="stop-color:#F4CA3E"/>
	<stop  offset="1" style="stop-color:#DB9E36"/>
</linearGradient>
<path style="fill:url(#SVGID_25_);" d="M166.937,213.616h178.126c5.675,0,10.276,4.601,10.276,10.276s-4.601,10.276-10.276,10.276
	H166.937c-5.675,0-10.276-4.601-10.276-10.276S161.262,213.616,166.937,213.616z"/>
<linearGradient id="SVGID_26_" gradientUnits="userSpaceOnUse" x1="254.8087" y1="271.7355" x2="254.8087" y2="390.4202" gradientTransform="matrix(1.0039 0 0 -1.0039 0.1922 516.5618)">
	<stop  offset="0" style="stop-color:#F4CA3E"/>
	<stop  offset="1" style="stop-color:#DB9E36"/>
</linearGradient>
<path style="fill:url(#SVGID_26_);" d="M360.135,243.761c-2.63,0-5.26-1.004-7.266-3.01l-88.988-88.988
	c-4.352-4.352-11.409-4.352-15.762,0l-88.682,88.682c-3.979,3.979-10.515,4.383-14.611,0.526
	c-4.239-3.992-4.315-10.666-0.227-14.753l94.684-94.684c9.233-9.233,24.203-9.233,33.435,0l94.684,94.684
	c4.014,4.013,4.014,10.52,0,14.533C365.395,242.757,362.765,243.761,360.135,243.761z"/>
<linearGradient id="SVGID_27_" gradientUnits="userSpaceOnUse" x1="384.0113" y1="307.1498" x2="10.8513" y2="423.4998" gradientTransform="matrix(1.0039 0 0 -1.0039 0.1922 516.5618)">
	<stop  offset="0" style="stop-color:#DB9E36;stop-opacity:0"/>
	<stop  offset="1" style="stop-color:#9E6429"/>
</linearGradient>
<path style="fill:url(#SVGID_27_);" d="M367.397,240.746c-2.001,2.014-4.631,3.015-7.262,3.015c-2.63,0-5.262-1-7.262-3.015
	l-86.596-86.583V126.95c2.329,1.123,4.508,2.644,6.44,4.577l94.681,94.694C371.412,230.237,371.412,236.731,367.397,240.746z"/>
<path style="fill:#503837;" d="M293.697,332.145v147.807h-75.395V332.145c0-8.714,7.068-15.782,15.782-15.782h43.831
	C286.63,316.363,293.697,323.431,293.697,332.145z"/>
<linearGradient id="SVGID_28_" gradientUnits="userSpaceOnUse" x1="151.8996" y1="316.0124" x2="245.5796" y2="133.7024" gradientTransform="matrix(1.0039 0 0 -1.0039 0.1922 516.5618)">
	<stop  offset="0" style="stop-color:#F4CA3E"/>
	<stop  offset="1" style="stop-color:#DB9E36"/>
</linearGradient>
<path style="fill:url(#SVGID_28_);" d="M303.024,325.178v154.775h-18.663V337.526c0-6.505-5.321-11.826-11.826-11.826h-33.069
	c-6.525,0-11.826,5.291-11.826,11.826v142.426h-18.663V325.178c0-10.019,8.122-18.151,18.151-18.151h57.746
	C294.902,307.027,303.024,315.159,303.024,325.178z"/>
<circle style="fill:#FFFFFF;" cx="242.628" cy="390.536" r="8.511"/>
<g>
</g>
<g>
</g>
<g>
</g>
<g>
</g>
<g>
</g>
<g>
</g>
<g>
</g>
<g>
</g>
<g>
</g>
<g>
</g>
<g>
</g>
<g>
</g>
<g>
</g>
<g>
</g>
<g>
</g>
</svg>
