<?xml version="1.0" encoding="iso-8859-1"?>
<!-- Generator: Adobe Illustrator 19.0.0, SVG Export Plug-In . SVG Version: 6.00 Build 0)  -->
<svg version="1.1" id="Capa_1" xmlns="http://www.w3.org/2000/svg" xmlns:xlink="http://www.w3.org/1999/xlink" x="0px" y="0px"
	 viewBox="0 0 512 512" style="enable-background:new 0 0 512 512;" xml:space="preserve">
<linearGradient id="SVGID_1_" gradientUnits="userSpaceOnUse" x1="73.7425" y1="140.9859" x2="97.8915" y2="116.8459" gradientTransform="matrix(1.0039 0 0 -1.0039 0.1922 516.5608)">
	<stop  offset="0" style="stop-color:#9EB644"/>
	<stop  offset="1" style="stop-color:#738611"/>
</linearGradient>
<circle style="fill:url(#SVGID_1_);" cx="109.719" cy="410.504" r="52.686"/>
<linearGradient id="SVGID_2_" gradientUnits="userSpaceOnUse" x1="36.6971" y1="84.2145" x2="93.2101" y2="27.7045" gradientTransform="matrix(1.0039 0 0 -1.0039 0.1922 516.5608)">
	<stop  offset="0" style="stop-color:#9EB644"/>
	<stop  offset="1" style="stop-color:#738611"/>
</linearGradient>
<path style="fill:url(#SVGID_2_);" d="M0,459.385c0,7.865,1.488,15.372,4.204,22.27h113.262c2.716-6.898,4.204-14.405,4.204-22.27
	c0-7.659-1.413-14.981-3.998-21.727c-8.745-22.878-30.896-39.109-56.837-39.109s-48.094,16.23-56.839,39.109
	C1.413,444.405,0,451.727,0,459.385z"/>
<linearGradient id="SVGID_3_" gradientUnits="userSpaceOnUse" x1="254.8336" y1="67.513" x2="254.8336" y2="18.893" gradientTransform="matrix(1.0039 0 0 -1.0039 0.1922 516.5608)">
	<stop  offset="0" style="stop-color:#F4CA3E"/>
	<stop  offset="1" style="stop-color:#DB9E36"/>
</linearGradient>
<rect x="79.872" y="444.868" style="fill:url(#SVGID_3_);" width="352.306" height="36.795"/>
<linearGradient id="SVGID_4_" gradientUnits="userSpaceOnUse" x1="254.8336" y1="104.173" x2="254.8336" y2="55.543" gradientTransform="matrix(1.0039 0 0 -1.0039 0.1922 516.5608)">
	<stop  offset="0" style="stop-color:#F4CA3E"/>
	<stop  offset="1" style="stop-color:#DB9E36"/>
</linearGradient>
<rect x="79.872" y="408.074" style="fill:url(#SVGID_4_);" width="352.306" height="36.795"/>
<linearGradient id="SVGID_5_" gradientUnits="userSpaceOnUse" x1="254.8336" y1="140.823" x2="254.8336" y2="92.193" gradientTransform="matrix(1.0039 0 0 -1.0039 0.1922 516.5608)">
	<stop  offset="0" style="stop-color:#F4CA3E"/>
	<stop  offset="1" style="stop-color:#DB9E36"/>
</linearGradient>
<rect x="79.872" y="371.27" style="fill:url(#SVGID_5_);" width="352.306" height="36.795"/>
<linearGradient id="SVGID_6_" gradientUnits="userSpaceOnUse" x1="254.8336" y1="177.473" x2="254.8336" y2="128.843" gradientTransform="matrix(1.0039 0 0 -1.0039 0.1922 516.5608)">
	<stop  offset="0" style="stop-color:#F4CA3E"/>
	<stop  offset="1" style="stop-color:#DB9E36"/>
</linearGradient>
<rect x="79.872" y="334.477" style="fill:url(#SVGID_6_);" width="352.306" height="36.795"/>
<linearGradient id="SVGID_7_" gradientUnits="userSpaceOnUse" x1="254.8336" y1="214.123" x2="254.8336" y2="165.503" gradientTransform="matrix(1.0039 0 0 -1.0039 0.1922 516.5608)">
	<stop  offset="0" style="stop-color:#F4CA3E"/>
	<stop  offset="1" style="stop-color:#DB9E36"/>
</linearGradient>
<rect x="79.872" y="297.683" style="fill:url(#SVGID_7_);" width="352.306" height="36.795"/>
<linearGradient id="SVGID_8_" gradientUnits="userSpaceOnUse" x1="254.8336" y1="250.773" x2="254.8336" y2="202.153" gradientTransform="matrix(1.0039 0 0 -1.0039 0.1922 516.5608)">
	<stop  offset="0" style="stop-color:#F4CA3E"/>
	<stop  offset="1" style="stop-color:#DB9E36"/>
</linearGradient>
<rect x="79.872" y="260.889" style="fill:url(#SVGID_8_);" width="352.306" height="36.795"/>
<linearGradient id="SVGID_9_" gradientUnits="userSpaceOnUse" x1="254.8336" y1="287.423" x2="254.8336" y2="238.803" gradientTransform="matrix(1.0039 0 0 -1.0039 0.1922 516.5608)">
	<stop  offset="0" style="stop-color:#F4CA3E"/>
	<stop  offset="1" style="stop-color:#DB9E36"/>
</linearGradient>
<rect x="79.872" y="224.095" style="fill:url(#SVGID_9_);" width="352.306" height="36.795"/>
<linearGradient id="SVGID_10_" gradientUnits="userSpaceOnUse" x1="254.8336" y1="324.073" x2="254.8336" y2="275.453" gradientTransform="matrix(1.0039 0 0 -1.0039 0.1922 516.5608)">
	<stop  offset="0" style="stop-color:#F4CA3E"/>
	<stop  offset="1" style="stop-color:#DB9E36"/>
</linearGradient>
<polygon style="fill:url(#SVGID_10_);" points="432.178,210.445 432.178,224.098 79.872,224.098 79.872,210.445 102.872,187.305 
	409.178,187.305 "/>
<linearGradient id="SVGID_11_" gradientUnits="userSpaceOnUse" x1="254.8336" y1="360.723" x2="254.8336" y2="312.103" gradientTransform="matrix(1.0039 0 0 -1.0039 0.1922 516.5608)">
	<stop  offset="0" style="stop-color:#F4CA3E"/>
	<stop  offset="1" style="stop-color:#DB9E36"/>
</linearGradient>
<polygon style="fill:url(#SVGID_11_);" points="409.178,187.305 102.872,187.305 139.445,150.511 372.605,150.511 "/>
<linearGradient id="SVGID_12_" gradientUnits="userSpaceOnUse" x1="254.8336" y1="397.383" x2="254.8336" y2="348.743" gradientTransform="matrix(1.0039 0 0 -1.0039 0.1922 516.5608)">
	<stop  offset="0" style="stop-color:#F4CA3E"/>
	<stop  offset="1" style="stop-color:#DB9E36"/>
</linearGradient>
<polygon style="fill:url(#SVGID_12_);" points="372.605,150.511 139.445,150.511 176.028,113.707 336.013,113.707 "/>
<linearGradient id="SVGID_13_" gradientUnits="userSpaceOnUse" x1="254.8286" y1="434.033" x2="254.8286" y2="385.413" gradientTransform="matrix(1.0039 0 0 -1.0039 0.1922 516.5608)">
	<stop  offset="0" style="stop-color:#F4CA3E"/>
	<stop  offset="1" style="stop-color:#DB9E36"/>
</linearGradient>
<polygon style="fill:url(#SVGID_13_);" points="336.013,113.707 176.028,113.707 212.6,76.913 299.44,76.913 "/>
<linearGradient id="SVGID_14_" gradientUnits="userSpaceOnUse" x1="254.8286" y1="470.682" x2="254.8286" y2="422.063" gradientTransform="matrix(1.0039 0 0 -1.0039 0.1922 516.5608)">
	<stop  offset="0" style="stop-color:#F4CA3E"/>
	<stop  offset="1" style="stop-color:#DB9E36"/>
</linearGradient>
<polygon style="fill:url(#SVGID_14_);" points="299.44,76.913 212.6,76.913 249.173,40.12 262.867,40.12 "/>
<linearGradient id="SVGID_15_" gradientUnits="userSpaceOnUse" x1="246.7773" y1="298.4917" x2="93.2273" y2="452.0417" gradientTransform="matrix(1.0039 0 0 -1.0039 0.1922 516.5608)">
	<stop  offset="0" style="stop-color:#DB9E36;stop-opacity:0"/>
	<stop  offset="1" style="stop-color:#9E6429"/>
</linearGradient>
<polygon style="fill:url(#SVGID_15_);" points="432.175,210.446 432.175,481.66 320.943,481.66 79.873,240.591 79.873,210.446 
	256.024,33.229 "/>
<linearGradient id="SVGID_16_" gradientUnits="userSpaceOnUse" x1="335.7005" y1="241.1349" x2="178.8805" y2="397.9549" gradientTransform="matrix(1.0039 0 0 -1.0039 0.1922 516.5608)">
	<stop  offset="0" style="stop-color:#DB9E36;stop-opacity:0"/>
	<stop  offset="1" style="stop-color:#9E6429"/>
</linearGradient>
<path style="fill:url(#SVGID_16_);" d="M432.175,454.054V284.474L295.209,147.508c-9.583-10.88-23.604-17.765-39.209-17.765
	c-28.817,0-52.259,23.444-52.259,52.259v38.432c0,5.02,2.698,9.41,6.709,11.832l221.591,221.591
	C432.082,453.926,432.133,453.986,432.175,454.054z"/>
<path style="fill:#654E48;" d="M294.433,225.923h-76.865c-3.031,0-5.487-2.457-5.487-5.487v-38.433
	c0-24.257,19.664-43.921,43.921-43.921l0,0c24.257,0,43.921,19.664,43.921,43.921v38.433
	C299.921,223.466,297.463,225.923,294.433,225.923z"/>
<path style="fill:#E2EDF2;" d="M256,129.743c-28.816,0-52.259,23.444-52.259,52.259v38.432c0,7.625,6.202,13.827,13.827,13.827
	h76.865c7.625,0,13.827-6.202,13.827-13.827v-38.432C308.259,153.186,284.817,129.743,256,129.743z M291.293,177.556H264.34v-30.137
	C278.542,150.844,289.445,162.808,291.293,177.556z M247.66,147.419v30.137h-26.953C222.555,162.808,233.457,150.844,247.66,147.419
	z M220.419,194.234h27.241v23.35h-27.241V194.234z M264.34,217.584v-23.35h27.241v23.35H264.34z"/>
<linearGradient id="SVGID_17_" gradientUnits="userSpaceOnUse" x1="328.49" y1="63.6544" x2="240.53" y2="151.6244" gradientTransform="matrix(1.0039 0 0 -1.0039 0.1922 516.5608)">
	<stop  offset="0" style="stop-color:#DB9E36;stop-opacity:0"/>
	<stop  offset="1" style="stop-color:#9E6429"/>
</linearGradient>
<path style="fill:url(#SVGID_17_);" d="M432.175,444.866v-36.795v-36.795v-4.69L343.04,277.45c-2.328-2.328-6.104-2.328-8.432,0
	l-179.841,179.84c-2.328,2.328-2.328,6.104,0,8.432l15.939,15.939h261.468V444.866z"/>
<linearGradient id="SVGID_18_" gradientUnits="userSpaceOnUse" x1="254.8086" y1="191.543" x2="254.8086" y2="-64.847" gradientTransform="matrix(1.0039 0 0 -1.0039 0.1922 516.5608)">
	<stop  offset="0" style="stop-color:#816965"/>
	<stop  offset="1" style="stop-color:#654E48"/>
</linearGradient>
<rect x="150.588" y="283.497" style="fill:url(#SVGID_18_);" width="210.824" height="198.164"/>
<path style="fill:#503837;" d="M371.953,293.72v187.944h-21.082V293.72c0-0.371-0.311-0.683-0.683-0.683H161.812
	c-0.371,0-0.683,0.311-0.683,0.683v187.944h-21.082V293.72c0-11.997,9.768-21.765,21.765-21.765h188.376
	C362.185,271.955,371.953,281.723,371.953,293.72z"/>
<linearGradient id="SVGID_19_" gradientUnits="userSpaceOnUse" x1="260.5201" y1="143.0515" x2="236.0501" y2="118.5815" gradientTransform="matrix(1.0039 0 0 -1.0039 0.1922 516.5608)">
	<stop  offset="0" style="stop-color:#654E48"/>
	<stop  offset="1" style="stop-color:#503837"/>
</linearGradient>
<path style="fill:url(#SVGID_19_);" d="M154.768,300.074l179.84,179.841c2.328,2.328,6.104,2.328,8.432,0l14.192-14.192
	c2.328-2.328,2.328-6.104,0-8.432L177.392,277.45c-2.328-2.328-6.104-2.328-8.432,0l-14.192,14.192
	C152.439,293.97,152.439,297.746,154.768,300.074z"/>
<linearGradient id="SVGID_20_" gradientUnits="userSpaceOnUse" x1="311.5371" y1="80.6115" x2="241.1271" y2="151.0215" gradientTransform="matrix(1.0039 0 0 -1.0039 0.1922 516.5608)">
	<stop  offset="0" style="stop-color:#654E48;stop-opacity:0"/>
	<stop  offset="1" style="stop-color:#503837"/>
</linearGradient>
<path style="fill:url(#SVGID_20_);" d="M371.953,306.36v175.305H170.707l-15.942-15.942c-2.329-2.329-2.329-6.104,0-8.433
	l164.252-164.252l15.591-15.591c2.329-2.329,6.104-2.329,8.433,0L371.953,306.36z"/>
<linearGradient id="SVGID_21_" gradientUnits="userSpaceOnUse" x1="249.0971" y1="143.0515" x2="273.5671" y2="118.5815" gradientTransform="matrix(1.0039 0 0 -1.0039 0.1922 516.5608)">
	<stop  offset="0" style="stop-color:#654E48"/>
	<stop  offset="1" style="stop-color:#503837"/>
</linearGradient>
<path style="fill:url(#SVGID_21_);" d="M177.392,479.915l179.84-179.841c2.328-2.328,2.328-6.104,0-8.432L343.04,277.45
	c-2.328-2.328-6.104-2.328-8.432,0l-179.841,179.84c-2.328,2.328-2.328,6.104,0,8.432l14.192,14.193
	C171.289,482.243,175.064,482.243,177.392,479.915z"/>
<linearGradient id="SVGID_22_" gradientUnits="userSpaceOnUse" x1="254.8096" y1="461.133" x2="254.8096" y2="182.403" gradientTransform="matrix(1.0039 0 0 -1.0039 0.1922 516.5608)">
	<stop  offset="0" style="stop-color:#FF5D00"/>
	<stop  offset="1" style="stop-color:#D54003"/>
</linearGradient>
<path style="fill:url(#SVGID_22_);" d="M442.634,256.299L371.89,155.624c-1.169-1.663-2.597-3.125-4.233-4.332L265.491,75.883
	c-5.642-4.164-13.34-4.164-18.982,0l-102.166,75.409c-1.635,1.207-3.064,2.669-4.233,4.332l-69.557,98.985
	c-2.977,4.236-8.823,5.257-13.059,2.28l-12.588-8.846c-4.236-2.977-5.257-8.823-2.28-13.059l72.748-103.526
	c1.169-1.663,2.597-3.125,4.233-4.332L246.51,33.46c5.642-4.164,13.34-4.164,18.982,0l126.903,93.666
	c1.635,1.207,3.064,2.669,4.233,4.332l72.748,103.526c2.977,4.236,1.956,10.082-2.28,13.059l-14.278,10.033
	C449.513,260.397,444.955,259.601,442.634,256.299z"/>
<linearGradient id="SVGID_23_" gradientUnits="userSpaceOnUse" x1="374.7589" y1="365.6148" x2="85.2989" y2="422.3348" gradientTransform="matrix(1.0039 0 0 -1.0039 0.1922 516.5608)">
	<stop  offset="0" style="stop-color:#D54003;stop-opacity:0"/>
	<stop  offset="1" style="stop-color:#A40002"/>
</linearGradient>
<path style="fill:url(#SVGID_23_);" d="M396.626,131.458c-1.169-1.663-2.597-3.126-4.233-4.332L265.491,33.459
	c-2.821-2.082-6.156-3.123-9.491-3.123v42.424c3.335,0,6.67,1.041,9.491,3.123l102.166,75.409c1.635,1.207,3.064,2.669,4.233,4.332
	l70.744,100.675c2.321,3.302,6.879,4.098,10.181,1.778l14.278-10.033c4.236-2.977,5.257-8.823,2.28-13.059L396.626,131.458z"/>
<linearGradient id="SVGID_24_" gradientUnits="userSpaceOnUse" x1="432.4295" y1="82.4839" x2="501.0995" y2="13.8039" gradientTransform="matrix(1.0039 0 0 -1.0039 0.1922 516.5608)">
	<stop  offset="0" style="stop-color:#9EB644"/>
	<stop  offset="1" style="stop-color:#738611"/>
</linearGradient>
<path style="fill:url(#SVGID_24_);" d="M408.458,462.703c0,6.693,1.267,13.081,3.578,18.952h96.387
	c2.311-5.871,3.578-12.259,3.578-18.952c0-6.517-1.202-12.749-3.402-18.489c-7.442-19.47-26.293-33.281-48.369-33.281
	s-40.927,13.812-48.369,33.281C409.66,449.955,408.458,456.186,408.458,462.703z"/>
<linearGradient id="SVGID_25_" gradientUnits="userSpaceOnUse" x1="396.669" y1="64.8134" x2="444.049" y2="17.4334" gradientTransform="matrix(1.0039 0 0 -1.0039 0.1922 516.5608)">
	<stop  offset="0" style="stop-color:#9EB644"/>
	<stop  offset="1" style="stop-color:#738611"/>
</linearGradient>
<path style="fill:url(#SVGID_25_);" d="M375.074,467.908c0,4.855,0.919,9.489,2.595,13.748h69.919
	c1.677-4.259,2.595-8.893,2.595-13.748c0-4.727-0.871-9.248-2.468-13.412c-5.398-14.123-19.072-24.142-35.087-24.142
	s-29.689,10.019-35.087,24.142C375.946,458.66,375.074,463.179,375.074,467.908z"/>
<g>
</g>
<g>
</g>
<g>
</g>
<g>
</g>
<g>
</g>
<g>
</g>
<g>
</g>
<g>
</g>
<g>
</g>
<g>
</g>
<g>
</g>
<g>
</g>
<g>
</g>
<g>
</g>
<g>
</g>
</svg>
