<?xml version="1.0" encoding="iso-8859-1"?>
<!-- Generator: Adobe Illustrator 19.0.0, SVG Export Plug-In . SVG Version: 6.00 Build 0)  -->
<svg version="1.1" id="Capa_1" xmlns="http://www.w3.org/2000/svg" xmlns:xlink="http://www.w3.org/1999/xlink" x="0px" y="0px"
	 viewBox="0 0 512 512" style="enable-background:new 0 0 512 512;" xml:space="preserve">
<g>
	<circle style="fill:#3E2E28;" cx="181.308" cy="46.871" r="10.436"/>
	<path style="fill:#3E2E28;" d="M181.313,76.989c-2.218,0-4.016-1.798-4.016-4.016v-28.11c0-2.218,1.798-4.016,4.016-4.016
		s4.016,1.798,4.016,4.016v28.11C185.329,75.191,183.531,76.989,181.313,76.989z"/>
	<path style="fill:#3E2E28;" d="M209.727,50.887h-52.204c-2.218,0-4.016-1.798-4.016-4.016s1.798-4.016,4.016-4.016h52.204
		c2.218,0,4.016,1.798,4.016,4.016S211.945,50.887,209.727,50.887z"/>
	<path style="fill:#3E2E28;" d="M201.991,58.622c-1.028,0-2.055-0.393-2.84-1.176c-1.568-1.569-1.568-4.111,0-5.679l4.896-4.896
		l-4.896-4.896c-1.568-1.569-1.568-4.111,0-5.679c1.569-1.568,4.111-1.568,5.679,0l7.736,7.736c1.568,1.569,1.568,4.111,0,5.679
		l-7.736,7.736C204.047,58.23,203.019,58.622,201.991,58.622z"/>
	<path style="fill:#3E2E28;" d="M152.9,55.51c-1.028,0-2.055-0.393-2.839-1.176c-1.569-1.568-1.569-4.111,0-5.679l1.784-1.784
		l-1.784-1.784c-1.568-1.568-1.568-4.111,0-5.679c1.568-1.568,4.111-1.568,5.679,0l4.623,4.623c1.568,1.568,1.568,4.11,0,5.678
		l-4.623,4.623C154.955,55.118,153.928,55.51,152.9,55.51z"/>
</g>
<linearGradient id="SVGID_1_" gradientUnits="userSpaceOnUse" x1="383.2486" y1="131.4012" x2="444.2486" y2="70.4012" gradientTransform="matrix(1.0039 0 0 -1.0039 0.1922 516.5573)">
	<stop  offset="0" style="stop-color:#9EB644"/>
	<stop  offset="1" style="stop-color:#738611"/>
</linearGradient>
<circle style="fill:url(#SVGID_1_);" cx="412.933" cy="412.63" r="47.566"/>
<linearGradient id="SVGID_2_" gradientUnits="userSpaceOnUse" x1="424.2397" y1="93.6223" x2="491.7497" y2="26.1023" gradientTransform="matrix(1.0039 0 0 -1.0039 0.1922 516.5573)">
	<stop  offset="0" style="stop-color:#9EB644"/>
	<stop  offset="1" style="stop-color:#738611"/>
</linearGradient>
<path style="fill:url(#SVGID_2_);" d="M512,456.77c0,7.102-1.344,13.879-3.796,20.108H405.942
	c-2.453-6.228-3.796-13.006-3.796-20.108c0-6.915,1.275-13.526,3.609-19.617c7.896-20.657,27.895-35.31,51.317-35.31
	s43.422,14.653,51.317,35.31C510.725,443.244,512,449.855,512,456.77z"/>
<linearGradient id="SVGID_3_" gradientUnits="userSpaceOnUse" x1="180.4141" y1="239.6912" x2="180.4141" y2="-47.6888" gradientTransform="matrix(1.0039 0 0 -1.0039 0.1922 516.5573)">
	<stop  offset="0" style="stop-color:#9FC7E2"/>
	<stop  offset="1" style="stop-color:#4975AD"/>
</linearGradient>
<polygon style="fill:url(#SVGID_3_);" points="181.313,69.337 35.41,216.119 35.41,476.877 327.217,476.877 327.217,216.119 "/>
<linearGradient id="SVGID_4_" gradientUnits="userSpaceOnUse" x1="192.0799" y1="62.6825" x2="50.6239" y2="204.1425" gradientTransform="matrix(1.0039 0 0 -1.0039 0.1922 516.5573)">
	<stop  offset="0" style="stop-color:#9FC7E2;stop-opacity:0"/>
	<stop  offset="1" style="stop-color:#4975AD"/>
</linearGradient>
<path style="fill:url(#SVGID_4_);" d="M133.832,303.138c-2.238-3.458-6.121-5.755-10.538-5.755H77.779
	c-6.922,0-12.553,5.631-12.553,12.553v102.403c0,4.416,2.298,8.299,5.755,10.538l54,54h182.588L133.832,303.138z"/>
<linearGradient id="SVGID_5_" gradientUnits="userSpaceOnUse" x1="279.0382" y1="62.6808" x2="137.5782" y2="204.1409" gradientTransform="matrix(1.0039 0 0 -1.0039 0.1922 516.5573)">
	<stop  offset="0" style="stop-color:#9FC7E2;stop-opacity:0"/>
	<stop  offset="1" style="stop-color:#4975AD"/>
</linearGradient>
<path style="fill:url(#SVGID_5_);" d="M221.127,303.138c-2.238-3.458-6.121-5.755-10.538-5.755h-45.515
	c-6.922,0-12.553,5.631-12.553,12.553v102.403c0,4.416,2.298,8.299,5.755,10.538l54,54h182.588L221.127,303.138z"/>
<linearGradient id="SVGID_6_" gradientUnits="userSpaceOnUse" x1="195.6498" y1="272.0325" x2="79.6298" y2="388.0525" gradientTransform="matrix(1.0039 0 0 -1.0039 0.1922 516.5573)">
	<stop  offset="0" style="stop-color:#9FC7E2;stop-opacity:0"/>
	<stop  offset="1" style="stop-color:#4975AD"/>
</linearGradient>
<polygon style="fill:url(#SVGID_6_);" points="35.41,216.119 35.41,241.084 271.203,476.877 327.217,476.877 327.217,216.119 
	181.313,69.337 "/>
<linearGradient id="SVGID_7_" gradientUnits="userSpaceOnUse" x1="312.2681" y1="219.2907" x2="236.6181" y2="294.9407" gradientTransform="matrix(1.0039 0 0 -1.0039 0.1922 516.5573)">
	<stop  offset="0" style="stop-color:#9FC7E2;stop-opacity:0"/>
	<stop  offset="1" style="stop-color:#4975AD"/>
</linearGradient>
<path style="fill:url(#SVGID_7_);" d="M327.217,216.119l-43.275-43.536l-88.337,88.336c-3.172,3.172-3.172,8.315,0,11.488
	l131.612,131.612L327.217,216.119L327.217,216.119z"/>
<linearGradient id="SVGID_8_" gradientUnits="userSpaceOnUse" x1="304.9879" y1="187.8505" x2="174.3078" y2="318.5305" gradientTransform="matrix(1.0039 0 0 -1.0039 0.1922 516.5573)">
	<stop  offset="0" style="stop-color:#9FC7E2;stop-opacity:0"/>
	<stop  offset="1" style="stop-color:#4975AD"/>
</linearGradient>
<path style="fill:url(#SVGID_8_);" d="M227.375,161.898c-11.298-12.529-27.646-20.421-45.806-20.421
	c-34.014,0-61.686,27.672-61.686,61.686c0,18.16,7.892,34.509,20.421,45.807L296.12,404.785h31.097V261.739L227.375,161.898z"/>
<circle style="fill:#503837;" cx="181.569" cy="203.162" r="53.118"/>
<path style="fill:#FFFFFF;" d="M181.569,141.477c-34.014,0-61.686,27.672-61.686,61.686s27.672,61.686,61.686,61.686
	s61.686-27.672,61.686-61.686S215.583,141.477,181.569,141.477z M225.285,194.595h-35.148v-35.148
	C207.842,162.911,221.822,176.89,225.285,194.595z M173.002,159.447v35.148h-35.148C141.317,176.89,155.297,162.911,173.002,159.447
	z M137.854,211.73h35.148v35.148C155.297,243.415,141.317,229.435,137.854,211.73z M190.137,246.879V211.73h35.148
	C221.822,229.435,207.842,243.415,190.137,246.879z"/>
<linearGradient id="SVGID_9_" gradientUnits="userSpaceOnUse" x1="334.9236" y1="239.6912" x2="334.9236" y2="-47.6888" gradientTransform="matrix(1.0039 0 0 -1.0039 0.1922 516.5573)">
	<stop  offset="0" style="stop-color:#9FC7E2"/>
	<stop  offset="1" style="stop-color:#4975AD"/>
</linearGradient>
<polygon style="fill:url(#SVGID_9_);" points="335.938,137.014 255.019,218.915 255.019,476.877 417.839,476.877 417.839,218.915 
	"/>
<linearGradient id="SVGID_10_" gradientUnits="userSpaceOnUse" x1="147.6057" y1="337.5412" x2="147.6057" y2="190.3712" gradientTransform="matrix(1.0039 0 0 -1.0039 0.1922 516.5573)">
	<stop  offset="0" style="stop-color:#FF931E"/>
	<stop  offset="1" style="stop-color:#FF5D00"/>
</linearGradient>
<path style="fill:url(#SVGID_10_);" d="M294.375,170.524L190.094,66.243c-4.849-4.849-12.711-4.849-17.56,0L2.379,236.398
	c-3.172,3.172-3.172,8.315,0,11.488l7.252,7.252c3.172,3.172,8.315,3.172,11.488,0L179.002,97.253c1.276-1.277,3.346-1.277,4.623,0
	l92.01,92.01c3.172,3.172,8.315,3.172,11.488,0l7.251-7.252C297.546,178.84,297.546,173.697,294.375,170.524z"/>
<linearGradient id="SVGID_11_" gradientUnits="userSpaceOnUse" x1="379.9273" y1="299.3691" x2="97.3673" y2="467.1791" gradientTransform="matrix(1.0039 0 0 -1.0039 0.1922 516.5573)">
	<stop  offset="0" style="stop-color:#FF931E;stop-opacity:0"/>
	<stop  offset="1" style="stop-color:#D54003"/>
</linearGradient>
<path style="fill:url(#SVGID_11_);" d="M190.094,66.243c-2.424-2.424-5.602-3.636-8.779-3.636v33.69
	c0.836,0,1.674,0.319,2.311,0.958l92.01,92.01c3.172,3.172,8.315,3.172,11.488,0l7.252-7.252c3.172-3.172,3.172-8.315,0-11.488
	L190.094,66.243z"/>
<path style="fill:#A5B0B8;" d="M306.023,476.877V313.078c0-4.606,3.734-8.34,8.34-8.34h44.133c4.606,0,8.34,3.734,8.34,8.34v163.798
	L306.023,476.877L306.023,476.877z"/>
<path style="fill:#43556C;" d="M374.364,476.877h-15.059V313.078c0-0.447-0.363-0.81-0.81-0.81h-44.132
	c-0.447,0-0.81,0.363-0.81,0.81v163.798h-15.059V313.078c0-8.75,7.119-15.869,15.869-15.869h44.132
	c8.75,0,15.869,7.119,15.869,15.869V476.877z"/>
<circle style="fill:#FFFFFF;" cx="325.642" cy="364.572" r="6.866"/>
<rect x="35.408" y="437.156" style="fill:#697786;" width="382.434" height="39.724"/>
<linearGradient id="SVGID_12_" gradientUnits="userSpaceOnUse" x1="334.9231" y1="212.7212" x2="334.9231" y2="-76.7788" gradientTransform="matrix(1.0039 0 0 -1.0039 0.1922 516.5573)">
	<stop  offset="0" style="stop-color:#4975AD"/>
	<stop  offset="1" style="stop-color:#114F77"/>
</linearGradient>
<path style="fill:url(#SVGID_12_);" d="M335.938,137.014l-80.919,81.9v257.962h36.291V272.61c0-5.401,1.594-10.682,4.584-15.18l0,0
	c19.178-28.859,61.523-28.976,80.862-0.225l0.122,0.182c3.044,4.525,4.669,9.854,4.669,15.307v204.183h36.291V218.915
	L335.938,137.014z"/>
<g>
	<rect x="255.016" y="437.156" style="fill:#43556C;" width="36.292" height="39.724"/>
	<rect x="381.55" y="437.156" style="fill:#43556C;" width="36.292" height="39.724"/>
</g>
<linearGradient id="SVGID_13_" gradientUnits="userSpaceOnUse" x1="352.9976" y1="268.3902" x2="301.7176" y2="319.6702" gradientTransform="matrix(1.0039 0 0 -1.0039 0.1922 516.5573)">
	<stop  offset="0" style="stop-color:#4975AD;stop-opacity:0"/>
	<stop  offset="1" style="stop-color:#114F77"/>
</linearGradient>
<path style="fill:url(#SVGID_13_);" d="M255.019,218.915v20.108l36.291,36.291v-2.704c0-5.401,1.594-10.682,4.584-15.18l0,0
	c19.178-28.859,61.523-28.976,80.862-0.225l0.122,0.182c3.044,4.525,4.669,9.854,4.669,15.307v92.858l36.291,36.291V218.915
	l-81.9-81.9L255.019,218.915z"/>
<linearGradient id="SVGID_14_" gradientUnits="userSpaceOnUse" x1="334.9236" y1="297.5712" x2="334.9236" y2="179.1712" gradientTransform="matrix(1.0039 0 0 -1.0039 0.1922 516.5573)">
	<stop  offset="0" style="stop-color:#FF931E"/>
	<stop  offset="1" style="stop-color:#FF5D00"/>
</linearGradient>
<path style="fill:url(#SVGID_14_);" d="M477.253,260.919L345.208,128.875c-4.849-4.849-12.711-4.849-17.56,0L195.605,260.919
	c-3.172,3.172-3.172,8.315,0,11.488l7.252,7.252c3.172,3.172,8.315,3.172,11.488,0l119.774-119.774c1.277-1.277,3.346-1.277,4.623,0
	L458.515,279.66c3.172,3.172,8.315,3.172,11.488,0l7.251-7.252C480.426,269.235,480.426,264.092,477.253,260.919z"/>
<linearGradient id="SVGID_15_" gradientUnits="userSpaceOnUse" x1="419.9474" y1="289.3047" x2="265.1275" y2="457.1147" gradientTransform="matrix(1.0039 0 0 -1.0039 0.1922 516.5573)">
	<stop  offset="0" style="stop-color:#FF931E;stop-opacity:0"/>
	<stop  offset="1" style="stop-color:#D54003"/>
</linearGradient>
<path style="fill:url(#SVGID_15_);" d="M345.208,128.875c-2.424-2.424-5.602-3.636-8.779-3.636v33.69
	c0.836,0,1.674,0.319,2.311,0.958L458.513,279.66c3.172,3.172,8.315,3.172,11.488,0l7.252-7.252c3.172-3.172,3.172-8.315,0-11.488
	L345.208,128.875z"/>
<path style="fill:#503837;" d="M123.294,417.536H77.78c-2.87,0-5.197-2.327-5.197-5.197V309.936c0-2.87,2.327-5.197,5.197-5.197
	h45.514c2.87,0,5.197,2.327,5.197,5.197v102.403C128.491,415.209,126.164,417.536,123.294,417.536z"/>
<path style="fill:#FFFFFF;" d="M123.294,424.892H77.779c-6.922,0-12.553-5.631-12.553-12.553V309.936
	c0-6.922,5.631-12.553,12.553-12.553h45.515c6.922,0,12.553,5.631,12.553,12.553v102.403
	C135.847,419.261,130.216,424.892,123.294,424.892z M79.938,410.18h41.195v-98.084H79.938V410.18z"/>
<path style="fill:#503837;" d="M210.589,417.536h-45.514c-2.87,0-5.197-2.327-5.197-5.197V309.936c0-2.87,2.327-5.197,5.197-5.197
	h45.514c2.87,0,5.197,2.327,5.197,5.197v102.403C215.786,415.209,213.459,417.536,210.589,417.536z"/>
<path style="fill:#FFFFFF;" d="M210.589,424.892h-45.515c-6.922,0-12.553-5.631-12.553-12.553V309.936
	c0-6.922,5.631-12.553,12.553-12.553h45.515c6.922,0,12.553,5.631,12.553,12.553v102.403
	C223.142,419.261,217.511,424.892,210.589,424.892z M167.233,410.18h41.195v-98.084h-41.195V410.18z"/>
<linearGradient id="SVGID_16_" gradientUnits="userSpaceOnUse" x1="18.4349" y1="81.7515" x2="71.1389" y2="29.0515" gradientTransform="matrix(1.0039 0 0 -1.0039 0.1922 516.5573)">
	<stop  offset="0" style="stop-color:#9EB644"/>
	<stop  offset="1" style="stop-color:#738611"/>
</linearGradient>
<path style="fill:url(#SVGID_16_);" d="M85.76,461.18c0,5.544-1.049,10.835-2.964,15.697H2.964C1.049,472.014,0,466.723,0,461.18
	c0-5.398,0.996-10.559,2.818-15.315c6.164-16.126,21.777-27.566,40.062-27.566s33.898,11.44,40.062,27.566
	C84.765,450.621,85.76,455.782,85.76,461.18z"/>
<linearGradient id="SVGID_17_" gradientUnits="userSpaceOnUse" x1="64.3195" y1="70.1622" x2="102.5495" y2="31.9222" gradientTransform="matrix(1.0039 0 0 -1.0039 0.1922 516.5573)">
	<stop  offset="0" style="stop-color:#9EB644"/>
	<stop  offset="1" style="stop-color:#738611"/>
</linearGradient>
<path style="fill:url(#SVGID_17_);" d="M113.411,465.49c0,4.022-0.761,7.86-2.149,11.387H53.349
	c-1.388-3.527-2.149-7.365-2.149-11.387c0-3.916,0.722-7.66,2.044-11.109c4.471-11.698,15.797-19.996,29.062-19.996
	s24.59,8.298,29.062,19.996C112.689,457.831,113.411,461.574,113.411,465.49z"/>
<g>
</g>
<g>
</g>
<g>
</g>
<g>
</g>
<g>
</g>
<g>
</g>
<g>
</g>
<g>
</g>
<g>
</g>
<g>
</g>
<g>
</g>
<g>
</g>
<g>
</g>
<g>
</g>
<g>
</g>
</svg>
